<svg xmlns="http://www.w3.org/2000/svg" xmlns:xlink="http://www.w3.org/1999/xlink" preserveAspectRatio="xMidYMid" width="72" height="72" viewBox="0 0 72 72">
  <defs>
    <style>
      .cls-1 {
        fill: #d8d8d8;
        opacity: 0.15;
      }

      .cls-2 {
        fill: #b6c0c6;
        fill-opacity: 0.3;
      }

      .cls-2, .cls-3, .cls-4, .cls-5, .cls-6, .cls-7, .cls-8 {
        fill-rule: evenodd;
      }

      .cls-3 {
        fill: #ffbe1b;
      }

      .cls-4 {
        fill: #ffe37b;
      }

      .cls-5 {
        fill: #fab900;
      }

      .cls-6 {
        fill: #0064aa;
      }

      .cls-7 {
        fill: #002864;
      }

      .cls-8 {
        fill: #5000aa;
      }
    </style>
  </defs>
  <g>
    <rect width="72" height="72" rx="25.6" ry="25.6" class="cls-1"/>
    <path d="M14.943,23.900 C13.227,23.471 11.888,22.131 11.458,20.415 L11.385,20.123 L11.311,20.415 C10.882,22.131 9.542,23.471 7.826,23.900 L7.534,23.974 L7.826,24.047 C9.542,24.477 10.882,25.816 11.311,27.532 L11.385,27.825 L11.458,27.532 C11.888,25.816 13.227,24.477 14.943,24.047 L15.236,23.974 L14.943,23.900 Z" class="cls-2"/>
    <path d="M10.803,34.971 C9.434,34.629 8.365,33.560 8.022,32.191 L7.964,31.957 L7.905,32.191 C7.562,33.560 6.493,34.629 5.124,34.971 L4.891,35.031 L5.124,35.090 C6.493,35.432 7.562,36.501 7.905,37.869 L7.964,38.103 L8.022,37.869 C8.365,36.501 9.434,35.432 10.803,35.090 L11.036,35.031 L10.803,34.971 Z" class="cls-2"/>
    <path d="M30.543,18.188 C30.439,18.104 30.324,18.077 30.210,18.083 C30.019,19.465 29.885,20.002 29.885,20.002 C29.885,20.002 29.880,19.985 29.873,19.956 C29.888,20.394 29.901,20.787 29.910,21.110 C29.999,21.127 30.092,21.124 30.179,21.082 C30.470,20.939 30.737,19.792 30.835,19.422 C30.933,19.052 30.963,18.530 30.543,18.188 Z" class="cls-3"/>
    <path d="M18.225,20.955 C18.119,21.030 17.844,21.194 17.615,21.082 C17.323,20.939 17.055,19.792 16.958,19.422 C16.861,19.052 16.831,18.530 17.250,18.188 C17.336,18.119 17.429,18.089 17.523,18.084 C17.679,18.510 17.812,18.830 17.829,18.953 C17.932,19.706 18.223,20.845 18.223,20.845 C18.223,20.845 18.226,20.829 18.230,20.799 C18.228,20.812 18.227,20.822 18.226,20.829 C18.225,20.872 18.225,20.913 18.225,20.955 Z" class="cls-3"/>
    <path d="M26.834,26.711 C26.731,26.391 26.678,26.062 26.657,25.746 C26.193,26.022 25.737,26.235 25.284,26.445 C24.897,26.624 23.485,26.667 23.005,26.444 C22.635,26.272 22.152,26.020 21.668,25.735 C21.647,26.055 21.595,26.388 21.491,26.711 C21.371,27.085 20.624,27.391 19.802,27.695 C19.961,27.914 21.485,29.915 24.191,29.915 C27.011,29.915 28.468,27.848 28.572,27.695 C27.691,27.419 26.974,27.148 26.834,26.711 Z" class="cls-3"/>
    <path d="M29.873,19.956 C29.815,19.736 29.568,18.719 29.592,17.511 C29.605,16.852 29.674,16.093 29.598,15.613 C29.522,15.132 29.269,14.347 28.687,14.297 C28.687,14.297 26.095,17.201 20.537,16.837 C19.998,16.801 19.519,16.716 19.091,16.594 C18.561,17.006 18.370,17.526 18.385,17.953 C18.435,19.386 18.250,20.671 18.226,20.828 C18.224,21.062 18.223,21.286 18.223,21.494 C18.223,22.971 19.133,23.926 20.483,24.955 C21.236,25.530 22.318,26.123 23.005,26.444 C23.486,26.667 24.898,26.624 25.284,26.445 C26.011,26.109 26.743,25.763 27.508,25.166 C28.760,24.186 29.924,23.077 29.924,21.831 C29.924,21.517 29.904,20.823 29.873,19.956 Z" class="cls-4"/>
    <path d="M29.864,11.757 C29.223,10.976 28.422,10.578 27.536,10.687 C26.861,9.810 25.792,9.143 24.095,9.241 C21.429,9.394 21.399,10.794 19.359,11.406 C17.319,12.019 16.498,10.407 15.679,10.961 C14.860,11.515 15.343,13.619 17.000,15.366 C16.863,16.802 17.783,18.617 17.829,18.953 C17.933,19.706 18.223,20.845 18.223,20.845 C18.223,20.845 18.438,19.484 18.385,17.953 C18.371,17.527 18.561,17.007 19.091,16.594 C19.519,16.716 19.998,16.801 20.537,16.837 C26.095,17.202 28.687,14.297 28.687,14.297 C29.269,14.347 29.522,15.132 29.598,15.613 C29.674,16.094 29.605,16.853 29.592,17.511 C29.565,18.879 29.885,20.002 29.885,20.002 C29.885,20.002 30.037,19.395 30.247,17.810 C30.368,16.903 31.564,13.828 29.864,11.757 Z" class="cls-5"/>
    <path d="M31.451,28.551 L28.578,27.685 C28.578,27.685 27.120,29.915 24.191,29.915 C21.327,29.915 19.788,27.674 19.788,27.674 L16.795,28.560 C15.202,29.032 14.109,30.495 14.109,32.156 L14.109,36.241 L34.119,36.241 L34.119,32.141 C34.119,30.487 33.035,29.028 31.451,28.551 Z" class="cls-6"/>
    <path d="M54.863,41.947 C54.759,41.862 54.644,41.835 54.530,41.842 C54.339,43.223 54.205,43.760 54.205,43.760 C54.205,43.760 54.200,43.744 54.192,43.715 C54.208,44.153 54.221,44.546 54.230,44.868 C54.318,44.885 54.411,44.883 54.498,44.840 C54.790,44.698 55.057,43.551 55.155,43.181 C55.252,42.810 55.282,42.288 54.863,41.947 Z" class="cls-3"/>
    <path d="M42.543,44.604 C42.543,44.604 42.252,43.465 42.149,42.711 C42.132,42.589 41.999,42.268 41.843,41.843 C41.748,41.848 41.655,41.877 41.569,41.947 C41.150,42.288 41.180,42.810 41.278,43.181 C41.375,43.551 41.642,44.698 41.934,44.841 C42.164,44.953 42.438,44.789 42.545,44.714 C42.545,44.671 42.545,44.631 42.545,44.588 C42.543,44.598 42.543,44.604 42.543,44.604 Z" class="cls-3"/>
    <path d="M51.153,50.470 C51.050,50.150 50.998,49.821 50.977,49.505 C50.512,49.781 50.056,49.994 49.603,50.204 C49.217,50.383 47.804,50.426 47.324,50.203 C46.955,50.031 46.472,49.779 45.987,49.494 C45.966,49.813 45.914,50.147 45.810,50.470 C45.690,50.844 44.944,51.150 44.122,51.454 C44.281,51.673 45.804,53.673 48.511,53.673 C51.331,53.673 52.787,51.607 52.891,51.454 C52.011,51.177 51.293,50.907 51.153,50.470 Z" class="cls-3"/>
    <path d="M54.192,43.714 C54.134,43.494 53.888,42.478 53.911,41.269 C53.924,40.611 53.994,39.853 53.917,39.372 C53.842,38.891 53.589,38.106 53.007,38.056 C53.007,38.056 50.415,40.961 44.856,40.595 C44.317,40.560 43.838,40.475 43.410,40.352 C42.880,40.765 42.690,41.285 42.705,41.711 C42.754,43.145 42.569,44.430 42.545,44.587 C42.543,44.821 42.543,45.045 42.543,45.253 C42.543,46.730 43.453,47.685 44.802,48.714 C45.555,49.288 46.637,49.882 47.324,50.202 C47.805,50.426 49.217,50.383 49.604,50.204 C50.330,49.868 51.063,49.522 51.827,48.924 C53.079,47.945 54.243,46.836 54.243,45.590 C54.243,45.276 54.223,44.582 54.192,43.714 Z" class="cls-4"/>
    <path d="M54.184,35.516 C53.542,34.735 52.741,34.337 51.855,34.446 C51.180,33.568 50.112,32.902 48.415,32.999 C45.748,33.153 45.718,34.553 43.678,35.165 C41.638,35.777 40.817,34.166 39.998,34.720 C39.179,35.273 39.662,37.378 41.320,39.125 C41.182,40.561 42.102,42.376 42.149,42.712 C42.252,43.465 42.543,44.604 42.543,44.604 C42.543,44.604 42.757,43.243 42.705,41.712 C42.690,41.286 42.880,40.765 43.410,40.352 C43.838,40.475 44.317,40.560 44.856,40.595 C50.415,40.961 53.007,38.056 53.007,38.056 C53.589,38.106 53.842,38.891 53.917,39.372 C53.994,39.853 53.924,40.612 53.911,41.270 C53.885,42.637 54.205,43.760 54.205,43.760 C54.205,43.760 54.356,43.154 54.567,41.569 C54.687,40.662 55.884,37.587 54.184,35.516 Z" class="cls-7"/>
    <path d="M55.770,52.310 L52.898,51.444 C52.898,51.444 51.439,53.673 48.511,53.673 C45.647,53.673 44.107,51.433 44.107,51.433 L41.114,52.319 C39.521,52.790 38.428,54.253 38.428,55.915 L38.428,60.000 L58.438,60.000 L58.438,55.900 C58.438,54.246 57.354,52.787 55.770,52.310 Z" class="cls-8"/>
    <path d="M64.627,37.228 C63.195,36.869 62.075,35.750 61.716,34.317 L61.655,34.073 L61.593,34.317 C61.234,35.750 60.115,36.869 58.682,37.228 L58.438,37.289 L58.682,37.351 C60.115,37.710 61.234,38.829 61.593,40.262 L61.655,40.507 L61.716,40.262 C62.075,38.829 63.195,37.710 64.627,37.351 L64.872,37.289 L64.627,37.228 Z" class="cls-2"/>
    <path d="M59.812,25.773 C59.403,25.566 58.903,25.731 58.697,26.141 L57.137,29.237 C55.938,24.793 53.359,20.779 49.778,17.824 C45.794,14.536 40.749,12.725 35.574,12.725 C35.116,12.725 34.744,13.097 34.744,13.556 C34.744,14.014 35.116,14.386 35.574,14.386 C44.977,14.386 53.213,20.808 55.569,29.806 L52.251,28.188 C51.839,27.987 51.342,28.159 51.141,28.571 C50.940,28.983 51.111,29.480 51.523,29.682 L56.607,32.159 C56.724,32.216 56.848,32.243 56.970,32.243 C57.274,32.243 57.566,32.076 57.712,31.786 L60.180,26.888 C60.387,26.478 60.222,25.979 59.812,25.773 Z" class="cls-7"/>
    <path d="M36.186,56.658 C26.783,56.658 18.547,50.237 16.191,41.239 L19.509,42.856 C19.922,43.058 20.419,42.886 20.620,42.474 C20.821,42.062 20.650,41.564 20.237,41.363 L15.154,38.885 C15.037,38.828 14.913,38.801 14.791,38.801 C14.487,38.801 14.194,38.969 14.049,39.258 L11.581,44.157 C11.374,44.566 11.539,45.065 11.949,45.272 C12.358,45.478 12.857,45.313 13.064,44.904 L14.624,41.808 C15.823,46.252 18.402,50.266 21.983,53.220 C25.967,56.508 31.011,58.319 36.186,58.319 C36.645,58.319 37.017,57.948 37.017,57.489 C37.017,57.030 36.645,56.658 36.186,56.658 Z" class="cls-6"/>
  </g>
</svg>
