<svg xmlns="http://www.w3.org/2000/svg" xmlns:xlink="http://www.w3.org/1999/xlink" preserveAspectRatio="xMidYMid" width="72" height="72" viewBox="0 0 72 72">
  <defs>
    <style>
      .cls-1 {
        fill: #d8d8d8;
        opacity: 0.15;
      }

      .cls-2 {
        fill: #b6c0c6;
        fill-opacity: 0.3;
      }

      .cls-2, .cls-3, .cls-4, .cls-5, .cls-6, .cls-7, .cls-8, .cls-9 {
        fill-rule: evenodd;
      }

      .cls-3 {
        fill: #0064aa;
      }

      .cls-11, .cls-4 {
        fill: #ffbe1b;
      }

      .cls-5 {
        fill: #8ac9f9;
      }

      .cls-6 {
        fill: #fff;
      }

      .cls-7 {
        fill: #ffe37b;
      }

      .cls-8 {
        fill: #002864;
      }

      .cls-9 {
        fill: #5932ae;
      }

      .cls-10 {
        fill: #330d84;
      }
    </style>
  </defs>
  <g>
    <rect width="72" height="72" rx="25.6" ry="25.6" class="cls-1"/>
    <path d="M54.707,20.771 C53.051,20.356 51.757,19.062 51.342,17.406 L51.271,17.123 L51.200,17.406 C50.785,19.062 49.491,20.356 47.834,20.771 L47.551,20.843 L47.834,20.914 C49.491,21.328 50.785,22.623 51.200,24.279 L51.271,24.562 L51.342,24.279 C51.757,22.623 53.051,21.328 54.707,20.914 L54.991,20.843 L54.707,20.771 Z" class="cls-2"/>
    <path d="M16.441,26.109 C15.131,25.781 14.108,24.757 13.779,23.448 L13.723,23.224 L13.668,23.448 C13.339,24.757 12.316,25.781 11.006,26.109 L10.782,26.166 L11.006,26.222 C12.316,26.550 13.339,27.573 13.668,28.882 L13.723,29.107 L13.779,28.882 C14.108,27.573 15.131,26.550 16.441,26.222 L16.665,26.166 L16.441,26.109 Z" class="cls-2"/>
    <path d="M25.225,10.613 C24.026,10.312 23.088,9.375 22.788,8.176 L22.736,7.971 L22.685,8.176 C22.385,9.375 21.447,10.312 20.248,10.613 L20.043,10.665 L20.248,10.716 C21.447,11.017 22.385,11.954 22.685,13.153 L22.736,13.358 L22.788,13.153 C23.088,11.954 24.026,11.017 25.225,10.716 L25.430,10.665 L25.225,10.613 Z" class="cls-2"/>
    <path d="M13.294,31.517 C12.484,31.314 11.850,30.681 11.647,29.871 L11.612,29.732 L11.578,29.871 C11.375,30.681 10.741,31.314 9.930,31.517 L9.792,31.552 L9.930,31.587 C10.741,31.790 11.375,32.423 11.578,33.234 L11.612,33.372 L11.647,33.234 C11.850,32.423 12.484,31.790 13.294,31.587 L13.433,31.552 L13.294,31.517 Z" class="cls-2"/>
    <path d="M32.708,9.395 C27.155,9.395 22.654,13.896 22.654,19.449 C22.654,20.580 22.843,21.667 23.188,22.682 C23.993,22.475 24.836,22.365 25.704,22.365 C28.532,22.365 31.084,23.533 32.910,25.412 C34.720,22.761 37.765,21.021 41.217,21.021 C41.694,21.021 42.163,21.056 42.623,21.121 C42.714,20.577 42.762,20.019 42.762,19.449 C42.762,13.896 38.260,9.395 32.708,9.395 Z" class="cls-3"/>
    <path d="M32.910,25.410 C31.084,23.533 28.531,22.365 25.704,22.365 C20.152,22.365 15.651,26.866 15.651,32.419 C15.651,33.536 15.836,34.610 16.172,35.614 L32.247,35.614 C31.555,34.250 31.163,32.709 31.163,31.075 C31.163,28.974 31.808,27.024 32.910,25.410 Z" class="cls-4"/>
    <path d="M32.708,11.902 C28.540,11.902 25.161,15.281 25.161,19.449 C25.161,20.483 25.369,21.468 25.746,22.366 C28.556,22.377 31.093,23.541 32.911,25.410 C34.518,23.057 37.100,21.423 40.076,21.087 C40.192,20.559 40.255,20.011 40.255,19.449 C40.255,15.281 36.876,11.902 32.708,11.902 Z" class="cls-5"/>
    <path d="M32.708,14.375 L29.613,19.097 L32.708,21.379 L35.803,19.097 L32.708,14.375 Z" class="cls-6"/>
    <path d="M32.708,22.156 L29.613,19.719 L32.708,24.522 L35.803,19.719 L32.708,22.156 Z" class="cls-6"/>
    <path d="M31.163,31.075 C31.163,29.942 31.353,28.853 31.699,27.836 C30.320,26.035 28.148,24.872 25.705,24.872 C21.537,24.872 18.157,28.251 18.157,32.419 C18.157,33.561 18.413,34.644 18.867,35.614 L32.247,35.614 C31.555,34.250 31.163,32.709 31.163,31.075 Z" class="cls-7"/>
    <path d="M41.217,21.021 C35.664,21.021 31.163,25.522 31.163,31.075 C31.163,32.709 31.555,34.250 32.247,35.614 L50.188,35.614 C50.879,34.250 51.271,32.709 51.271,31.075 C51.271,25.522 46.770,21.021 41.217,21.021 Z" class="cls-8"/>
    <path d="M29.151,34.047 C29.151,34.558 28.976,35.009 28.627,35.399 C28.556,35.478 28.475,35.549 28.385,35.614 L22.258,35.614 L22.258,34.697 L23.306,34.697 L23.306,30.140 L22.258,30.140 L22.258,28.758 L23.306,28.758 L23.665,28.758 L23.665,27.916 L24.950,27.916 L24.950,28.758 L25.811,28.758 L25.811,27.916 L27.096,27.916 L27.096,28.847 C27.215,28.872 27.331,28.900 27.438,28.936 C27.798,29.055 28.069,29.215 28.250,29.418 C28.578,29.795 28.742,30.220 28.742,30.696 C28.742,31.268 28.558,31.694 28.188,31.973 C28.062,32.071 27.974,32.132 27.925,32.157 C27.876,32.182 27.789,32.221 27.663,32.277 C28.117,32.375 28.479,32.579 28.747,32.890 C29.016,33.201 29.151,33.587 29.151,34.047 ZM26.752,30.297 C26.549,30.193 26.207,30.140 25.726,30.140 L24.940,30.140 L24.940,31.722 L25.715,31.722 C26.169,31.722 26.506,31.673 26.726,31.575 C26.946,31.478 27.056,31.266 27.056,30.942 C27.056,30.617 26.954,30.402 26.752,30.297 ZM27.092,33.173 C26.845,33.065 26.448,33.011 25.904,33.011 L24.940,33.011 L24.940,34.697 L26.061,34.697 C26.528,34.697 26.880,34.640 27.113,34.524 C27.347,34.409 27.464,34.182 27.464,33.843 C27.464,33.505 27.340,33.281 27.092,33.173 Z" class="cls-6"/>
    <path d="M41.217,23.528 C37.049,23.528 33.670,26.907 33.670,31.075 C33.670,32.779 34.235,34.351 35.188,35.614 L47.246,35.614 C48.199,34.351 48.764,32.779 48.764,31.075 C48.764,26.907 45.385,23.528 41.217,23.528 Z" class="cls-9"/>
    <path d="M45.398,33.078 L45.398,27.710 L41.217,31.996 L37.036,27.710 L37.036,33.078 L35.772,33.078 L35.772,34.439 L38.397,34.439 L38.397,31.055 L41.217,33.943 L44.037,31.055 L44.037,34.439 L46.662,34.439 L46.662,33.078 L45.398,33.078 Z" class="cls-6"/>
    <path d="M21.524,55.684 C21.521,55.690 21.517,55.695 21.515,55.701 L20.957,55.701 C20.490,55.701 20.045,55.575 19.659,55.350 L18.726,55.350 C17.901,55.350 17.232,56.019 17.232,56.845 C17.232,57.670 17.901,58.340 18.726,58.340 L20.989,58.340 C20.979,58.214 20.973,58.088 20.973,57.960 C20.973,57.140 21.172,56.367 21.524,55.684 Z" class="cls-8"/>
    <path d="M59.694,32.032 C59.569,31.465 59.680,30.902 59.960,30.442 L57.315,31.028 C56.821,31.138 56.416,31.490 56.239,31.963 L53.990,37.558 C54.112,38.038 54.099,38.563 53.909,39.079 L47.800,54.015 C47.619,54.506 47.300,54.916 46.895,55.209 L46.839,55.350 L46.676,55.350 C46.321,55.556 45.915,55.680 45.488,55.697 C45.486,55.692 45.482,55.687 45.480,55.683 C45.832,56.365 46.032,57.139 46.032,57.960 C46.032,58.087 46.025,58.214 46.016,58.339 L47.875,58.339 C48.499,58.339 49.057,57.952 49.275,57.368 L58.754,33.772 L60.605,33.362 C60.157,33.063 59.820,32.599 59.694,32.032 Z" class="cls-8"/>
    <path d="M36.617,55.684 C36.614,55.690 36.611,55.695 36.608,55.701 L30.396,55.701 C30.393,55.696 30.390,55.691 30.388,55.686 C30.738,56.368 30.938,57.140 30.938,57.960 C30.938,58.087 30.932,58.214 30.922,58.339 L36.082,58.339 C36.072,58.214 36.066,58.087 36.066,57.960 C36.066,57.140 36.266,56.367 36.617,55.684 Z" class="cls-8"/>
    <path d="M66.371,30.554 C66.113,29.389 64.959,28.654 63.796,28.913 L61.336,29.457 C60.172,29.715 59.437,30.868 59.694,32.032 C59.918,33.039 60.810,33.725 61.801,33.725 C61.955,33.725 62.112,33.708 62.269,33.673 L64.730,33.128 C65.894,32.871 66.629,31.718 66.371,30.554 Z" class="cls-4"/>
    <path d="M51.492,35.614 L14.847,35.614 C13.056,35.614 11.812,37.397 12.431,39.079 L18.540,54.015 C18.913,55.028 19.878,55.701 20.957,55.701 L21.515,55.701 C22.339,54.085 24.017,52.977 25.955,52.977 C27.894,52.977 29.572,54.085 30.396,55.701 L36.608,55.701 C37.432,54.085 39.111,52.977 41.049,52.977 C42.985,52.977 44.663,54.083 45.488,55.697 C46.524,55.655 47.438,54.995 47.800,54.015 L53.909,39.079 C54.528,37.397 53.283,35.614 51.492,35.614 Z" class="cls-3"/>
    <circle cx="41.045" cy="57.955" r="4.985" class="cls-10"/>
    <circle cx="41.05" cy="57.97" r="1.92" class="cls-11"/>
    <circle cx="25.955" cy="57.955" r="4.985" class="cls-10"/>
    <circle cx="25.97" cy="57.97" r="1.94" class="cls-11"/>
  </g>
</svg>
