<svg xmlns="http://www.w3.org/2000/svg" xmlns:xlink="http://www.w3.org/1999/xlink" preserveAspectRatio="xMidYMid" width="72" height="72" viewBox="0 0 72 72">
  <defs>
    <style>
      .cls-1 {
        fill: #d8d8d8;
        opacity: 0.15;
      }

      .cls-2, .cls-6 {
        fill: #0064aa;
      }

      .cls-11, .cls-2, .cls-3, .cls-4, .cls-5, .cls-8, .cls-9 {
        fill-rule: evenodd;
      }

      .cls-10, .cls-3 {
        fill: #fff;
      }

      .cls-4 {
        fill: #b6c0c6;
        fill-opacity: 0.3;
      }

      .cls-5 {
        fill: #8ac9f9;
      }

      .cls-7 {
        fill: #ffbe1b;
      }

      .cls-8 {
        fill: #330d84;
      }

      .cls-9 {
        fill: #fab900;
      }

      .cls-11 {
        fill: #002864;
      }
    </style>
  </defs>
  <g>
    <rect width="72" height="72" rx="25.6" ry="25.6" class="cls-1"/>
    <path d="M51.358,12.783 L18.642,12.783 C17.098,12.783 15.846,14.035 15.846,15.578 L15.846,24.446 C15.846,25.990 17.098,27.242 18.642,27.242 L26.667,27.242 L26.667,21.921 L43.854,21.921 L43.854,27.242 L51.359,27.242 C52.902,27.242 54.154,25.990 54.154,24.446 L54.154,15.578 C54.154,14.035 52.902,12.783 51.358,12.783 Z" class="cls-2"/>
    <path d="M19.327,21.920 C18.853,21.920 18.469,22.305 18.469,22.779 L18.469,24.226 C18.469,24.700 18.853,25.085 19.327,25.085 L26.667,25.085 L26.667,21.920 L19.327,21.920 L19.327,21.920 Z" class="cls-3"/>
    <path d="M50.861,21.920 L43.854,21.920 L43.854,25.085 L50.861,25.085 C51.335,25.085 51.719,24.700 51.719,24.227 L51.719,22.779 C51.719,22.305 51.335,21.920 50.861,21.920 Z" class="cls-3"/>
    <path d="M35.335,54.997 C33.409,54.514 31.905,53.010 31.422,51.084 L31.339,50.756 L31.258,51.084 C30.775,53.010 29.270,54.514 27.345,54.997 L27.016,55.080 L27.345,55.162 C29.270,55.645 30.775,57.149 31.258,59.075 L31.339,59.403 L31.422,59.075 C31.905,57.149 33.409,55.645 35.335,55.162 L35.664,55.080 L35.335,54.997 Z" class="cls-4"/>
    <path d="M26.536,51.654 C25.245,51.330 24.237,50.322 23.913,49.031 L23.858,48.811 L23.803,49.031 C23.480,50.322 22.472,51.330 21.180,51.654 L20.960,51.709 L21.180,51.764 C22.472,52.087 23.480,53.095 23.803,54.387 L23.858,54.606 L23.913,54.387 C24.237,53.095 25.245,52.087 26.536,51.764 L26.756,51.709 L26.536,51.654 Z" class="cls-4"/>
    <path d="M61.569,31.355 C59.530,30.844 57.937,29.251 57.425,27.212 L57.339,26.864 L57.250,27.212 C56.740,29.251 55.148,30.844 53.108,31.355 L52.761,31.443 L53.108,31.530 C55.148,32.040 56.740,33.633 57.250,35.673 L57.339,36.021 L57.425,35.673 C57.937,33.633 59.530,32.040 61.569,31.530 L61.917,31.443 L61.569,31.355 Z" class="cls-4"/>
    <path d="M13.935,27.184 C12.565,26.840 11.494,25.769 11.151,24.399 L11.092,24.165 L11.033,24.399 C10.690,25.769 9.620,26.840 8.249,27.184 L8.016,27.242 L8.249,27.301 C9.620,27.644 10.690,28.714 11.033,30.085 L11.092,30.318 L11.151,30.085 C11.494,28.714 12.565,27.644 13.935,27.301 L14.169,27.242 L13.935,27.184 Z" class="cls-4"/>
    <g>
      <path d="M28.243,21.920 L28.243,41.942 C30.331,42.278 31.980,43.927 32.316,46.015 L37.673,46.015 C37.611,44.057 37.012,41.060 37.012,41.060 C37.012,41.060 36.742,39.304 38.016,38.848 C39.176,38.432 40.121,39.623 40.414,40.200 C40.586,40.539 40.828,41.154 41.295,42.212 C41.609,42.090 41.936,41.997 42.278,41.942 L42.278,21.920 L28.243,21.920 Z" class="cls-5"/>
      <circle cx="35.25" cy="31.69" r="5.94" class="cls-6"/>
      <circle cx="35.265" cy="31.69" r="4.455" class="cls-7"/>
      <path d="M37.920,31.747 L37.920,32.506 L37.370,32.506 C37.356,32.577 37.339,32.645 37.318,32.709 C37.248,32.921 37.153,33.081 37.033,33.188 C36.810,33.382 36.559,33.479 36.278,33.479 C35.940,33.479 35.689,33.370 35.524,33.151 C35.466,33.076 35.430,33.025 35.415,32.996 C35.401,32.967 35.377,32.916 35.344,32.841 C35.287,33.109 35.166,33.323 34.982,33.482 C34.798,33.640 34.571,33.720 34.298,33.720 C33.997,33.720 33.731,33.617 33.500,33.410 C33.288,33.221 33.161,32.918 33.116,32.506 L32.600,32.506 L32.600,31.747 L33.098,31.747 L33.098,31.238 L32.600,31.238 L32.600,30.480 L33.098,30.480 L33.098,30.267 L33.098,29.648 L33.915,29.648 L33.915,30.267 L36.607,30.267 L36.607,29.648 L37.423,29.648 L37.423,30.267 L37.423,30.480 L37.920,30.480 L37.920,31.238 L37.920,31.239 L37.423,31.239 L37.423,31.747 L37.920,31.747 ZM34.911,31.233 L33.914,31.233 L33.914,31.895 C33.914,32.171 33.949,32.378 34.017,32.517 C34.085,32.655 34.219,32.724 34.419,32.724 C34.619,32.724 34.751,32.650 34.815,32.504 C34.879,32.357 34.911,32.124 34.911,31.802 L34.911,31.233 ZM36.607,31.233 L35.672,31.233 L35.672,31.691 C35.672,31.959 35.701,32.158 35.759,32.288 C35.816,32.417 35.941,32.482 36.133,32.482 C36.325,32.482 36.452,32.422 36.514,32.303 C36.575,32.183 36.607,31.981 36.607,31.697 L36.607,31.233 Z" class="cls-3"/>
      <path d="M37.674,46.015 L32.317,46.015 C31.980,43.927 30.332,42.278 28.243,41.942 L28.243,21.920 L26.667,21.920 L26.667,45.113 C26.667,46.479 27.779,47.592 29.146,47.592 L37.602,47.592 C37.643,47.199 37.674,46.810 37.678,46.415 C37.680,46.288 37.678,46.154 37.674,46.015 Z" class="cls-2"/>
      <path d="M51.459,59.467 L39.128,59.467 C38.409,59.467 37.826,60.050 37.826,60.769 L37.826,64.870 C37.826,65.589 38.409,66.172 39.128,66.172 L51.459,66.172 C52.177,66.172 52.761,65.589 52.761,64.870 L52.761,60.769 C52.761,60.050 52.177,59.467 51.459,59.467 Z" class="cls-8"/>
      <path d="M51.864,42.899 C50.549,39.408 47.387,33.974 45.381,31.443 C44.878,30.808 44.347,30.442 43.854,30.238 L43.854,45.113 C43.854,45.703 43.646,46.244 43.301,46.669 C43.118,46.164 42.911,45.663 42.678,45.185 C41.206,42.162 40.708,40.778 40.414,40.200 C40.121,39.623 39.176,38.432 38.016,38.848 C36.742,39.304 37.012,41.060 37.012,41.060 C37.012,41.060 37.699,44.497 37.679,46.414 C37.658,48.332 37.007,50.127 37.664,52.691 C37.804,53.233 38.011,53.680 38.252,54.050 C38.362,54.296 38.488,54.559 38.634,54.842 C39.467,56.453 41.258,58.336 41.258,58.336 L41.261,59.467 L50.780,59.467 C50.738,58.309 50.755,56.934 50.916,55.494 C51.481,50.457 52.927,45.724 51.864,42.899 Z" class="cls-9"/>
      <circle cx="50.25" cy="61.895" r="1" class="cls-10"/>
      <path d="M24.513,33.106 C24.189,33.430 23.663,33.430 23.339,33.106 L21.977,31.744 L21.977,46.761 C21.977,47.219 21.605,47.591 21.147,47.591 C20.688,47.591 20.316,47.219 20.316,46.761 L20.316,31.744 L18.954,33.106 C18.630,33.430 18.104,33.430 17.780,33.106 C17.456,32.782 17.456,32.256 17.780,31.932 L20.559,29.152 C20.715,28.997 20.926,28.909 21.147,28.909 C21.367,28.909 21.578,28.997 21.734,29.152 L24.514,31.932 C24.838,32.256 24.838,32.782 24.513,33.106 Z" class="cls-11"/>
    </g>
    <path d="M42.278,21.920 L42.278,41.942 C41.936,41.997 41.609,42.090 41.295,42.212 C41.625,42.961 42.067,43.932 42.678,45.185 C42.911,45.663 43.118,46.164 43.301,46.669 C43.371,46.583 43.433,46.491 43.492,46.397 C43.507,46.371 43.524,46.345 43.539,46.318 C43.558,46.285 43.574,46.251 43.591,46.216 C43.608,46.183 43.625,46.149 43.640,46.115 C43.655,46.082 43.668,46.049 43.681,46.016 C43.696,45.977 43.711,45.939 43.724,45.899 C43.734,45.868 43.744,45.835 43.754,45.803 C43.767,45.760 43.777,45.716 43.788,45.672 C43.795,45.641 43.802,45.611 43.808,45.580 C43.818,45.530 43.825,45.479 43.832,45.428 C43.835,45.402 43.839,45.376 43.842,45.350 C43.849,45.272 43.854,45.193 43.854,45.113 L43.854,30.238 L43.854,21.920 L42.278,21.920 L42.278,21.920 Z" class="cls-2"/>
  </g>
</svg>
