<svg xmlns="http://www.w3.org/2000/svg" xmlns:xlink="http://www.w3.org/1999/xlink" preserveAspectRatio="xMidYMid" width="72" height="72" viewBox="0 0 72 72">
  <defs>
    <style>
      .cls-1 {
        fill: #d8d8d8;
        opacity: 0.15;
      }

      .cls-2 {
        fill: #b6c0c6;
        fill-opacity: 0.3;
      }

      .cls-2, .cls-3, .cls-4, .cls-5, .cls-6, .cls-7, .cls-8, .cls-9 {
        fill-rule: evenodd;
      }

      .cls-3 {
        fill: #0064aa;
      }

      .cls-4 {
        fill: #5000aa;
      }

      .cls-5 {
        fill: #844cc3;
      }

      .cls-6 {
        fill: #8ac9f9;
      }

      .cls-7 {
        fill: #fdfdfd;
      }

      .cls-8 {
        fill: #002864;
      }

      .cls-9 {
        fill: #fff;
      }

      .cls-10 {
        fill: #ffbe1b;
      }

      .cls-11 {
        fill: #ffe37b;
      }
    </style>
  </defs>
  <g>
    <rect width="72" height="72" rx="25.6" ry="25.6" class="cls-1"/>
    <path d="M62.026,41.267 C60.457,40.874 59.231,39.648 58.838,38.079 L58.771,37.811 L58.704,38.079 C58.311,39.648 57.085,40.874 55.516,41.267 L55.248,41.335 L55.516,41.402 C57.085,41.795 58.311,43.021 58.704,44.590 L58.771,44.858 L58.838,44.590 C59.231,43.021 60.457,41.795 62.026,41.402 L62.295,41.335 L62.026,41.267 Z" class="cls-2"/>
    <path d="M21.978,62.655 C20.409,62.262 19.183,61.036 18.790,59.468 L18.723,59.200 L18.656,59.468 C18.263,61.036 17.037,62.262 15.468,62.655 L15.200,62.723 L15.468,62.790 C17.037,63.183 18.263,64.409 18.656,65.978 L18.723,66.246 L18.790,65.978 C19.183,64.409 20.409,63.183 21.978,62.790 L22.247,62.723 L21.978,62.655 Z" class="cls-2"/>
    <path d="M29.511,11.158 C28.346,10.866 27.437,9.956 27.145,8.793 L27.095,8.594 L27.046,8.793 C26.754,9.957 25.844,10.866 24.680,11.158 L24.481,11.209 L24.680,11.259 C25.844,11.550 26.754,12.460 27.046,13.624 L27.095,13.823 L27.145,13.624 C27.437,12.459 28.347,11.550 29.511,11.259 L29.710,11.209 L29.511,11.158 Z" class="cls-2"/>
    <path d="M16.901,24.605 C15.766,24.321 14.880,23.435 14.596,22.301 L14.547,22.107 L14.499,22.301 C14.214,23.435 13.328,24.321 12.194,24.605 L12.000,24.655 L12.194,24.703 C13.328,24.987 14.214,25.874 14.499,27.008 L14.547,27.202 L14.596,27.008 C14.880,25.874 15.767,24.987 16.901,24.703 L17.095,24.655 L16.901,24.605 Z" class="cls-2"/>
    <path d="M33.735,8.787 C33.014,8.606 32.451,8.043 32.271,7.323 L32.240,7.200 L32.209,7.323 C32.029,8.043 31.466,8.606 30.745,8.787 L30.622,8.818 L30.745,8.849 C31.466,9.030 32.029,9.593 32.209,10.313 L32.240,10.436 L32.271,10.313 C32.451,9.593 33.014,9.030 33.735,8.849 L33.858,8.818 L33.735,8.787 Z" class="cls-2"/>
    <path d="M52.207,39.029 C52.152,39.036 52.097,39.041 52.041,39.046 C52.013,39.048 51.985,39.052 51.958,39.054 C51.873,39.059 51.788,39.062 51.702,39.062 C50.057,39.062 48.600,38.004 48.092,36.440 L47.336,34.116 L47.335,34.116 C47.676,35.186 47.518,36.266 47.018,37.143 C47.017,37.145 47.016,37.147 47.015,37.148 C46.390,38.242 45.218,38.979 43.958,39.055 C43.879,39.060 43.799,39.062 43.718,39.062 L43.219,39.062 C41.281,39.062 39.654,37.602 39.445,35.676 L39.304,34.377 L39.356,34.857 C39.599,37.102 37.841,39.062 35.583,39.062 L34.909,39.062 C32.651,39.062 30.893,37.103 31.135,34.859 L31.047,35.675 C30.838,37.602 29.211,39.062 27.273,39.062 C26.870,39.062 26.468,39.072 26.070,38.998 C26.040,38.992 26.009,38.985 25.979,38.978 C24.925,38.755 24.010,38.080 23.476,37.146 C22.974,36.266 22.816,35.186 23.156,34.116 L23.156,34.116 L22.400,36.440 C22.285,36.787 22.105,37.142 21.903,37.446 C21.131,38.608 19.649,39.209 18.285,39.029 C18.252,39.025 18.220,39.019 18.187,39.014 C17.936,38.975 17.691,38.907 17.453,38.816 L17.453,52.713 L53.039,52.713 L53.039,38.816 C52.775,38.919 52.497,38.992 52.207,39.029 Z" class="cls-3"/>
    <path d="M20.977,23.265 L15.453,33.457 C14.082,35.987 15.913,39.062 18.790,39.062 C20.434,39.062 21.891,38.004 22.400,36.440 L26.684,23.265 L20.977,23.265 L20.977,23.265 Z" class="cls-4"/>
    <path d="M27.252,23.265 L26.684,23.265 L23.163,34.093 C22.366,36.545 24.194,39.062 26.773,39.062 L27.273,39.062 C29.211,39.062 30.838,37.602 31.047,35.676 L31.875,28.037 C29.764,27.134 28.091,25.409 27.252,23.265 Z" class="cls-3"/>
    <path d="M39.356,34.857 L38.617,28.037 C37.582,28.479 36.442,28.725 35.246,28.725 C34.049,28.725 32.910,28.479 31.875,28.037 L31.135,34.857 C30.892,37.102 32.651,39.062 34.909,39.062 L35.582,39.062 C37.841,39.062 39.599,37.102 39.356,34.857 Z" class="cls-4"/>
    <path d="M47.328,34.092 L43.807,23.265 L43.239,23.265 C42.401,25.409 40.727,27.133 38.617,28.036 L39.445,35.675 C39.654,37.602 41.281,39.062 43.218,39.062 L43.718,39.062 C46.297,39.062 48.126,36.545 47.328,34.092 Z" class="cls-3"/>
    <path d="M55.039,33.457 L49.515,23.265 L43.807,23.265 L48.092,36.440 C48.600,38.004 50.057,39.062 51.702,39.062 C54.578,39.062 56.410,35.987 55.039,33.457 Z" class="cls-4"/>
    <path d="M15.172,34.116 C14.404,36.490 16.159,39.062 18.790,39.062 C20.434,39.062 21.891,38.004 22.400,36.440 L23.156,34.116 L15.172,34.116 Z" class="cls-5"/>
    <path d="M39.356,34.857 L39.276,34.116 L31.216,34.116 L31.135,34.857 C30.892,37.102 32.651,39.062 34.909,39.062 L35.582,39.062 C37.841,39.062 39.599,37.102 39.356,34.857 Z" class="cls-5"/>
    <path d="M47.335,34.116 L39.276,34.116 L39.445,35.675 C39.654,37.602 41.281,39.062 43.219,39.062 L43.718,39.062 C46.289,39.062 48.113,36.561 47.335,34.116 Z" class="cls-6"/>
    <path d="M55.320,34.116 L47.336,34.116 L48.092,36.440 C48.600,38.004 50.057,39.062 51.702,39.062 C54.332,39.062 56.087,36.491 55.320,34.116 Z" class="cls-5"/>
    <path d="M24.254,41.112 L31.949,41.112 C33.719,41.112 35.149,42.542 35.149,44.311 L35.149,45.467 C35.149,47.237 33.719,48.667 31.949,48.667 L25.054,48.667 C23.284,48.667 21.854,47.237 21.854,45.467 L21.854,43.511 C21.854,42.184 22.927,41.112 24.254,41.112 Z" class="cls-7"/>
    <path d="M44.897,40.374 C42.792,40.374 41.085,42.131 41.085,44.297 L41.085,52.713 L48.708,52.713 L48.708,44.297 C48.708,42.131 47.002,40.374 44.897,40.374 Z" class="cls-6"/>
    <path d="M53.138,52.713 L16.980,52.713 C16.349,52.713 15.837,53.224 15.837,53.855 L15.837,55.421 L54.281,55.421 L54.281,53.855 C54.281,53.224 53.769,52.713 53.138,52.713 Z" class="cls-8"/>
    <path d="M23.156,34.116 C22.378,36.561 24.202,39.062 26.773,39.062 L27.273,39.062 C29.211,39.062 30.838,37.602 31.047,35.675 L31.216,34.116 L23.156,34.116 L23.156,34.116 Z" class="cls-6"/>
    <path d="M42.470,46.456 C42.089,46.456 41.780,46.765 41.780,47.146 C41.780,47.527 42.089,47.836 42.470,47.836 C42.851,47.836 43.160,47.527 43.160,47.146 C43.160,46.764 42.851,46.456 42.470,46.456 Z" class="cls-9"/>
    <circle cx="35.235" cy="20.14" r="8.575" class="cls-10"/>
    <circle cx="35.25" cy="20.14" r="6.44" class="cls-11"/>
    <path d="M38.187,21.533 C38.187,21.968 38.037,22.353 37.740,22.687 C37.466,22.993 37.029,23.176 36.433,23.240 L36.433,23.987 L35.336,23.987 L35.336,23.267 L34.601,23.267 L34.601,23.987 L33.504,23.987 L33.504,23.267 L33.198,23.267 L32.304,23.267 L32.304,22.087 L33.198,22.087 L33.198,18.198 L32.304,18.198 L32.304,17.019 L33.198,17.019 L33.504,17.019 L33.504,16.300 L34.601,16.300 L34.601,17.019 L35.336,17.019 L35.336,16.300 L36.433,16.300 L36.433,17.095 C36.535,17.116 36.634,17.140 36.725,17.170 C37.032,17.272 37.263,17.409 37.418,17.582 C37.698,17.904 37.838,18.267 37.838,18.672 C37.838,19.161 37.681,19.525 37.364,19.763 C37.257,19.846 37.182,19.899 37.140,19.919 C37.099,19.941 37.024,19.975 36.917,20.022 C37.305,20.106 37.613,20.280 37.843,20.545 C38.072,20.811 38.187,21.140 38.187,21.533 ZM36.139,18.333 C35.967,18.243 35.675,18.199 35.264,18.199 L34.593,18.199 L34.593,19.549 L35.255,19.549 C35.641,19.549 35.929,19.506 36.117,19.423 C36.304,19.340 36.398,19.159 36.398,18.882 C36.398,18.605 36.312,18.422 36.139,18.333 ZM36.430,20.787 C36.218,20.695 35.880,20.649 35.415,20.649 L34.593,20.649 L34.593,22.087 L35.550,22.087 C35.948,22.087 36.248,22.039 36.448,21.940 C36.648,21.842 36.748,21.648 36.747,21.359 C36.747,21.070 36.642,20.880 36.430,20.787 Z" class="cls-9"/>
  </g>
</svg>
