<svg xmlns="http://www.w3.org/2000/svg" xmlns:xlink="http://www.w3.org/1999/xlink" preserveAspectRatio="xMidYMid" width="72" height="72" viewBox="0 0 72 72">
  <defs>
    <style>
      .cls-1 {
        fill: #d8d8d8;
        opacity: 0.15;
      }

      .cls-2, .cls-3 {
        fill: #8ac9f9;
      }

      .cls-10, .cls-3, .cls-5, .cls-6, .cls-7, .cls-8, .cls-9 {
        fill-rule: evenodd;
      }

      .cls-4, .cls-7 {
        fill: #5000aa;
      }

      .cls-5 {
        fill: #002864;
      }

      .cls-6 {
        fill: #ffbe1b;
      }

      .cls-8 {
        fill: #0064aa;
      }

      .cls-9 {
        fill: #ffe37b;
      }

      .cls-10 {
        fill: #b6c0c6;
        fill-opacity: 0.3;
      }
    </style>
  </defs>
  <g>
    <g>
      <rect width="72" height="72" rx="25.6" ry="25.6" class="cls-1"/>
      <g>
        <circle cx="36" cy="12.895" r="3.25" class="cls-2"/>
        <path d="M36.000,61.619 C37.788,61.619 39.239,60.170 39.239,58.381 C39.239,56.592 37.788,55.142 36.000,55.142 C34.211,55.142 32.761,56.592 32.761,58.381 C32.761,60.170 34.211,61.619 36.000,61.619 Z" class="cls-3"/>
        <circle cx="13.265" cy="35.645" r="3.235" class="cls-4"/>
        <path d="M36.000,16.131 C35.712,16.131 35.435,16.090 35.169,16.020 L35.169,25.201 L36.830,25.201 L36.830,16.020 C36.565,16.090 36.287,16.131 36.000,16.131 Z" class="cls-5"/>
        <path d="M21.756,22.123 C21.504,22.636 21.126,23.066 20.667,23.377 L24.699,26.890 C24.888,26.349 25.257,25.892 25.735,25.591 L21.756,22.123 Z" class="cls-5"/>
        <path d="M50.244,22.123 L46.265,25.591 C46.743,25.892 47.111,26.349 47.301,26.890 L51.333,23.377 C50.873,23.067 50.496,22.636 50.244,22.123 Z" class="cls-5"/>
        <path d="M16.383,34.806 C16.453,35.072 16.494,35.349 16.494,35.637 C16.494,35.924 16.453,36.202 16.383,36.467 L24.555,36.467 L24.555,34.806 L16.383,34.806 L16.383,34.806 Z" class="cls-5"/>
        <path d="M47.301,44.383 C47.111,44.925 46.743,45.381 46.265,45.683 L50.244,49.150 C50.496,48.637 50.873,48.207 51.333,47.896 L47.301,44.383 Z" class="cls-5"/>
        <path d="M55.617,34.806 L47.445,34.806 L47.445,36.467 L55.617,36.467 C55.546,36.202 55.505,35.924 55.505,35.637 C55.505,35.349 55.547,35.072 55.617,34.806 Z" class="cls-5"/>
        <path d="M24.699,44.383 L20.667,47.896 C21.126,48.207 21.504,48.637 21.756,49.150 L25.735,45.683 C25.257,45.381 24.888,44.925 24.699,44.383 Z" class="cls-5"/>
        <path d="M35.169,46.073 L35.169,55.254 C35.435,55.183 35.712,55.142 36.000,55.142 C36.287,55.142 36.565,55.183 36.830,55.254 L36.830,46.073 L35.169,46.073 Z" class="cls-5"/>
        <circle cx="58.735" cy="35.645" r="3.235" class="cls-2"/>
        <path d="M53.769,47.400 C52.013,47.057 50.312,48.201 49.969,49.957 C49.626,51.712 50.770,53.414 52.526,53.757 C54.281,54.100 55.983,52.956 56.326,51.200 C56.669,49.445 55.525,47.744 53.769,47.400 Z" class="cls-6"/>
        <path d="M19.474,17.517 C17.719,17.173 16.017,18.318 15.674,20.074 C15.331,21.829 16.475,23.530 18.231,23.874 C19.986,24.217 21.688,23.072 22.031,21.317 C22.374,19.561 21.229,17.860 19.474,17.517 Z" class="cls-6"/>
        <path d="M22.031,49.957 C21.688,48.201 19.986,47.057 18.231,47.400 C16.475,47.744 15.331,49.445 15.674,51.200 C16.017,52.956 17.719,54.100 19.474,53.757 C21.229,53.414 22.374,51.712 22.031,49.957 Z" class="cls-6"/>
        <path d="M56.326,20.073 C55.983,18.318 54.281,17.173 52.526,17.517 C50.770,17.860 49.626,19.561 49.969,21.317 C50.312,23.072 52.013,24.217 53.769,23.873 C55.525,23.530 56.669,21.829 56.326,20.073 Z" class="cls-7"/>
      </g>
      <path d="M28.973,24.138 L42.879,24.138 C46.002,24.138 48.526,26.662 48.526,29.785 L48.526,41.891 C48.526,45.013 46.002,47.538 42.879,47.538 L28.973,47.538 C25.850,47.538 23.326,45.013 23.326,41.891 L23.326,29.785 C23.326,26.662 25.850,24.138 28.973,24.138 Z" class="cls-8"/>
      <g>
        <path d="M41.264,33.036 C41.180,32.967 41.086,32.945 40.993,32.950 C40.838,34.074 40.729,34.511 40.729,34.511 C40.729,34.511 40.570,33.949 40.511,33.171 C40.463,33.209 40.434,33.237 40.434,33.237 L40.434,35.259 C40.434,35.259 40.730,35.505 40.968,35.389 C41.205,35.273 41.422,34.341 41.502,34.040 C41.581,33.739 41.605,33.314 41.264,33.036 Z" class="cls-6"/>
        <path d="M30.454,33.036 C30.113,33.314 30.138,33.739 30.217,34.040 C30.296,34.341 30.513,35.273 30.751,35.389 C30.939,35.481 31.162,35.346 31.247,35.286 C31.247,35.252 31.247,35.218 31.248,35.183 C31.253,35.149 31.267,35.051 31.284,34.906 L31.284,33.237 C31.284,33.237 30.795,32.758 30.454,33.036 Z" class="cls-6"/>
        <path d="M38.247,39.967 C38.164,39.707 38.121,39.439 38.104,39.182 C37.726,39.407 37.356,39.580 36.987,39.750 C36.673,39.896 35.524,39.931 35.134,39.749 C34.833,39.610 34.441,39.405 34.046,39.173 C34.030,39.433 33.987,39.704 33.903,39.966 C33.805,40.270 33.198,40.520 32.530,40.767 C32.659,40.945 33.898,42.572 36.099,42.572 C38.392,42.572 39.576,40.891 39.661,40.767 C38.945,40.542 38.361,40.322 38.247,39.967 Z" class="cls-6"/>
        <path d="M40.719,34.473 C40.672,34.295 40.471,33.468 40.490,32.485 C40.501,31.950 40.557,31.333 40.495,30.942 C40.434,30.551 40.228,29.912 39.755,29.872 C39.755,29.872 37.647,32.234 33.127,31.937 C32.688,31.908 32.299,31.839 31.951,31.740 C31.520,32.075 31.365,32.498 31.377,32.845 C31.418,34.011 31.267,35.055 31.248,35.183 C31.246,35.373 31.245,35.555 31.245,35.725 C31.245,36.925 31.985,37.702 33.083,38.539 C33.695,39.006 34.575,39.489 35.134,39.749 C35.524,39.931 36.673,39.896 36.987,39.750 C37.578,39.477 38.174,39.196 38.795,38.710 C39.814,37.914 40.760,37.011 40.760,35.999 C40.760,35.743 40.744,35.179 40.719,34.473 Z" class="cls-9"/>
        <path d="M40.712,27.807 C40.190,27.171 39.539,26.848 38.818,26.936 C38.270,26.222 36.882,25.978 35.555,26.156 C34.092,26.351 33.244,26.595 32.192,27.308 C31.590,27.716 30.533,28.685 30.379,29.872 C30.165,31.514 30.903,33.500 30.925,33.658 C31.010,34.270 31.246,35.197 31.246,35.197 C31.246,35.197 31.420,34.090 31.378,32.845 C31.365,32.498 31.521,32.075 31.951,31.740 C32.299,31.839 32.689,31.909 33.127,31.937 C37.647,32.234 39.755,29.872 39.755,29.872 C40.228,29.913 40.434,30.551 40.496,30.942 C40.558,31.333 40.501,31.950 40.491,32.485 C40.469,33.597 40.729,34.511 40.729,34.511 C40.729,34.511 40.852,34.017 41.023,32.729 C41.121,31.991 42.095,29.490 40.712,27.807 Z" class="cls-5"/>
        <path d="M42.002,41.463 L39.666,40.759 C39.666,40.759 38.480,42.572 36.099,42.572 C33.770,42.572 32.518,40.750 32.518,40.750 L30.084,41.470 C28.788,41.854 27.900,43.044 27.900,44.395 L27.900,46.554 L44.171,46.554 L44.171,44.383 C44.171,43.038 43.290,41.851 42.002,41.463 Z" class="cls-3"/>
      </g>
    </g>
    <path d="M66.231,24.707 C64.094,24.171 62.425,22.502 61.890,20.365 L61.798,20.000 L61.706,20.365 C61.171,22.502 59.502,24.171 57.365,24.707 L57.000,24.798 L57.365,24.889 C59.502,25.425 61.171,27.094 61.706,29.231 L61.798,29.596 L61.890,29.231 C62.425,27.094 64.094,25.425 66.231,24.889 L66.597,24.798 L66.231,24.707 Z" class="cls-10"/>
    <path d="M30.573,10.880 C28.357,10.325 26.626,8.594 26.070,6.378 L25.976,6.000 L25.881,6.378 C25.325,8.594 23.594,10.326 21.378,10.880 L21.000,10.977 L21.378,11.072 C23.595,11.626 25.325,13.357 25.881,15.573 L25.976,15.952 L26.070,15.573 C26.627,13.357 28.357,11.626 30.573,11.072 L30.952,10.977 L30.573,10.880 Z" class="cls-10"/>
    <path d="M26.183,61.153 C24.751,60.794 23.634,59.676 23.274,58.244 L23.213,58.000 L23.152,58.244 C22.794,59.676 21.676,60.794 20.243,61.153 L20.000,61.214 L20.243,61.276 C21.676,61.634 22.794,62.752 23.152,64.184 L23.213,64.428 L23.274,64.184 C23.634,62.752 24.751,61.634 26.183,61.276 L26.428,61.214 L26.183,61.153 Z" class="cls-10"/>
  </g>
</svg>
