<svg xmlns="http://www.w3.org/2000/svg" xmlns:xlink="http://www.w3.org/1999/xlink" preserveAspectRatio="xMidYMid" width="72" height="72" viewBox="0 0 72 72">
  <defs>
    <style>
      .cls-1 {
        fill: #d8d8d8;
        opacity: 0.15;
      }

      .cls-2 {
        fill: #b6c0c6;
        fill-opacity: 0.3;
      }

      .cls-10, .cls-2, .cls-3, .cls-4, .cls-5, .cls-6, .cls-7, .cls-8 {
        fill-rule: evenodd;
      }

      .cls-3 {
        fill: #ffbe1b;
      }

      .cls-4 {
        fill: #ffe37b;
      }

      .cls-5 {
        fill: #330d84;
      }

      .cls-6 {
        fill: #0064aa;
      }

      .cls-7, .cls-9 {
        fill: #8ac9f9;
      }

      .cls-8 {
        fill: #5000aa;
      }

      .cls-10 {
        fill: #fff;
      }
    </style>
  </defs>
  <g>
    <rect width="72" height="72" rx="25.6" ry="25.6" class="cls-1"/>
    <path d="M61.205,50.625 C59.311,50.151 57.833,48.672 57.359,46.780 L57.278,46.456 L57.197,46.780 C56.722,48.672 55.245,50.151 53.352,50.625 L53.028,50.706 L53.352,50.787 C55.245,51.261 56.723,52.740 57.197,54.632 L57.278,54.956 L57.359,54.632 C57.833,52.740 59.311,51.261 61.205,50.787 L61.528,50.706 L61.205,50.625 Z" class="cls-2"/>
    <path d="M15.308,20.359 C14.290,20.105 13.496,19.310 13.241,18.293 L13.198,18.120 L13.154,18.293 C12.899,19.311 12.105,20.105 11.087,20.359 L10.914,20.403 L11.087,20.448 C12.105,20.702 12.899,21.496 13.154,22.514 L13.198,22.687 L13.241,22.514 C13.496,21.496 14.290,20.702 15.308,20.448 L15.481,20.403 L15.308,20.359 Z" class="cls-2"/>
    <path d="M18.860,28.068 C17.238,27.662 15.971,26.395 15.565,24.773 L15.495,24.496 L15.426,24.773 C15.019,26.395 13.752,27.662 12.130,28.068 L11.854,28.137 L12.130,28.207 C13.752,28.613 15.019,29.880 15.426,31.502 L15.495,31.779 L15.565,31.502 C15.971,29.880 17.238,28.613 18.860,28.207 L19.137,28.137 L18.860,28.068 Z" class="cls-2"/>
    <path d="M55.098,23.032 C53.428,22.613 52.124,21.308 51.705,19.638 L51.634,19.354 L51.562,19.638 C51.143,21.308 49.839,22.613 48.168,23.032 L47.883,23.104 L48.168,23.176 C49.839,23.594 51.143,24.899 51.562,26.569 L51.634,26.854 L51.705,26.569 C52.124,24.899 53.428,23.594 55.098,23.176 L55.384,23.104 L55.098,23.032 Z" class="cls-2"/>
    <path d="M61.074,26.905 C60.195,26.685 59.509,25.999 59.288,25.121 L59.251,24.971 L59.213,25.121 C58.993,25.999 58.307,26.685 57.428,26.905 L57.278,26.944 L57.428,26.982 C58.307,27.201 58.993,27.888 59.213,28.766 L59.251,28.916 L59.288,28.766 C59.509,27.888 60.195,27.201 61.074,26.982 L61.224,26.944 L61.074,26.905 Z" class="cls-2"/>
    <path d="M45.272,26.424 C45.087,26.274 44.883,26.226 44.680,26.237 C44.339,28.695 44.101,29.650 44.101,29.650 C44.101,29.650 44.093,29.622 44.080,29.570 C44.107,30.348 44.130,31.048 44.146,31.622 C44.303,31.652 44.469,31.648 44.624,31.572 C45.143,31.319 45.618,29.279 45.792,28.620 C45.965,27.961 46.019,27.031 45.272,26.424 Z" class="cls-3"/>
    <path d="M22.270,31.572 C21.751,31.319 21.275,29.279 21.102,28.620 C20.929,27.961 20.875,27.031 21.622,26.424 C21.774,26.300 21.939,26.246 22.107,26.237 C22.384,26.997 22.622,27.567 22.652,27.785 C22.835,29.124 23.353,31.152 23.353,31.152 C23.353,31.152 23.355,31.135 23.357,31.122 C23.357,31.198 23.357,31.273 23.356,31.347 C23.167,31.480 22.679,31.772 22.270,31.572 ZM23.357,31.122 C23.358,31.118 23.359,31.112 23.360,31.108 C23.358,31.117 23.358,31.116 23.357,31.122 C23.357,31.122 23.357,31.122 23.357,31.122 Z" class="cls-3"/>
    <path d="M23.405,30.781 C23.415,30.703 23.426,30.615 23.438,30.516 L23.438,30.515 C23.426,30.614 23.415,30.703 23.405,30.781 Z" class="cls-3"/>
    <path d="M38.672,41.588 C38.490,41.019 38.397,40.433 38.359,39.871 C37.532,40.362 36.721,40.742 35.915,41.115 C35.227,41.433 32.715,41.510 31.860,41.113 C31.203,40.806 30.344,40.358 29.481,39.852 C29.444,40.419 29.351,41.013 29.166,41.588 C28.953,42.252 27.625,42.798 26.163,43.338 C26.445,43.728 29.156,47.288 33.972,47.288 C38.988,47.288 41.579,43.611 41.765,43.338 C40.198,42.846 38.922,42.366 38.672,41.588 Z" class="cls-3"/>
    <path d="M44.080,29.569 C43.977,29.177 43.538,27.369 43.580,25.219 C43.603,24.048 43.726,22.697 43.591,21.842 C43.456,20.987 43.005,19.590 41.970,19.500 C41.970,19.500 37.359,24.669 27.469,24.019 C26.509,23.956 25.658,23.805 24.896,23.587 C23.954,24.321 23.615,25.247 23.641,26.005 C23.729,28.556 23.400,30.841 23.357,31.122 C23.354,31.538 23.353,31.936 23.353,32.306 C23.353,34.933 24.972,36.632 27.372,38.464 C28.711,39.486 30.637,40.543 31.860,41.112 C32.715,41.509 35.227,41.432 35.915,41.114 C37.207,40.517 38.511,39.901 39.871,38.838 C42.099,37.095 44.171,35.122 44.171,32.905 C44.171,32.346 44.134,31.113 44.080,29.569 Z" class="cls-3"/>
    <path d="M44.080,29.569 C43.977,29.177 43.538,27.369 43.580,25.219 C43.603,24.048 43.726,22.697 43.591,21.842 C43.456,20.987 43.005,19.590 41.970,19.500 C41.970,19.500 37.359,24.669 27.469,24.019 C26.509,23.956 25.658,23.805 24.896,23.587 C23.954,24.321 23.615,25.247 23.641,26.005 C23.729,28.556 23.400,30.841 23.357,31.122 C23.354,31.538 23.353,31.936 23.353,32.306 C23.353,34.933 24.972,36.632 27.372,38.464 C28.711,39.486 30.637,40.543 31.860,41.112 C32.715,41.509 35.227,41.432 35.915,41.114 C37.207,40.517 38.511,39.901 39.871,38.838 C42.099,37.095 44.171,35.122 44.171,32.905 C44.171,32.346 44.134,31.113 44.080,29.569 Z" class="cls-4"/>
    <path d="M44.064,14.983 C42.923,13.593 41.498,12.885 39.921,13.078 C38.721,11.517 36.819,10.331 33.801,10.505 C29.056,10.778 29.002,13.268 25.373,14.357 C21.744,15.447 20.283,12.581 18.826,13.566 C17.369,14.551 18.228,18.295 21.177,21.402 C20.932,23.957 22.570,27.187 22.652,27.785 C22.836,29.124 23.353,31.152 23.353,31.152 C23.353,31.152 23.735,28.729 23.642,26.005 C23.615,25.247 23.954,24.322 24.897,23.587 C25.658,23.805 26.510,23.956 27.469,24.020 C37.359,24.669 41.971,19.500 41.971,19.500 C43.005,19.591 43.456,20.987 43.591,21.842 C43.726,22.697 43.603,24.048 43.580,25.219 C43.533,27.652 44.102,29.650 44.102,29.650 C44.102,29.650 44.371,28.571 44.746,25.751 C44.960,24.139 47.090,18.667 44.064,14.983 Z" class="cls-5"/>
    <path d="M44.064,14.983 C42.923,13.593 41.498,12.885 39.921,13.078 C38.721,11.517 36.819,10.331 33.801,10.505 C29.056,10.778 29.002,13.268 25.373,14.357 C21.744,15.447 20.283,12.581 18.826,13.566 C17.369,14.551 18.228,18.295 21.177,21.402 C20.932,23.957 22.570,27.187 22.652,27.785 C22.836,29.124 23.353,31.152 23.353,31.152 C23.353,31.152 23.735,28.729 23.642,26.005 C23.615,25.247 23.954,24.322 24.897,23.587 C25.658,23.805 26.510,23.956 27.469,24.020 C37.359,24.669 41.971,19.500 41.971,19.500 C43.005,19.591 43.456,20.987 43.591,21.842 C43.726,22.697 43.603,24.048 43.580,25.219 C43.533,27.652 44.102,29.650 44.102,29.650 C44.102,29.650 44.371,28.571 44.746,25.751 C44.960,24.139 47.090,18.667 44.064,14.983 Z" class="cls-5"/>
    <path d="M46.887,44.862 L41.777,43.321 C41.777,43.321 39.182,47.288 33.972,47.288 C28.877,47.288 26.137,43.302 26.137,43.302 L24.429,43.807 C26.378,45.534 27.607,48.055 27.607,50.864 C27.607,54.032 26.043,56.833 23.647,58.543 L51.634,58.543 L51.634,51.249 C51.634,48.306 49.706,45.710 46.887,44.862 Z" class="cls-6"/>
    <path d="M60.190,30.579 L48.672,30.579 C47.226,30.579 46.053,31.753 46.053,33.199 L46.053,39.443 C46.053,40.889 47.226,42.062 48.672,42.062 L50.566,42.062 L50.566,45.596 L54.161,42.062 L60.190,42.062 C61.636,42.062 62.809,40.889 62.809,39.443 L62.809,33.199 C62.809,31.753 61.636,30.579 60.190,30.579 Z" class="cls-5"/>
    <path d="M58.438,32.971 C57.976,32.583 57.287,32.642 56.898,33.104 L53.447,37.208 L52.037,35.844 C51.604,35.425 50.912,35.436 50.491,35.870 C50.072,36.303 50.083,36.995 50.517,37.415 L52.770,39.593 C52.974,39.791 53.247,39.901 53.530,39.901 C53.548,39.901 53.567,39.901 53.586,39.899 C53.889,39.884 54.171,39.743 54.366,39.511 L58.571,34.511 C58.960,34.049 58.900,33.360 58.438,32.971 Z" class="cls-7"/>
    <path d="M18.177,33.520 C15.147,33.520 12.522,35.571 11.793,38.508 C11.646,39.100 12.007,39.698 12.598,39.845 C13.190,39.992 13.789,39.632 13.935,39.040 C14.419,37.089 16.164,35.727 18.177,35.727 C20.587,35.727 22.548,37.687 22.548,40.097 L22.548,42.509 C23.361,42.935 24.104,43.476 24.755,44.110 L24.755,40.097 C24.755,36.470 21.804,33.520 18.177,33.520 Z" class="cls-8"/>
    <circle cx="18.17" cy="50.86" r="9.42" class="cls-9"/>
    <path d="M18.177,43.992 C14.383,43.992 11.307,47.068 11.307,50.864 C11.307,54.659 14.383,57.735 18.177,57.735 C21.972,57.735 25.049,54.659 25.049,50.864 C25.049,47.068 21.972,43.992 18.177,43.992 Z" class="cls-3"/>
    <path d="M18.177,45.706 C15.329,45.706 13.019,48.015 13.019,50.864 C13.019,53.712 15.329,56.022 18.177,56.022 C21.026,56.022 23.335,53.712 23.335,50.864 C23.335,48.015 21.026,45.706 18.177,45.706 Z" class="cls-4"/>
    <path d="M20.532,51.977 C20.532,52.326 20.413,52.634 20.174,52.901 C19.955,53.146 19.605,53.294 19.128,53.344 L19.128,53.942 L18.251,53.942 L18.251,53.366 L17.660,53.366 L17.660,53.942 L16.782,53.942 L16.782,53.366 L15.823,53.366 L15.823,52.421 L16.537,52.421 L16.537,49.307 L15.823,49.307 L15.823,48.362 L16.782,48.362 L16.782,47.786 L17.660,47.786 L17.660,48.362 L18.251,48.362 L18.251,47.786 L19.128,47.786 L19.128,48.423 C19.210,48.441 19.289,48.459 19.362,48.483 C19.608,48.565 19.792,48.674 19.917,48.813 C20.142,49.070 20.254,49.361 20.254,49.686 C20.254,50.077 20.127,50.368 19.874,50.559 C19.788,50.626 19.728,50.668 19.695,50.684 C19.661,50.701 19.602,50.729 19.516,50.767 C19.826,50.834 20.073,50.974 20.257,51.186 C20.440,51.398 20.532,51.662 20.532,51.977 ZM18.893,49.414 C18.755,49.342 18.521,49.307 18.192,49.307 L17.655,49.307 L17.655,50.387 L18.185,50.387 C18.494,50.387 18.724,50.354 18.875,50.286 C19.025,50.221 19.101,50.076 19.101,49.855 C19.101,49.633 19.032,49.485 18.893,49.414 ZM19.126,51.379 C18.956,51.306 18.686,51.268 18.313,51.268 L17.655,51.268 L17.655,52.420 L18.421,52.420 C18.740,52.420 18.980,52.381 19.140,52.302 C19.300,52.224 19.380,52.068 19.380,51.837 C19.380,51.606 19.295,51.453 19.126,51.379 Z" class="cls-10"/>
  </g>
</svg>
