<svg xmlns="http://www.w3.org/2000/svg" xmlns:xlink="http://www.w3.org/1999/xlink" preserveAspectRatio="xMidYMid" width="72" height="72" viewBox="0 0 72 72">
  <defs>
    <style>
      .cls-1 {
        fill: #d8d8d8;
        opacity: 0.15;
      }

      .cls-2 {
        fill: #ffbe1b;
      }

      .cls-2, .cls-3, .cls-4, .cls-5 {
        fill-rule: evenodd;
      }

      .cls-3 {
        fill: #002864;
      }

      .cls-4 {
        fill: #0064aa;
      }

      .cls-5 {
        fill: #b6c0c6;
        fill-opacity: 0.3;
      }
    </style>
  </defs>
  <g>
    <rect width="72" height="72" rx="25.6" ry="25.6" class="cls-1"/>
    <path d="M19.972,34.426 L28.277,34.426 L28.277,50.356 L19.972,50.356 L19.972,34.426 Z" class="cls-2"/>
    <path d="M60.664,50.356 L15.488,50.356 L15.488,17.491 C15.488,17.032 15.116,16.661 14.657,16.661 C14.199,16.661 13.827,17.032 13.827,17.491 L13.827,51.186 C13.827,51.645 14.199,52.017 14.657,52.017 L60.664,52.017 C61.123,52.017 61.495,51.645 61.495,51.186 C61.495,50.728 61.123,50.356 60.664,50.356 Z" class="cls-3"/>
    <path d="M60.664,50.356 L15.488,50.356 L15.488,17.491 C15.488,17.032 15.116,16.661 14.657,16.661 C14.199,16.661 13.827,17.032 13.827,17.491 L13.827,51.186 C13.827,51.645 14.199,52.017 14.657,52.017 L60.664,52.017 C61.123,52.017 61.495,51.645 61.495,51.186 C61.495,50.728 61.123,50.356 60.664,50.356 Z" class="cls-3"/>
    <path d="M44.554,26.121 L52.858,26.121 L52.858,50.356 L44.554,50.356 L44.554,26.121 Z" class="cls-4"/>
    <path d="M32.263,21.139 L40.567,21.139 L40.567,50.356 L32.263,50.356 L32.263,21.139 Z" class="cls-3"/>
    <path d="M63.180,22.573 C61.203,22.078 59.660,20.534 59.165,18.558 L59.080,18.221 L58.996,18.558 C58.501,20.534 56.957,22.078 54.980,22.573 L54.644,22.657 L54.980,22.742 C56.957,23.238 58.501,24.780 58.996,26.758 L59.080,27.094 L59.165,26.758 C59.660,24.780 61.203,23.238 63.180,22.742 L63.518,22.657 L63.180,22.573 Z" class="cls-5"/>
    <path d="M66.712,32.356 C64.994,31.926 63.654,30.585 63.223,28.868 L63.150,28.575 L63.076,28.868 C62.646,30.585 61.305,31.926 59.587,32.356 L59.295,32.430 L59.587,32.503 C61.305,32.934 62.646,34.275 63.076,35.992 L63.150,36.286 L63.223,35.992 C63.654,34.275 64.994,32.934 66.712,32.503 L67.005,32.430 L66.712,32.356 Z" class="cls-5"/>
    <path d="M36.362,60.613 C34.385,60.118 32.843,58.575 32.347,56.599 L32.263,56.262 L32.178,56.599 C31.683,58.575 30.140,60.118 28.162,60.613 L27.826,60.698 L28.162,60.783 C30.139,61.278 31.683,62.821 32.178,64.798 L32.263,65.135 L32.347,64.798 C32.843,62.821 34.385,61.278 36.362,60.783 L36.700,60.698 L36.362,60.613 Z" class="cls-5"/>
    <path d="M23.475,57.008 C22.148,56.676 21.113,55.640 20.781,54.314 L20.724,54.088 L20.667,54.314 C20.335,55.640 19.300,56.676 17.973,57.008 L17.747,57.064 L17.973,57.121 C19.300,57.454 20.335,58.489 20.667,59.815 L20.724,60.042 L20.781,59.815 C21.113,58.489 22.148,57.454 23.475,57.121 L23.701,57.064 L23.475,57.008 Z" class="cls-5"/>
    <path d="M30.779,13.042 C28.788,12.543 27.235,10.989 26.736,9.000 L26.651,8.661 L26.565,9.000 C26.067,10.989 24.513,12.543 22.523,13.042 L22.184,13.127 L22.523,13.212 C24.513,13.711 26.067,15.265 26.565,17.255 L26.651,17.595 L26.736,17.255 C27.235,15.265 28.788,13.711 30.779,13.212 L31.118,13.127 L30.779,13.042 Z" class="cls-5"/>
  </g>
</svg>
