<svg xmlns="http://www.w3.org/2000/svg" xmlns:xlink="http://www.w3.org/1999/xlink" preserveAspectRatio="xMidYMid" width="72" height="72" viewBox="0 0 72 72">
  <defs>
    <style>
      .cls-1 {
        fill: #d8d8d8;
        opacity: 0.15;
      }

      .cls-2 {
        fill: #b6c0c6;
        fill-opacity: 0.3;
      }

      .cls-2, .cls-3, .cls-4, .cls-5, .cls-6 {
        fill-rule: evenodd;
      }

      .cls-3 {
        fill: #ffbe1b;
      }

      .cls-4 {
        fill: #ffe37b;
      }

      .cls-5 {
        fill: #0064aa;
      }

      .cls-6 {
        fill: #fff;
      }
    </style>
  </defs>
  <g>
    <rect width="72" height="72" rx="25.6" ry="25.6" class="cls-1"/>
    <path d="M23.761,55.834 C21.468,55.260 19.679,53.470 19.105,51.178 L19.006,50.787 L18.908,51.178 C18.334,53.470 16.544,55.260 14.250,55.834 L13.860,55.933 L14.250,56.031 C16.544,56.605 18.334,58.396 18.908,60.688 L19.006,61.079 L19.105,60.688 C19.679,58.396 21.468,56.605 23.761,56.031 L24.153,55.933 L23.761,55.834 Z" class="cls-2"/>
    <path d="M30.862,17.597 C28.289,16.951 26.280,14.942 25.634,12.368 L25.524,11.929 L25.414,12.368 C24.770,14.942 22.760,16.952 20.184,17.597 L19.747,17.707 L20.184,17.818 C22.760,18.462 24.770,20.471 25.414,23.045 L25.524,23.484 L25.634,23.045 C26.280,20.471 28.289,18.462 30.862,17.818 L31.302,17.707 L30.862,17.597 Z" class="cls-2"/>
    <path d="M20.008,26.149 C18.289,25.719 16.948,24.376 16.516,22.657 L16.443,22.364 L16.370,22.657 C15.939,24.376 14.597,25.719 12.878,26.149 L12.585,26.223 L12.878,26.297 C14.597,26.727 15.939,28.069 16.370,29.787 L16.443,30.081 L16.516,29.787 C16.948,28.069 18.289,26.727 20.008,26.297 L20.301,26.223 L20.008,26.149 Z" class="cls-2"/>
    <path d="M49.513,32.794 L47.944,32.794 L42.617,38.031 L42.617,32.794 L39.811,32.794 C37.669,32.794 35.931,31.057 35.931,28.914 L35.931,25.507 C27.278,25.631 20.301,32.683 20.301,41.366 C20.301,50.127 27.403,57.229 36.163,57.229 C44.924,57.229 52.026,50.127 52.026,41.366 C52.026,38.209 51.103,35.266 49.513,32.794 Z" class="cls-3"/>
    <path d="M46.020,34.685 L42.617,38.031 L42.617,32.794 L39.811,32.794 C37.856,32.794 36.238,31.347 35.970,29.465 C29.484,29.568 24.256,34.855 24.256,41.366 C24.256,47.942 29.587,53.273 36.163,53.273 C42.739,53.273 48.070,47.942 48.070,41.366 C48.070,38.890 47.314,36.591 46.020,34.685 Z" class="cls-4"/>
    <path d="M38.029,51.087 C37.694,51.087 37.402,50.910 37.239,50.644 L32.733,50.644 L30.065,48.918 L23.718,48.918 L23.718,47.948 L30.351,47.948 L33.019,49.673 L37.239,49.673 C37.403,49.409 37.695,49.232 38.029,49.232 C38.541,49.232 38.956,49.647 38.956,50.159 C38.956,50.672 38.541,51.087 38.029,51.087 ZM37.415,33.197 C37.081,33.197 36.789,33.020 36.626,32.755 L34.763,32.755 L31.534,34.162 L23.718,34.162 L23.718,33.192 L31.332,33.192 L34.561,31.785 L36.625,31.785 C36.788,31.519 37.080,31.341 37.415,31.341 C37.927,31.341 38.342,31.756 38.342,32.270 C38.342,32.781 37.927,33.197 37.415,33.197 ZM30.735,37.928 L32.276,37.928 C32.440,37.663 32.732,37.486 33.065,37.486 C33.578,37.486 33.993,37.901 33.993,38.413 C33.993,38.925 33.578,39.341 33.065,39.341 C32.731,39.341 32.439,39.163 32.276,38.898 L30.133,38.898 L29.208,37.032 L23.718,37.032 L23.718,36.062 L29.809,36.062 L30.735,37.928 ZM30.457,40.140 C30.969,40.140 31.384,40.556 31.384,41.067 C31.384,41.580 30.969,41.994 30.457,41.994 C30.122,41.994 29.830,41.817 29.667,41.552 L23.718,41.552 L23.718,40.582 L29.667,40.582 C29.831,40.317 30.122,40.140 30.457,40.140 ZM31.026,42.914 L35.776,42.914 C35.939,42.649 36.231,42.472 36.565,42.472 C37.078,42.472 37.493,42.887 37.493,43.399 C37.493,43.912 37.078,44.327 36.565,44.327 C36.231,44.327 35.939,44.150 35.775,43.884 L31.450,43.884 L29.091,46.436 L23.718,46.436 L23.718,45.466 L28.666,45.466 L31.026,42.914 Z" class="cls-3"/>
    <path d="M56.876,15.782 L39.811,15.782 C37.669,15.782 35.931,17.520 35.931,19.663 L35.931,28.914 C35.931,31.057 37.669,32.794 39.811,32.794 L42.617,32.794 L42.617,38.031 L47.944,32.794 L56.876,32.794 C59.018,32.794 60.756,31.057 60.756,28.914 L60.756,19.663 C60.757,17.520 59.019,15.782 56.876,15.782 Z" class="cls-5"/>
    <path d="M54.281,19.325 C53.597,18.751 52.575,18.837 52.000,19.523 L46.886,25.603 L44.797,23.582 C44.155,22.960 43.130,22.977 42.507,23.620 C41.886,24.263 41.902,25.288 42.545,25.910 L45.883,29.138 C46.186,29.430 46.589,29.593 47.008,29.593 C47.036,29.593 47.064,29.592 47.092,29.591 C47.540,29.567 47.959,29.360 48.248,29.015 L54.478,21.607 C55.053,20.922 54.966,19.901 54.281,19.325 Z" class="cls-6"/>
    <path d="M62.541,44.947 C60.762,44.501 59.374,43.111 58.927,41.333 L58.851,41.029 L58.775,41.333 C58.329,43.111 56.940,44.501 55.161,44.947 L54.858,45.022 L55.161,45.099 C56.940,45.544 58.329,46.934 58.775,48.712 L58.851,49.016 L58.927,48.712 C59.374,46.934 60.762,45.544 62.541,45.099 L62.845,45.022 L62.541,44.947 Z" class="cls-2"/>
  </g>
</svg>
