<svg xmlns="http://www.w3.org/2000/svg" xmlns:xlink="http://www.w3.org/1999/xlink" preserveAspectRatio="xMidYMid" width="72" height="72" viewBox="0 0 72 72">
  <defs>
    <style>
      .cls-1 {
        fill: #d8d8d8;
        opacity: 0.15;
      }

      .cls-2 {
        fill: #b6c0c6;
        fill-opacity: 0.3;
      }

      .cls-2, .cls-3, .cls-5, .cls-7, .cls-8, .cls-9 {
        fill-rule: evenodd;
      }

      .cls-3, .cls-6 {
        fill: #ffbe1b;
      }

      .cls-4, .cls-7 {
        fill: #ffe37b;
      }

      .cls-5 {
        fill: #fff;
      }

      .cls-8 {
        fill: #002864;
      }

      .cls-9 {
        fill: #0064aa;
      }
    </style>
  </defs>
  <g>
    <rect width="72" height="72" rx="25.6" ry="25.6" class="cls-1"/>
    <path d="M44.008,62.923 C42.344,62.506 41.045,61.207 40.628,59.544 L40.557,59.260 L40.485,59.544 C40.069,61.207 38.770,62.506 37.106,62.923 L36.822,62.994 L37.106,63.066 C38.770,63.482 40.069,64.781 40.485,66.445 L40.557,66.729 L40.628,66.445 C41.045,64.781 42.344,63.482 44.008,63.066 L44.292,62.994 L44.008,62.923 Z" class="cls-2"/>
    <path d="M36.032,64.921 C34.969,64.655 34.140,63.825 33.874,62.763 L33.828,62.582 L33.783,62.763 C33.517,63.825 32.687,64.655 31.624,64.921 L31.443,64.967 L31.624,65.012 C32.687,65.278 33.517,66.108 33.783,67.170 L33.828,67.352 L33.874,67.170 C34.140,66.108 34.969,65.278 36.032,65.012 L36.213,64.967 L36.032,64.921 Z" class="cls-2"/>
    <path d="M32.833,10.238 C31.257,9.843 30.027,8.612 29.631,7.037 L29.564,6.768 L29.497,7.037 C29.102,8.612 27.871,9.843 26.295,10.238 L26.027,10.306 L26.295,10.374 C27.871,10.768 29.102,11.999 29.497,13.575 L29.564,13.844 L29.631,13.575 C30.027,11.999 31.257,10.768 32.833,10.374 L33.102,10.306 L32.833,10.238 Z" class="cls-2"/>
    <path d="M23.214,12.623 C22.162,12.359 21.341,11.538 21.076,10.485 L21.031,10.306 L20.987,10.485 C20.723,11.538 19.901,12.359 18.848,12.623 L18.669,12.668 L18.848,12.713 C19.901,12.977 20.723,13.799 20.987,14.851 L21.031,15.030 L21.076,14.851 C21.341,13.799 22.162,12.977 23.214,12.713 L23.394,12.668 L23.214,12.623 Z" class="cls-2"/>
    <path d="M64.415,35.593 C62.963,35.229 61.829,34.095 61.465,32.643 L61.402,32.394 L61.340,32.643 C60.976,34.094 59.842,35.229 58.389,35.593 L58.142,35.655 L58.389,35.717 C59.842,36.081 60.976,37.216 61.340,38.668 L61.402,38.916 L61.465,38.668 C61.829,37.216 62.963,36.081 64.415,35.717 L64.664,35.655 L64.415,35.593 Z" class="cls-2"/>
    <path d="M26.750,15.188 C19.310,15.188 13.277,21.220 13.277,28.662 C13.277,36.103 19.310,42.135 26.750,42.135 C28.782,42.135 30.706,41.683 32.434,40.878 C33.567,37.236 36.205,34.260 39.619,32.669 C40.013,31.403 40.225,30.057 40.225,28.662 C40.225,21.220 34.192,15.188 26.750,15.188 Z" class="cls-3"/>
    <circle cx="26.755" cy="28.67" r="10.125" class="cls-4"/>
    <path d="M31.368,30.845 C31.368,31.528 31.134,32.132 30.667,32.656 C30.237,33.137 29.550,33.424 28.614,33.526 L28.614,34.696 L26.893,34.696 L26.893,33.568 L25.739,33.568 L25.739,34.696 L24.017,34.696 L24.017,33.568 L23.536,33.568 L22.132,33.568 L22.132,31.714 L23.536,31.714 L23.536,25.608 L22.132,25.608 L22.132,23.756 L23.536,23.756 L24.017,23.756 L24.017,22.627 L25.739,22.627 L25.739,23.756 L26.893,23.756 L26.893,22.627 L28.614,22.627 L28.614,23.875 C28.775,23.908 28.930,23.946 29.073,23.993 C29.556,24.154 29.918,24.369 30.161,24.641 C30.602,25.146 30.821,25.716 30.821,26.352 C30.821,27.119 30.573,27.691 30.077,28.065 C29.909,28.196 29.792,28.278 29.726,28.310 C29.661,28.344 29.544,28.397 29.376,28.472 C29.984,28.602 30.468,28.877 30.829,29.293 C31.188,29.710 31.369,30.226 31.368,30.845 ZM28.154,25.819 C27.882,25.678 27.425,25.608 26.779,25.608 L25.726,25.608 L25.726,27.728 L26.765,27.728 C27.372,27.728 27.824,27.662 28.119,27.531 C28.414,27.400 28.561,27.117 28.561,26.682 C28.561,26.247 28.426,25.959 28.154,25.819 ZM28.610,29.672 C28.278,29.527 27.747,29.455 27.017,29.455 L25.727,29.455 L25.727,31.714 L27.228,31.714 C27.855,31.714 28.325,31.637 28.639,31.483 C28.952,31.328 29.109,31.025 29.109,30.571 C29.109,30.117 28.943,29.818 28.610,29.672 Z" class="cls-5"/>
    <circle cx="45.295" cy="44.895" r="13.485" class="cls-6"/>
    <path d="M45.301,34.773 C39.716,34.773 35.187,39.300 35.187,44.886 C35.187,50.472 39.716,55.000 45.301,55.000 C50.887,55.000 55.415,50.472 55.415,44.886 C55.415,39.300 50.887,34.773 45.301,34.773 Z" class="cls-7"/>
    <path d="M45.742,40.887 L45.742,43.610 L45.786,43.610 C46.896,43.871 47.713,44.224 48.234,44.668 C48.756,45.112 49.017,45.757 49.017,46.602 C49.017,47.447 48.717,48.135 48.119,48.666 C47.520,49.197 46.728,49.487 45.743,49.535 L45.743,50.578 L44.816,50.578 L44.816,49.520 C43.493,49.385 42.304,48.859 41.252,47.941 L42.309,46.681 C43.121,47.386 43.956,47.806 44.816,47.941 L44.816,45.131 C43.724,44.870 42.925,44.528 42.418,44.102 C41.911,43.678 41.658,43.047 41.658,42.212 C41.658,41.377 41.950,40.693 42.534,40.162 C43.118,39.631 43.879,39.342 44.816,39.293 L44.816,38.568 L45.742,38.568 L45.742,39.308 C46.805,39.385 47.809,39.747 48.756,40.394 L47.814,41.727 C47.177,41.273 46.486,40.993 45.742,40.887 ZM45.742,47.985 C46.206,47.937 46.573,47.802 46.844,47.580 C47.114,47.357 47.249,47.077 47.249,46.739 C47.249,46.401 47.143,46.133 46.931,45.935 C46.718,45.738 46.322,45.551 45.742,45.378 L45.742,47.985 ZM44.816,40.843 C44.381,40.882 44.041,41.010 43.794,41.227 C43.548,41.445 43.425,41.715 43.425,42.038 C43.425,42.362 43.521,42.618 43.715,42.806 C43.908,42.994 44.275,43.176 44.816,43.349 L44.816,40.843 Z" class="cls-5"/>
    <path d="M59.812,26.437 C59.403,26.231 58.903,26.396 58.697,26.805 L57.137,29.901 C55.938,25.458 53.359,21.443 49.778,18.488 C45.794,15.201 40.749,13.389 35.574,13.389 C35.116,13.389 34.744,13.762 34.744,14.220 C34.744,14.679 35.116,15.051 35.574,15.051 C44.977,15.051 53.213,21.472 55.569,30.470 L52.251,28.853 C51.839,28.652 51.342,28.823 51.141,29.235 C50.940,29.648 51.111,30.145 51.523,30.346 L56.607,32.824 C56.724,32.881 56.848,32.908 56.970,32.908 C57.274,32.908 57.566,32.741 57.712,32.451 L60.180,27.552 C60.387,27.143 60.222,26.644 59.812,26.437 Z" class="cls-8"/>
    <path d="M36.186,58.154 C26.783,58.154 18.547,51.733 16.191,42.734 L19.509,44.352 C19.922,44.552 20.419,44.382 20.620,43.969 C20.821,43.557 20.650,43.059 20.237,42.859 L15.154,40.381 C15.037,40.324 14.913,40.297 14.791,40.297 C14.487,40.297 14.194,40.464 14.049,40.753 L11.581,45.652 C11.374,46.061 11.539,46.561 11.949,46.767 C12.358,46.974 12.857,46.809 13.064,46.400 L14.624,43.303 C15.823,47.747 18.402,51.761 21.983,54.716 C25.967,58.004 31.011,59.815 36.186,59.815 C36.645,59.815 37.016,59.443 37.016,58.984 C37.017,58.526 36.645,58.154 36.186,58.154 Z" class="cls-9"/>
  </g>
</svg>
