<svg xmlns="http://www.w3.org/2000/svg" xmlns:xlink="http://www.w3.org/1999/xlink" preserveAspectRatio="xMidYMid" width="72" height="72" viewBox="0 0 72 72">
  <defs>
    <style>
      .cls-1 {
        fill: #d8d8d8;
        opacity: 0.15;
      }

      .cls-2 {
        fill: #b6c0c6;
        fill-opacity: 0.3;
      }

      .cls-2, .cls-3, .cls-4, .cls-5, .cls-6 {
        fill-rule: evenodd;
      }

      .cls-3 {
        fill: #0064aa;
      }

      .cls-4 {
        fill: #fff;
      }

      .cls-5 {
        fill: #fab900;
      }

      .cls-6 {
        fill: #330d84;
      }
    </style>
  </defs>
  <g>
    <rect width="72" height="72" rx="25.6" ry="25.6" class="cls-1"/>
    <path d="M21.459,14.388 C20.043,14.033 18.936,12.927 18.582,11.512 L18.521,11.270 L18.461,11.512 C18.105,12.927 16.999,14.033 15.583,14.388 L15.341,14.450 L15.583,14.510 C16.999,14.864 18.106,15.971 18.461,17.387 L18.521,17.629 L18.582,17.387 C18.936,15.971 20.043,14.864 21.459,14.510 L21.701,14.450 L21.459,14.388 Z" class="cls-2"/>
    <path d="M61.211,37.981 C58.832,37.385 56.973,35.527 56.377,33.148 L56.276,32.742 L56.175,33.148 C55.578,35.527 53.719,37.385 51.341,37.981 L50.935,38.083 L51.341,38.184 C53.719,38.781 55.578,40.639 56.175,43.019 L56.276,43.424 L56.377,43.019 C56.974,40.639 58.832,38.781 61.211,38.184 L61.618,38.083 L61.211,37.981 Z" class="cls-2"/>
    <path d="M19.629,55.706 C18.506,55.425 17.628,54.547 17.347,53.424 L17.299,53.232 L17.251,53.424 C16.970,54.547 16.092,55.425 14.969,55.706 L14.777,55.754 L14.969,55.802 C16.092,56.084 16.970,56.962 17.251,58.085 L17.299,58.276 L17.347,58.085 C17.628,56.961 18.506,56.084 19.629,55.802 L19.821,55.754 L19.629,55.706 Z" class="cls-2"/>
    <path d="M54.801,29.184 C53.678,28.902 52.800,28.025 52.519,26.902 L52.470,26.710 L52.423,26.902 C52.142,28.025 51.263,28.902 50.141,29.184 L49.948,29.232 L50.141,29.280 C51.263,29.562 52.142,30.440 52.423,31.563 L52.470,31.754 L52.519,31.563 C52.800,30.439 53.678,29.562 54.801,29.280 L54.993,29.232 L54.801,29.184 Z" class="cls-2"/>
    <path d="M46.926,35.773 C46.668,36.431 46.112,36.893 45.455,36.910 C45.455,36.910 32.890,36.996 30.364,36.996 C29.052,36.996 27.898,36.394 27.091,35.816 C24.031,39.587 21.506,44.227 21.506,48.571 C21.506,52.826 22.880,56.078 25.158,58.378 C26.667,59.901 28.733,60.742 30.877,60.742 L43.100,60.742 C45.245,60.742 47.310,59.901 48.820,58.378 C51.098,56.078 52.471,52.826 52.471,48.571 C52.471,44.211 49.973,39.552 46.926,35.773 Z" class="cls-3"/>
    <path d="M47.450,12.877 C45.708,11.011 42.888,14.608 41.170,14.608 C39.452,14.608 40.116,11.144 36.969,11.144 C33.823,11.144 34.920,14.608 32.768,14.608 C30.617,14.608 28.508,11.026 26.489,12.877 C24.757,14.464 27.718,16.780 29.638,19.105 C29.672,19.147 29.704,19.187 29.738,19.228 C31.324,17.583 33.160,15.868 34.013,15.761 C34.844,15.655 35.939,15.981 37.548,16.153 C39.155,16.325 40.555,16.343 40.555,16.343 C40.555,16.343 41.693,16.287 41.596,17.063 C41.538,17.516 40.689,19.583 38.053,19.412 C37.266,19.362 34.737,19.445 34.737,19.445 C34.737,19.445 34.563,19.716 34.267,20.133 L43.194,20.035 C43.326,19.844 43.473,19.645 43.641,19.442 C45.537,17.149 49.470,15.042 47.450,12.877 Z" class="cls-3"/>
    <path d="M42.958,50.567 C42.958,51.451 42.656,52.231 42.051,52.908 C41.495,53.531 40.607,53.902 39.398,54.033 L39.398,55.546 L37.173,55.546 L37.173,54.087 L35.681,54.087 L35.681,55.546 L33.455,55.546 L33.455,54.087 L32.833,54.087 L31.019,54.087 L31.019,51.692 L32.833,51.692 L32.833,43.799 L31.019,43.799 L31.019,41.404 L32.833,41.404 L33.455,41.404 L33.455,39.945 L35.681,39.945 L35.681,41.404 L37.173,41.404 L37.173,39.945 L39.398,39.945 L39.398,41.559 C39.605,41.602 39.806,41.651 39.992,41.712 C40.614,41.918 41.084,42.196 41.398,42.548 C41.966,43.200 42.251,43.937 42.251,44.760 C42.251,45.752 41.930,46.490 41.289,46.974 C41.071,47.143 40.920,47.250 40.835,47.292 C40.751,47.334 40.599,47.404 40.382,47.500 C41.169,47.669 41.795,48.024 42.260,48.562 C42.725,49.101 42.959,49.769 42.958,50.567 ZM38.803,44.071 C38.452,43.890 37.860,43.799 37.025,43.799 L35.664,43.799 L35.664,46.539 L37.007,46.539 C37.793,46.539 38.377,46.454 38.758,46.284 C39.139,46.116 39.329,45.749 39.329,45.187 C39.329,44.624 39.154,44.252 38.803,44.071 ZM39.393,49.052 C38.963,48.865 38.277,48.771 37.333,48.771 L35.664,48.771 L35.664,51.692 L37.606,51.692 C38.416,51.692 39.024,51.592 39.429,51.392 C39.834,51.193 40.037,50.800 40.037,50.214 C40.037,49.626 39.822,49.240 39.393,49.052 Z" class="cls-4"/>
    <path d="M47.262,30.735 C47.234,29.643 46.432,28.762 45.426,28.660 L45.426,28.599 C46.591,28.501 47.492,27.551 47.462,26.418 C47.435,25.320 46.545,24.437 45.426,24.346 L45.426,24.273 C46.432,24.165 47.204,23.225 47.176,22.101 C47.147,20.921 46.250,19.987 45.172,20.014 L34.268,20.133 C34.563,19.716 34.737,19.445 34.737,19.445 C34.737,19.445 37.266,19.362 38.053,19.412 C40.689,19.583 41.538,17.517 41.596,17.063 C41.694,16.288 40.556,16.343 40.556,16.343 C40.556,16.343 39.155,16.325 37.548,16.153 C35.940,15.981 34.844,15.656 34.014,15.761 C32.351,15.971 26.949,22.289 26.949,22.289 L21.660,22.282 L21.660,34.769 L25.897,34.767 C25.897,34.767 27.838,36.996 30.364,36.996 C32.890,36.996 45.455,36.910 45.455,36.910 C46.379,36.887 47.108,35.983 47.081,34.891 C47.052,33.830 46.319,32.979 45.426,32.956 L45.426,32.912 C46.479,32.814 47.290,31.869 47.262,30.735 Z" class="cls-5"/>
    <path d="M20.370,20.523 L13.582,20.523 C12.870,20.523 12.293,21.101 12.293,21.813 L12.293,36.652 C12.293,37.364 12.870,37.942 13.582,37.942 L20.370,37.942 C21.082,37.942 21.660,37.364 21.660,36.652 L21.660,21.813 C21.660,21.101 21.082,20.523 20.370,20.523 Z" class="cls-6"/>
    <path d="M17.916,23.116 C17.158,23.116 16.543,23.731 16.543,24.488 C16.543,25.246 17.157,25.861 17.916,25.861 C18.674,25.861 19.289,25.246 19.289,24.488 C19.289,23.731 18.674,23.116 17.916,23.116 Z" class="cls-4"/>
  </g>
</svg>
