<svg xmlns="http://www.w3.org/2000/svg" xmlns:xlink="http://www.w3.org/1999/xlink" preserveAspectRatio="xMidYMid" width="72" height="72" viewBox="0 0 72 72">
  <defs>
    <style>
      .cls-1 {
        fill: #d8d8d8;
        opacity: 0.15;
      }

      .cls-2 {
        fill: #b6c0c6;
        fill-opacity: 0.3;
      }

      .cls-10, .cls-2, .cls-3, .cls-4, .cls-5, .cls-6, .cls-7, .cls-8, .cls-9 {
        fill-rule: evenodd;
      }

      .cls-3 {
        fill: #5000aa;
      }

      .cls-4 {
        fill: #844cc3;
      }

      .cls-5 {
        fill: #fff;
      }

      .cls-6 {
        fill: #002864;
      }

      .cls-7 {
        fill: #ffbe1b;
      }

      .cls-8 {
        fill: #ffe37b;
      }

      .cls-9 {
        fill: #0064aa;
      }

      .cls-10 {
        fill: #8ac9f9;
      }

      .cls-11 {
        fill: #fdfdfd;
      }
    </style>
  </defs>
  <g>
    <rect width="72" height="72" rx="25.6" ry="25.6" class="cls-1"/>
    <path d="M20.764,17.274 C19.239,16.892 18.048,15.700 17.666,14.176 L17.601,13.916 L17.536,14.176 C17.153,15.700 15.963,16.892 14.438,17.274 L14.178,17.339 L14.438,17.404 C15.963,17.786 17.153,18.977 17.536,20.502 L17.601,20.762 L17.666,20.502 C18.048,18.977 19.239,17.786 20.764,17.404 L21.025,17.339 L20.764,17.274 Z" class="cls-2"/>
    <path d="M46.586,64.957 C45.061,64.575 43.870,63.384 43.488,61.860 L43.423,61.600 L43.358,61.860 C42.976,63.384 41.784,64.575 40.260,64.957 L40.000,65.023 L40.260,65.088 C41.784,65.470 42.976,66.661 43.358,68.185 L43.423,68.446 L43.488,68.185 C43.870,66.661 45.061,65.470 46.586,65.088 L46.846,65.023 L46.586,64.957 Z" class="cls-2"/>
    <path d="M61.958,30.114 C60.810,29.827 59.914,28.931 59.626,27.783 L59.577,27.588 L59.528,27.783 C59.241,28.931 58.345,29.827 57.197,30.114 L57.001,30.164 L57.197,30.212 C58.345,30.500 59.241,31.396 59.528,32.544 L59.577,32.740 L59.626,32.544 C59.914,31.396 60.810,30.500 61.958,30.212 L62.153,30.164 L61.958,30.114 Z" class="cls-2"/>
    <path d="M42.996,8.728 C41.183,8.274 39.767,6.858 39.312,5.045 L39.235,4.736 L39.157,5.045 C38.703,6.858 37.288,8.274 35.475,8.728 L35.166,8.806 L35.475,8.883 C37.288,9.337 38.703,10.753 39.157,12.566 L39.235,12.875 L39.312,12.566 C39.767,10.753 41.183,9.337 42.996,8.883 L43.305,8.806 L42.996,8.728 Z" class="cls-2"/>
    <path d="M48.030,11.388 C43.881,11.388 40.517,14.752 40.517,18.902 C40.517,20.758 41.192,22.456 42.308,23.767 L49.176,23.767 C50.371,23.767 51.433,24.332 52.112,25.208 C54.177,23.869 55.544,21.546 55.544,18.902 C55.544,14.752 52.180,11.388 48.030,11.388 Z" class="cls-3"/>
    <path d="M48.030,13.262 C44.916,13.262 42.391,15.787 42.391,18.902 C42.391,20.976 43.512,22.787 45.179,23.767 L49.177,23.767 C49.627,23.767 50.058,23.847 50.457,23.994 C52.357,23.087 53.670,21.148 53.670,18.902 C53.670,15.787 51.146,13.262 48.030,13.262 Z" class="cls-4"/>
    <path d="M48.030,15.110 L45.718,18.639 L48.030,20.344 L50.344,18.639 L48.030,15.110 Z" class="cls-5"/>
    <path d="M48.030,20.925 L45.718,19.103 L48.030,22.693 L50.344,19.103 L48.030,20.925 Z" class="cls-5"/>
    <path d="M23.570,26.442 C23.570,25.594 23.659,24.768 23.827,23.971 L21.167,23.971 C19.147,23.971 17.504,25.585 17.455,27.592 C17.477,27.753 17.690,28.958 19.157,29.724 C20.135,30.236 21.721,30.230 22.470,30.230 L24.187,30.230 C23.789,29.039 23.570,27.767 23.570,26.442 Z" class="cls-6"/>
    <path d="M49.251,23.971 L47.169,23.971 C47.337,24.768 47.427,25.594 47.427,26.442 C47.427,27.767 47.208,29.039 46.809,30.230 L50.833,30.230 C51.626,30.230 52.360,30.480 52.964,30.903 L52.964,27.683 C52.964,25.633 51.302,23.971 49.251,23.971 Z" class="cls-6"/>
    <path d="M35.498,14.513 C28.910,14.513 23.570,19.853 23.570,26.442 C23.570,27.767 23.789,29.039 24.187,30.230 L46.809,30.230 C47.208,29.039 47.427,27.767 47.427,26.442 C47.427,19.853 42.086,14.513 35.498,14.513 Z" class="cls-7"/>
    <path d="M35.498,17.488 C30.553,17.488 26.544,21.496 26.544,26.442 C26.544,27.796 26.846,29.079 27.385,30.230 L43.611,30.230 C44.150,29.079 44.452,27.796 44.452,26.442 C44.452,21.496 40.443,17.488 35.498,17.488 Z" class="cls-8"/>
    <path d="M39.586,28.374 C39.586,28.979 39.379,29.514 38.965,29.977 C38.882,30.070 38.786,30.153 38.682,30.230 L31.409,30.230 L31.409,29.144 L32.651,29.144 L32.651,23.738 L31.409,23.738 L31.409,22.098 L32.651,22.098 L33.078,22.098 L33.078,21.099 L34.602,21.099 L34.602,22.098 L35.624,22.098 L35.624,21.099 L37.149,21.099 L37.149,22.203 C37.291,22.233 37.428,22.266 37.555,22.308 C37.982,22.450 38.303,22.641 38.518,22.881 C38.907,23.328 39.102,23.833 39.102,24.397 C39.102,25.076 38.882,25.582 38.443,25.912 C38.295,26.029 38.190,26.102 38.133,26.130 C38.075,26.160 37.970,26.207 37.822,26.273 C38.361,26.389 38.789,26.632 39.108,27.000 C39.427,27.370 39.587,27.827 39.586,28.374 ZM36.741,23.925 C36.500,23.800 36.095,23.738 35.522,23.738 L34.591,23.738 L34.591,25.614 L35.510,25.614 C36.049,25.614 36.448,25.557 36.709,25.440 C36.971,25.325 37.101,25.074 37.101,24.689 C37.101,24.303 36.981,24.049 36.741,23.925 ZM37.144,27.336 C36.850,27.208 36.380,27.143 35.734,27.143 L34.590,27.143 L34.590,29.144 L35.920,29.144 C36.475,29.144 36.892,29.076 37.169,28.939 C37.447,28.802 37.586,28.533 37.586,28.131 C37.586,27.730 37.439,27.464 37.144,27.336 Z" class="cls-5"/>
    <path d="M50.833,30.230 L22.470,30.230 C21.721,30.230 20.135,30.236 19.157,29.724 C17.583,28.902 17.453,27.574 17.453,27.574 L17.453,52.056 C17.453,54.107 19.116,55.769 21.167,55.769 L50.833,55.769 C52.884,55.769 54.546,54.107 54.546,52.056 L54.546,33.942 C54.546,31.892 52.884,30.230 50.833,30.230 Z" class="cls-9"/>
    <path d="M44.514,39.004 C43.595,39.004 42.850,39.749 42.850,40.668 L42.850,45.247 C42.850,46.166 43.595,46.911 44.514,46.911 L54.546,46.911 L54.546,39.004 L44.514,39.004 Z" class="cls-10"/>
    <circle cx="46.08" cy="42.97" r="1.64" class="cls-11"/>
  </g>
</svg>
