<svg xmlns="http://www.w3.org/2000/svg" xmlns:xlink="http://www.w3.org/1999/xlink" preserveAspectRatio="xMidYMid" width="168.35" height="53.56" viewBox="0 0 168.35 53.56">
  <defs>
    <style>
      .cls-1 {
        fill: #15a305;
      }

      .cls-1, .cls-2, .cls-3, .cls-4, .cls-5 {
        fill-rule: evenodd;
      }

      .cls-2, .cls-5 {
        fill: #000;
      }

      .cls-2 {
        fill-opacity: 0;
      }

      .cls-3 {
        fill: #fff;
      }

      .cls-4 {
        fill: url(#linear-gradient-1);
      }
    </style>

    <linearGradient id="linear-gradient-1" gradientUnits="userSpaceOnUse" x1="33.406" y1="32.25" x2="33.414" y2="32.28">
      <stop offset="NaN" stop-color="blue"/>
      <stop offset="Infinity"/>
    </linearGradient>
  </defs>
  <g>
    <path d="M98.464,31.378 C98.445,31.467 98.366,31.531 98.274,31.531 L87.133,31.531 C87.014,31.531 86.921,31.641 86.943,31.758 C87.438,34.358 90.049,35.452 92.780,35.452 C94.508,35.452 96.097,35.060 97.366,34.485 C97.492,34.428 97.633,34.518 97.633,34.657 L97.633,37.192 C97.633,37.267 97.591,37.337 97.523,37.368 C96.127,38.011 94.225,38.376 92.142,38.376 C87.449,38.376 83.458,35.677 83.458,30.246 C83.458,24.654 87.672,22.115 91.216,22.115 C97.243,22.115 99.372,26.951 98.464,31.378 ZM91.375,24.976 C89.139,24.976 87.114,26.284 86.889,28.752 C86.878,28.863 86.969,28.961 87.080,28.961 L95.194,28.961 C95.291,28.961 95.377,28.888 95.384,28.790 C95.486,27.401 94.591,24.976 91.375,24.976 Z" class="cls-1"/>
    <g>
      <path d="M0.016,-0.000 L53.225,-0.000 L53.225,53.560 L0.016,53.560 L0.016,-0.000 Z" class="cls-2"/>
      <path d="M53.225,26.780 C53.225,41.570 41.314,53.560 26.621,53.560 C11.927,53.560 0.016,41.570 0.016,26.780 L0.016,26.780 C0.016,11.990 11.927,-0.000 26.621,-0.000 C41.314,-0.000 53.225,11.990 53.225,26.780 " class="cls-1"/>
    </g>
    <path d="M28.171,22.217 C28.171,22.217 27.842,21.897 27.723,21.804 C27.324,21.491 26.804,21.396 26.306,21.439 L7.931,23.065 C7.663,23.088 7.450,22.834 7.509,22.561 L8.804,16.551 C8.903,16.090 9.350,15.808 9.789,15.928 L27.456,20.780 C28.134,20.954 28.703,21.426 29.016,22.070 L34.272,32.011 C34.325,32.112 34.467,32.109 34.517,32.007 L34.580,31.876 C34.718,31.590 34.737,31.258 34.631,30.959 L31.315,21.878 L39.153,17.642 C39.498,17.456 39.897,17.407 40.273,17.504 L45.591,18.875 C45.765,18.920 45.798,19.162 45.643,19.256 L39.289,23.111 L40.179,18.333 C40.192,18.257 40.136,18.187 40.061,18.187 L39.842,18.187 C39.583,18.187 39.352,18.361 39.272,18.618 L35.189,31.662 C35.005,32.247 34.618,32.741 34.104,33.046 L19.319,41.816 C19.173,41.903 18.996,41.774 19.024,41.601 L20.103,34.916 C20.134,34.730 20.101,34.539 20.011,34.375 L14.967,25.168 L28.171,22.217 Z" class="cls-3"/>
    <g>
      <path d="M20.103,34.645 C20.087,34.552 20.057,34.460 20.011,34.376 L14.967,25.169 L34.280,32.022 C34.307,32.062 34.348,32.085 34.391,32.085 " class="cls-2"/>
      <path d="M20.103,34.645 L34.391,32.085 C34.348,32.085 34.307,32.062 34.280,32.022 L14.967,25.169 L20.011,34.376 C20.057,34.460 20.087,34.552 20.103,34.645 " class="cls-2"/>
    </g>
    <path d="M33.255,31.649 L15.033,25.184 L14.993,25.169 L27.534,22.366 L28.197,22.218 L33.255,31.649 Z" class="cls-2"/>
    <g>
      <path d="M33.350,32.278 C33.392,32.293 33.429,32.280 33.459,32.258 L33.350,32.278 Z" class="cls-2"/>
      <path d="M33.350,32.278 C33.392,32.293 33.429,32.280 33.459,32.258 L33.350,32.278 Z" class="cls-4"/>
    </g>
    <path d="M70.368,15.655 L70.368,34.361 C70.368,34.467 70.453,34.552 70.558,34.552 L81.927,34.552 C82.031,34.552 82.117,34.638 82.117,34.743 L82.117,37.767 C82.117,37.873 82.031,37.959 81.927,37.959 L66.919,37.959 C66.814,37.959 66.729,37.873 66.729,37.767 L66.729,15.655 C66.729,15.549 66.814,15.463 66.919,15.463 L70.178,15.463 C70.283,15.463 70.368,15.549 70.368,15.655 " class="cls-1"/>
    <path d="M106.411,17.628 L106.411,22.342 C106.411,22.448 106.496,22.533 106.601,22.533 L111.583,22.533 C111.741,22.533 111.830,22.715 111.734,22.840 L109.743,25.479 C109.707,25.527 109.651,25.554 109.592,25.554 L106.601,25.554 C106.496,25.554 106.411,25.639 106.411,25.745 L106.411,32.624 C106.411,34.649 107.338,35.323 109.317,35.323 C110.335,35.323 111.274,35.136 112.158,34.811 C112.282,34.766 112.413,34.855 112.413,34.988 L112.413,37.532 C112.413,37.614 112.364,37.688 112.286,37.714 C111.157,38.105 109.741,38.344 108.295,38.344 C105.326,38.344 103.028,36.866 103.028,33.267 L103.028,25.745 C103.028,25.639 102.942,25.554 102.837,25.554 L100.654,25.554 C100.499,25.554 100.409,25.377 100.500,25.251 L106.067,17.516 C106.175,17.366 106.411,17.443 106.411,17.628 " class="cls-1"/>
    <g>
      <path d="M164.783,22.499 L168.358,22.499 L161.175,40.012 C159.515,44.029 157.344,45.379 155.014,45.379 C154.343,45.379 153.673,45.283 153.002,45.122 L153.002,42.198 C153.513,42.358 154.055,42.423 154.566,42.423 C156.227,42.423 157.472,41.234 158.366,38.824 L158.685,38.052 L151.406,22.499 L155.046,22.499 L160.217,34.132 L164.783,22.499 Z" class="cls-5"/>
      <path d="M124.461,30.211 L120.119,30.211 L120.119,37.924 L116.480,37.924 L116.480,15.428 L124.461,15.428 C129.761,15.428 134.007,17.099 134.007,22.820 C134.007,28.540 129.761,30.211 124.461,30.211 ZM124.653,18.770 L120.119,18.770 L120.119,26.869 L124.653,26.869 C127.717,26.869 130.304,26.097 130.304,22.820 C130.304,19.542 127.749,18.770 124.653,18.770 Z" class="cls-5"/>
      <path d="M149.618,38.149 C148.214,38.149 147.096,37.602 146.553,36.349 C145.053,37.570 143.169,38.341 140.775,38.341 C137.997,38.341 135.412,36.799 135.412,33.617 C135.412,29.665 139.051,28.444 142.244,28.444 C143.553,28.444 145.021,28.636 146.234,28.894 L146.234,28.347 C146.234,26.419 144.829,25.069 142.212,25.069 C139.945,25.069 138.061,25.648 136.689,26.258 L136.689,23.109 C137.902,22.691 140.104,22.080 142.563,22.080 C146.905,22.080 149.650,24.170 149.650,28.829 L149.650,34.356 C149.650,35.224 150.161,35.482 150.768,35.482 C151.119,35.482 151.470,35.385 151.789,35.288 L151.789,37.763 C151.151,38.020 150.384,38.149 149.618,38.149 ZM146.234,31.239 C145.308,31.046 143.999,30.854 142.914,30.854 C140.966,30.854 138.923,31.465 138.923,33.392 C138.923,34.903 140.264,35.674 141.797,35.674 C143.425,35.674 145.021,35.063 146.234,33.843 L146.234,31.239 Z" class="cls-5"/>
    </g>
    <path d="M151.406,22.499 L168.358,22.499 L168.358,45.379 L151.406,45.379 L151.406,22.499 Z" class="cls-2"/>
  </g>
</svg>
