<?xml version="1.0" encoding="UTF-8"?>
<svg width="123px" height="33px" viewBox="0 0 123 33" version="1.1" xmlns="http://www.w3.org/2000/svg" xmlns:xlink="http://www.w3.org/1999/xlink">
    <!-- Generator: Sketch 54.1 (76490) - https://sketchapp.com -->
    <title>Logo</title>
    <desc>Created with Sketch.</desc>
    <defs>
        <polygon id="path-1" points="0 0 33.0908855 0 33.0908855 32.6117414 0 32.6117414"></polygon>
        <linearGradient x1="96.3030947%" y1="62.7826136%" x2="30.476384%" y2="8.74428925%" id="linearGradient-3">
            <stop stop-color="#EEEEEE" stop-opacity="0" offset="0%"></stop>
            <stop stop-color="#E8E8E8" offset="69.697717%"></stop>
            <stop stop-color="#D8D8D8" offset="100%"></stop>
        </linearGradient>
    </defs>
    <g id="Page-1" stroke="none" stroke-width="1" fill="none" fill-rule="evenodd">
        <g id="letknow.com---375---menu" transform="translate(-15.000000, -28.000000)" fill="#00BEFF" fill-rule="nonzero">
            <g id="Logo-Copy-3" transform="translate(15.000000, 28.000000)">
                <g id="Group-31" fill="none" fill-rule="evenodd">
                    <g id="PaperCanary">
                        <g id="Group-3">
                            <mask id="mask-2" fill="white">
                                <use xlink:href="#path-1"></use>
                            </mask>
                            <g id="Clip-2"></g>
                            <path d="M33.0908855,16.3058591 C33.0908855,25.3113649 25.6832491,32.6117414 16.5454309,32.6117414 C7.40761273,32.6117414 -2.36363636e-05,25.3113649 -2.36363636e-05,16.3058591 C-2.36363636e-05,7.30035318 7.40761273,-2.32941176e-05 16.5454309,-2.32941176e-05 C25.6832491,-2.32941176e-05 33.0908855,7.30035318 33.0908855,16.3058591" id="Fill-1" fill="#00beff" mask="url(#mask-2)"></path>
                        </g>
                        <path d="M28.3431909,11.4929216 L25.0364636,10.6580605 C24.8019909,10.5988934 24.5542818,10.6287099 24.3399,10.7421522 L19.4649,13.321044 L18.3036455,13.9353099 L18.0351364,13.4384464 C17.8408455,13.0459405 17.4865364,12.7589569 17.0653364,12.6525028 L6.07773636,9.69857576 C5.80520909,9.62543224 5.52724545,9.79594518 5.46602727,10.0740769 L5.46531818,10.077804 L5.32940909,10.6953311 L4.65931818,13.7401052 C4.62315455,13.9050275 4.75551818,14.0580699 4.92215455,14.0440934 L8.41679091,13.7498887 L9.29795455,15.3245711 L12.4354455,20.9307664 C12.4912273,21.0304652 12.5115545,21.1467028 12.4926455,21.2599122 L12.0664818,23.842764 L11.8639182,25.0708299 L11.8211364,25.3300934 C11.8036455,25.4353828 11.9140273,25.513884 12.0050273,25.4610064 L16.7729545,22.6920346 L21.1993364,20.1215287 C21.5196091,19.9356416 21.7597545,19.6360793 21.8734455,19.2815428 L23.3346455,14.7198558 L24.4245182,14.0722793 L25.9644273,13.1575193 L28.1177,11.8782064 L28.1177,11.8782064 L28.3758091,11.7249311 C28.4720091,11.6676275 28.4514455,11.5201758 28.3431909,11.4929216" id="Fill-4" fill="#595F63" opacity="0.467122396"></path>
                        <path d="M17.5094636,13.5277327 C17.5094636,13.5277327 17.3050091,13.3332268 17.2307909,13.2759233 C16.9828455,13.0856104 16.6595,13.0278409 16.3496273,13.0539304 L4.92191818,14.0441633 C4.75528182,14.0581398 4.62315455,13.9034668 4.65979091,13.7373798 L5.46484545,10.0778739 C5.52677273,9.79741271 5.80473636,9.62526918 6.0775,9.69864565 L17.0651,12.6525727 C17.4863,12.7587939 17.8406091,13.0460104 18.0349,13.4382833 L21.3038091,19.4910268 C21.3369,19.5527562 21.4250636,19.5511256 21.4560273,19.4884645 L21.4955,19.4087986 C21.5815364,19.2350245 21.5928818,19.0328315 21.5274091,18.8502056 L19.4646636,13.3208809 L24.3394273,10.7422221 C24.5540455,10.6285468 24.8017545,10.5987304 25.0362273,10.6578974 L28.3429545,11.4929915 C28.4512091,11.5202456 28.4717727,11.6676974 28.3755727,11.724768 L24.4242818,14.0723492 L24.9776091,11.1626809 C24.9856455,11.1165586 24.9506636,11.0741633 24.9043364,11.0741633 L24.7679545,11.0741633 C24.6067545,11.0741633 24.4635182,11.1796856 24.4134091,11.3362221 L21.8741545,19.2783515 C21.7597545,19.6349845 21.5191364,19.9357115 21.1991,20.1215986 L12.0045545,25.4610762 C11.9137909,25.5139539 11.8034091,25.4352198 11.8209,25.3301633 L12.4924091,21.2597492 C12.5113182,21.1467727 12.4909909,21.0303021 12.4349727,20.9308362 L9.29771818,15.3246409 L17.5094636,13.5277327 Z" id="Fill-6" fill="#FFFFFF"></path>
                        <path d="M12.4918182,21.0951529 L21.3776727,19.5365435 C21.3509636,19.5360776 21.3254364,19.5223341 21.3088909,19.4974094 L9.2976,15.3254329 L12.4350909,20.9313953 C12.4636909,20.9826424 12.4821273,21.0380824 12.4918182,21.0951529" id="Fill-8" fill="#D8D8D8" opacity="0.299553571"></path>
                        <polygon id="Clip-12" fill="url(#linearGradient-3)" points="20.6711818 19.2702918 9.33872727 15.3340518 9.31438182 15.3249671 17.1132 13.61844 17.5258909 13.5280588"></polygon>
                    </g>
                    <path d="M90.1177491,13.6158311 L87.1156945,13.6158311 L85.1907491,13.6158311 C85.0888764,13.6158311 85.0061491,13.6973605 85.0061491,13.7977581 L85.0061491,15.4777299 L85.0061491,22.8391369 C85.0061491,22.9397675 85.0888764,23.021064 85.1907491,23.021064 L86.9308582,23.021064 C87.0329673,23.021064 87.1156945,22.9397675 87.1156945,22.8391369 L87.1156945,15.6596569 C87.1156945,15.5592593 87.1984218,15.4777299 87.3005309,15.4777299 L89.6993855,15.4777299 C90.9729127,15.4777299 91.9278218,16.2024099 91.9278218,17.7309699 L91.9278218,22.8391369 C91.9278218,22.9397675 92.0105491,23.021064 92.1124218,23.021064 L93.8721491,23.021064 C93.9740218,23.021064 94.0569855,22.9397675 94.0569855,22.8391369 L94.0569855,17.4567981 C94.0569855,15.2221934 92.5239309,13.6158311 90.1177491,13.6158311 M71.8610691,22.8981176 L71.8610691,9.43411765 C71.8610691,9.36982588 71.9140145,9.31764706 71.9792509,9.31764706 L74.0063055,9.31764706 C74.0717782,9.31764706 74.1244873,9.36982588 74.1244873,9.43411765 L74.1244873,14.9147576 C74.1244873,14.9790494 74.1774327,15.0312282 74.2426691,15.0312282 L76.8013055,15.0312282 C76.8407782,15.0312282 76.8776509,15.0118941 76.8993964,14.9795153 L80.7008327,9.36959294 C80.7228145,9.33721412 80.7596873,9.31764706 80.79916,9.31764706 L83.0739236,9.31764706 C83.1687055,9.31764706 83.22496,9.42223765 83.1717782,9.49957412 L78.7368873,15.9238588 C78.7094691,15.9636918 78.7097055,16.0163365 78.7375964,16.0559365 L83.5256145,22.8314965 C83.5799782,22.9088329 83.52396,23.0145882 83.4284691,23.0145882 L81.15536,23.0145882 C81.1165964,23.0145882 81.0804327,22.9959529 81.0584509,22.9647388 L76.9393418,17.1358518 C76.91736,17.1044047 76.88096,17.0857694 76.8424327,17.0857694 L74.2426691,17.0857694 C74.1774327,17.0857694 74.1244873,17.1379482 74.1244873,17.20224 L74.1244873,22.8981176 C74.1244873,22.9624094 74.0717782,23.0145882 74.0063055,23.0145882 L71.9792509,23.0145882 C71.9140145,23.0145882 71.8610691,22.9624094 71.8610691,22.8981176 M101.205945,15.2856699 C99.4188,15.2856699 98.1878182,16.4792605 98.1878182,18.318564 C98.1878182,20.1578675 99.4188,21.3514581 101.205945,21.3514581 C102.973,21.3514581 104.203982,20.1578675 104.203982,18.318564 C104.203982,16.4792605 102.973,15.2856699 101.205945,15.2856699 M101.205945,13.3680981 C103.886309,13.3680981 106.368127,15.0704322 106.368127,18.318564 C106.368127,21.5666958 103.886309,23.2687969 101.205945,23.2687969 C98.5454364,23.2687969 96.0437636,21.5666958 96.0437636,18.318564 C96.0437636,15.0704322 98.5454364,13.3680981 101.205945,13.3680981 M122.557618,13.7755355 L119.479218,22.9347826 C119.463145,22.9823026 119.418,23.0146814 119.366945,23.0146814 L117.254327,23.0146814 C117.203509,23.0146814 117.158127,22.9823026 117.142291,22.9347826 L115.017855,16.6171849 C114.981927,16.5107308 114.829236,16.5107308 114.793309,16.6171849 L112.669345,22.9347826 C112.653273,22.9823026 112.607891,23.0146814 112.557073,23.0146814 L110.464073,23.0146814 C110.413255,23.0146814 110.368109,22.9825355 110.352036,22.9350155 L107.253782,13.7757685 C107.228255,13.7002955 107.285455,13.6224932 107.366055,13.6224932 L109.357655,13.6224932 C109.409891,13.6224932 109.455982,13.6562696 109.470873,13.7056532 L111.481382,20.3649755 C111.514473,20.4746908 111.671418,20.4765544 111.707109,20.3675379 L113.886618,13.7030908 C113.902455,13.6551049 113.947836,13.6224932 113.999127,13.6224932 L115.812509,13.6224932 C115.8638,13.6224932 115.909182,13.654872 115.924782,13.7028579 L118.123436,20.3677708 C118.159364,20.4765544 118.316309,20.4744579 118.349164,20.3647426 L120.340764,13.7061191 C120.355655,13.6565026 120.401745,13.6224932 120.454218,13.6224932 L122.445345,13.6224932 C122.525945,13.6224932 122.582909,13.7002955 122.557618,13.7755355" id="Fill-17" fill="#00BEFF"></path>
                    <path d="M43.6283309,9.43411765 L43.6283309,20.8240094 C43.6283309,20.8883012 43.6812764,20.94048 43.7465127,20.94048 L50.8166218,20.94048 C50.8818582,20.94048 50.9348036,20.9926588 50.9348036,21.0569506 L50.9348036,22.8981176 C50.9348036,22.9624094 50.8818582,23.0145882 50.8166218,23.0145882 L41.4830945,23.0145882 C41.4178582,23.0145882 41.3649127,22.9624094 41.3649127,22.8981176 L41.3649127,9.43411765 C41.3649127,9.36982588 41.4178582,9.31764706 41.4830945,9.31764706 L43.5101491,9.31764706 C43.5753855,9.31764706 43.6283309,9.36982588 43.6283309,9.43411765 M56.6927164,15.1094499 C55.3019527,15.1094499 54.0426073,15.9061087 53.9024436,17.4090452 C53.8960618,17.4768311 53.9525527,17.5357652 54.0215709,17.5357652 L59.0674618,17.5357652 C59.1282073,17.5357652 59.1813891,17.4915064 59.18588,17.4316405 C59.2492255,16.586064 58.6925891,15.1094499 56.6927164,15.1094499 M56.5934436,13.3679816 C60.3421709,13.3679816 61.6658073,16.3125911 61.1011345,19.0074875 C61.0897891,19.0619958 61.0401527,19.1011299 60.9834255,19.1011299 L54.0541891,19.1011299 C53.98068,19.1011299 53.9225345,19.167984 53.9362436,19.239264 C54.2442255,20.8225652 55.8678073,21.4883111 57.5663164,21.4883111 C58.6412982,21.4883111 59.6295345,21.2497793 60.4185164,20.8996687 C60.4969891,20.8649605 60.5844436,20.9197016 60.5844436,21.0047252 L60.5844436,22.5477275 C60.5844436,22.5936169 60.5582073,22.6357793 60.5158982,22.6548805 C59.6479709,23.0462216 58.4652073,23.2689134 57.1694618,23.2689134 C54.2508436,23.2689134 51.7690255,21.6252805 51.7690255,18.3184475 C51.7690255,14.9137793 54.3898255,13.3679816 56.5934436,13.3679816 M66.0438527,10.6357913 L66.0438527,13.5058595 C66.0438527,13.5703842 66.0967982,13.6223301 66.1620345,13.6223301 L69.2602891,13.6223301 C69.3581436,13.6223301 69.4136891,13.7327442 69.3543618,13.8093819 L68.1160527,15.4157442 C68.0935982,15.4448619 68.0586164,15.4616336 68.0217436,15.4616336 L66.1620345,15.4616336 C66.0967982,15.4616336 66.0438527,15.5138125 66.0438527,15.5781042 L66.0438527,19.7663866 C66.0438527,20.9991113 66.6198709,21.4100195 67.8508527,21.4100195 C68.4840709,21.4100195 69.0681255,21.2963442 69.6176709,21.0983442 C69.6951982,21.0703913 69.7765073,21.1246666 69.7765073,21.2059631 L69.7765073,22.7547889 C69.7765073,22.8048713 69.7455436,22.8498289 69.6975618,22.8659019 C68.9950891,23.1039678 68.1143982,23.2493231 67.2152709,23.2493231 C65.3690345,23.2493231 63.9395073,22.3492384 63.9395073,20.1577278 L63.9395073,15.5781042 C63.9395073,15.5138125 63.8865618,15.4616336 63.8213255,15.4616336 L62.4634164,15.4616336 C62.36698,15.4616336 62.3111982,15.3540148 62.3676891,15.2769113 L65.8299436,10.5675395 C65.8970709,10.4759936 66.0438527,10.5228148 66.0438527,10.6357913" id="Fill-19" fill="#FFFFFF"></path>
                </g>
            </g>
        </g>
    </g>
</svg>
