<svg xmlns="http://www.w3.org/2000/svg" xmlns:xlink="http://www.w3.org/1999/xlink" preserveAspectRatio="xMidYMid" width="203.06" height="46.31" viewBox="0 0 203.06 46.31">
  <defs>
    <style>
      .cls-1 {
        fill: #000;
        fill-opacity: 0;
      }

      .cls-1, .cls-2, .cls-3 {
        fill-rule: evenodd;
      }

      .cls-2 {
        fill: #282828;
      }

      .cls-3 {
        fill: #d24a43;
      }
    </style>
  </defs>
  <g>
    <g>
      <path d="M-0.014,0.005 L87.593,0.005 L87.593,46.210 L-0.014,46.210 L-0.014,0.005 Z" class="cls-1"/>
      <path d="M82.616,46.210 L-0.014,46.210 L-0.014,5.007 C-0.014,2.256 2.226,0.005 4.963,0.005 L87.593,0.005 L87.593,41.208 C87.593,43.959 85.353,46.210 82.616,46.210 ZM29.639,30.104 L15.911,30.104 L15.911,10.676 L10.603,10.676 L10.603,31.105 C10.603,33.495 12.538,35.440 14.916,35.440 L29.639,35.440 L29.639,30.104 ZM37.909,10.676 L32.600,10.676 L32.600,31.105 C32.600,33.495 34.536,35.440 36.914,35.440 L49.148,35.440 C50.517,35.440 51.636,34.314 51.636,32.939 L51.636,30.104 L37.909,30.104 L37.909,10.676 ZM51.636,10.676 L41.205,10.676 L41.205,16.011 L49.148,16.011 C50.517,16.011 51.636,14.885 51.636,13.510 L51.636,10.676 ZM51.674,20.249 L41.244,20.249 L41.244,25.584 L49.186,25.584 C50.555,25.584 51.674,24.459 51.674,23.083 L51.674,20.249 ZM76.976,10.676 L55.040,10.676 L55.040,16.011 L63.354,16.011 L63.354,35.440 L66.174,35.440 C67.543,35.440 68.662,34.314 68.662,32.939 L68.662,16.011 L74.487,16.011 C75.856,16.011 76.976,14.885 76.976,13.510 L76.976,10.676 Z" class="cls-2"/>
    </g>
    <path d="M163.251,34.980 C156.499,34.980 151.007,29.435 151.007,22.620 C151.007,15.804 156.499,10.260 163.251,10.260 C170.003,10.260 175.497,15.804 175.497,22.620 C175.497,29.435 170.003,34.980 163.251,34.980 ZM163.251,15.577 C159.404,15.577 156.275,18.737 156.275,22.620 C156.275,26.503 159.404,29.662 163.251,29.662 C167.098,29.662 170.228,26.503 170.228,22.620 C170.228,18.737 167.098,15.577 163.251,15.577 Z" class="cls-2"/>
    <g>
      <path d="M178.719,10.267 L203.042,10.267 L203.042,34.977 L178.719,34.977 L178.719,10.267 Z" class="cls-1"/>
      <path d="M181.822,34.977 C181.433,34.977 181.045,34.900 180.671,34.743 C179.449,34.228 178.719,33.002 178.719,31.463 L178.719,10.267 L183.944,10.267 L183.944,26.714 L188.023,22.569 C188.820,21.758 189.879,21.313 191.006,21.313 C191.017,21.313 191.027,21.313 191.038,21.313 C192.177,21.321 193.242,21.784 194.035,22.615 L197.818,26.575 L197.818,10.267 L203.042,10.267 L203.042,31.463 C203.042,33.011 202.308,34.238 201.078,34.745 C199.847,35.252 198.479,34.891 197.419,33.780 L190.996,27.056 L184.333,33.826 C183.590,34.581 182.703,34.977 181.822,34.977 " class="cls-2"/>
    </g>
    <path d="M104.334,19.932 L102.221,19.932 L102.221,10.260 L96.925,10.260 L96.925,34.915 L102.221,34.915 L102.221,25.243 L104.334,25.243 C104.566,25.253 105.115,25.482 105.291,25.644 L113.874,34.253 C114.840,35.222 116.420,35.222 117.385,34.253 L119.374,32.258 L109.031,21.884 C107.885,20.734 105.954,19.932 104.334,19.932 " class="cls-3"/>
    <path d="M113.499,19.852 L119.374,13.944 L117.439,11.998 C116.500,11.054 114.964,11.054 114.025,11.998 L108.150,17.906 L110.084,19.852 C111.024,20.796 112.560,20.796 113.499,19.852 " class="cls-3"/>
    <path d="M143.794,36.010 C142.883,36.010 141.971,35.596 141.215,34.808 L126.716,19.717 L126.716,35.914 L121.415,35.914 L121.415,14.789 C121.415,13.240 122.162,12.015 123.413,11.511 C124.664,11.008 126.052,11.374 127.125,12.491 L141.623,27.582 L141.623,11.310 L146.925,11.310 L146.925,32.510 C146.925,34.059 146.178,35.285 144.927,35.788 C144.557,35.937 144.176,36.010 143.794,36.010 " class="cls-2"/>
    <path d="M100.929,45.668 L101.007,46.144 C100.529,46.254 99.948,46.310 99.263,46.310 C98.406,46.310 97.802,46.117 97.452,45.733 C97.100,45.348 96.925,44.682 96.925,43.735 C96.925,42.787 97.100,42.122 97.452,41.737 C97.802,41.352 98.406,41.160 99.263,41.160 C99.879,41.160 100.420,41.208 100.886,41.304 L100.808,41.787 C100.291,41.744 99.776,41.723 99.263,41.723 C98.682,41.723 98.281,41.868 98.060,42.159 C97.838,42.450 97.727,42.975 97.727,43.735 C97.727,44.495 97.838,45.020 98.060,45.311 C98.281,45.602 98.682,45.747 99.263,45.747 C99.931,45.747 100.486,45.721 100.929,45.668 " class="cls-2"/>
    <path d="M104.832,43.938 L104.832,43.974 C104.989,44.009 105.132,44.089 105.261,44.214 C105.389,44.339 105.484,44.503 105.546,44.704 L106.109,46.310 L105.319,46.310 L104.807,44.719 C104.734,44.527 104.636,44.391 104.513,44.309 C104.390,44.228 104.230,44.188 104.034,44.188 C103.838,44.188 103.599,44.187 103.316,44.184 C103.033,44.182 102.847,44.181 102.758,44.181 L102.758,46.310 L102.027,46.310 L102.027,41.226 C102.497,41.182 103.164,41.160 104.026,41.160 C104.715,41.160 105.199,41.264 105.479,41.473 C105.759,41.682 105.899,42.066 105.899,42.626 C105.899,43.043 105.816,43.356 105.651,43.562 C105.486,43.768 105.213,43.893 104.832,43.938 ZM104.908,41.915 C104.745,41.785 104.446,41.720 104.009,41.720 C103.393,41.720 102.976,41.722 102.758,41.727 L102.758,43.628 L104.009,43.628 C104.446,43.623 104.745,43.554 104.908,43.421 C105.070,43.289 105.151,43.036 105.151,42.663 C105.151,42.294 105.070,42.045 104.908,41.915 Z" class="cls-2"/>
    <path d="M110.519,44.503 L110.519,46.310 L109.862,46.310 L109.862,44.496 L108.150,41.160 L108.852,41.160 L109.936,43.332 C109.996,43.451 110.073,43.645 110.168,43.914 L110.220,43.914 C110.300,43.695 110.377,43.503 110.452,43.339 L111.536,41.160 L112.231,41.160 L110.519,44.503 Z" class="cls-2"/>
    <path d="M117.023,44.007 C116.816,44.231 116.448,44.343 115.919,44.343 C115.555,44.343 115.201,44.320 114.859,44.276 L114.859,46.310 L114.272,46.310 L114.272,41.226 C114.645,41.182 115.173,41.160 115.853,41.160 C116.413,41.160 116.800,41.271 117.013,41.495 C117.227,41.718 117.333,42.137 117.333,42.751 C117.333,43.365 117.230,43.784 117.023,44.007 ZM116.546,41.933 C116.417,41.791 116.184,41.720 115.846,41.720 C115.361,41.720 115.032,41.722 114.859,41.727 L114.859,43.782 L115.846,43.782 C116.188,43.778 116.423,43.705 116.549,43.565 C116.676,43.426 116.740,43.154 116.740,42.751 C116.740,42.348 116.675,42.076 116.546,41.933 Z" class="cls-2"/>
    <path d="M122.435,41.742 L120.728,41.742 L120.728,46.310 L120.054,46.310 L120.054,41.742 L118.354,41.742 L118.354,41.160 L122.435,41.160 L122.435,41.742 Z" class="cls-2"/>
    <g>
      <path d="M124.585,41.170 L128.520,41.170 L128.520,46.310 L124.585,46.310 L124.585,41.170 Z" class="cls-1"/>
      <path d="M128.087,45.746 C127.798,46.122 127.288,46.310 126.556,46.310 C125.824,46.310 125.313,46.122 125.021,45.746 C124.730,45.371 124.585,44.702 124.585,43.740 C124.585,42.778 124.730,42.109 125.021,41.733 C125.313,41.358 125.824,41.170 126.556,41.170 C127.288,41.170 127.798,41.358 128.087,41.733 C128.376,42.109 128.520,42.778 128.520,43.740 C128.520,44.702 128.376,45.371 128.087,45.746 ZM127.574,42.171 C127.387,41.882 127.047,41.737 126.556,41.737 C126.065,41.737 125.725,41.882 125.538,42.171 C125.350,42.461 125.256,42.984 125.256,43.740 C125.256,44.496 125.350,45.019 125.538,45.309 C125.725,45.598 126.065,45.743 126.556,45.743 C127.047,45.743 127.387,45.598 127.574,45.309 C127.762,45.019 127.856,44.496 127.856,43.740 C127.856,42.984 127.762,42.461 127.574,42.171 Z" class="cls-2"/>
    </g>
    <path d="M134.602,45.668 L134.680,46.144 C134.202,46.254 133.621,46.310 132.937,46.310 C132.080,46.310 131.476,46.117 131.125,45.733 C130.774,45.348 130.598,44.682 130.598,43.735 C130.598,42.787 130.774,42.122 131.125,41.737 C131.476,41.352 132.080,41.160 132.937,41.160 C133.552,41.160 134.093,41.208 134.559,41.304 L134.481,41.787 C133.964,41.744 133.449,41.723 132.937,41.723 C132.356,41.723 131.955,41.868 131.734,42.159 C131.512,42.450 131.402,42.975 131.402,43.735 C131.402,44.495 131.512,45.020 131.734,45.311 C131.955,45.602 132.356,45.747 132.937,45.747 C133.604,45.747 134.159,45.721 134.602,45.668 " class="cls-2"/>
    <g>
      <path d="M135.855,41.263 L139.625,41.263 L139.625,46.310 L135.855,46.310 L135.855,41.263 Z" class="cls-1"/>
      <path d="M139.625,41.263 L139.625,44.321 C139.625,45.044 139.485,45.556 139.205,45.858 C138.924,46.159 138.446,46.310 137.770,46.310 C137.069,46.310 136.575,46.159 136.287,45.858 C135.999,45.556 135.855,45.044 135.855,44.321 L135.855,41.263 L136.516,41.263 L136.516,44.321 C136.516,44.852 136.606,45.222 136.786,45.430 C136.967,45.638 137.284,45.743 137.740,45.743 C138.191,45.743 138.507,45.638 138.690,45.430 C138.873,45.222 138.964,44.852 138.964,44.321 L138.964,41.263 L139.625,41.263 Z" class="cls-2"/>
    </g>
    <path d="M144.628,43.938 L144.628,43.974 C144.785,44.009 144.927,44.089 145.057,44.214 C145.185,44.339 145.281,44.503 145.342,44.704 L145.905,46.310 L145.115,46.310 L144.603,44.719 C144.530,44.527 144.432,44.391 144.309,44.309 C144.185,44.228 144.026,44.188 143.830,44.188 C143.634,44.188 143.395,44.187 143.113,44.184 C142.829,44.182 142.643,44.181 142.553,44.181 L142.553,46.310 L141.823,46.310 L141.823,41.226 C142.293,41.182 142.960,41.160 143.822,41.160 C144.511,41.160 144.995,41.264 145.274,41.473 C145.555,41.682 145.695,42.066 145.695,42.626 C145.695,43.043 145.612,43.356 145.447,43.562 C145.282,43.768 145.009,43.893 144.628,43.938 ZM144.704,41.915 C144.541,41.785 144.242,41.720 143.805,41.720 C143.189,41.720 142.772,41.722 142.553,41.727 L142.553,43.628 L143.805,43.628 C144.242,43.623 144.541,43.554 144.704,43.421 C144.866,43.289 144.947,43.036 144.947,42.663 C144.947,42.294 144.866,42.045 144.704,41.915 Z" class="cls-2"/>
    <path d="M150.751,43.938 L150.751,43.974 C150.907,44.009 151.050,44.089 151.179,44.214 C151.308,44.339 151.403,44.503 151.464,44.704 L152.027,46.310 L151.238,46.310 L150.725,44.719 C150.653,44.527 150.554,44.391 150.431,44.309 C150.308,44.228 150.149,44.188 149.953,44.188 C149.757,44.188 149.517,44.187 149.235,44.184 C148.952,44.182 148.766,44.181 148.676,44.181 L148.676,46.310 L147.946,46.310 L147.946,41.226 C148.416,41.182 149.082,41.160 149.945,41.160 C150.633,41.160 151.117,41.264 151.397,41.473 C151.677,41.682 151.817,42.066 151.817,42.626 C151.817,43.043 151.734,43.356 151.569,43.562 C151.404,43.768 151.131,43.893 150.751,43.938 ZM150.826,41.915 C150.664,41.785 150.364,41.720 149.928,41.720 C149.311,41.720 148.895,41.722 148.676,41.727 L148.676,43.628 L149.928,43.628 C150.364,43.623 150.664,43.554 150.826,43.421 C150.989,43.289 151.070,43.036 151.070,42.663 C151.070,42.294 150.989,42.045 150.826,41.915 Z" class="cls-2"/>
    <path d="M157.100,45.759 L157.129,46.265 C156.691,46.295 155.987,46.310 155.017,46.310 C154.726,46.310 154.497,46.229 154.329,46.068 C154.160,45.907 154.073,45.689 154.068,45.417 L154.068,42.053 C154.073,41.780 154.160,41.563 154.329,41.402 C154.497,41.240 154.726,41.160 155.017,41.160 C155.987,41.160 156.691,41.175 157.129,41.205 L157.100,41.718 L155.124,41.718 C154.839,41.718 154.696,41.881 154.696,42.209 L154.696,43.325 L156.822,43.325 L156.822,43.854 L154.696,43.854 L154.696,45.260 C154.696,45.593 154.839,45.759 155.124,45.759 L157.100,45.759 Z" class="cls-2"/>
    <path d="M163.251,41.160 L163.251,46.049 C163.251,46.223 163.165,46.310 162.991,46.310 L162.329,46.310 C162.191,46.310 162.091,46.240 162.030,46.101 L160.238,42.451 C160.064,42.083 159.964,41.856 159.939,41.772 L159.816,41.772 C159.836,41.971 159.846,42.197 159.846,42.451 L159.846,46.310 L159.170,46.310 L159.170,41.421 C159.170,41.247 159.260,41.160 159.439,41.160 L160.077,41.160 C160.215,41.160 160.316,41.230 160.377,41.369 L162.114,44.929 C162.242,45.173 162.363,45.422 162.475,45.676 L162.606,45.676 C162.590,45.407 162.583,45.145 162.583,44.892 L162.583,41.160 L163.251,41.160 Z" class="cls-2"/>
    <path d="M169.296,45.668 L169.374,46.144 C168.897,46.254 168.315,46.310 167.631,46.310 C166.774,46.310 166.170,46.117 165.819,45.733 C165.468,45.348 165.292,44.682 165.292,43.735 C165.292,42.787 165.468,42.122 165.819,41.737 C166.170,41.352 166.774,41.160 167.631,41.160 C168.246,41.160 168.787,41.208 169.253,41.304 L169.175,41.787 C168.658,41.744 168.143,41.723 167.631,41.723 C167.050,41.723 166.648,41.868 166.427,42.159 C166.205,42.450 166.095,42.975 166.095,43.735 C166.095,44.495 166.205,45.020 166.427,45.311 C166.648,45.602 167.050,45.747 167.631,45.747 C168.298,45.747 168.853,45.721 169.296,45.668 " class="cls-2"/>
    <path d="M172.764,44.503 L172.764,46.310 L172.106,46.310 L172.106,44.496 L170.394,41.160 L171.097,41.160 L172.181,43.332 C172.241,43.451 172.318,43.645 172.413,43.914 L172.465,43.914 C172.545,43.695 172.622,43.503 172.697,43.339 L173.781,41.160 L174.476,41.160 L172.764,44.503 Z" class="cls-2"/>
    <path d="M183.660,41.160 L183.660,46.049 C183.660,46.223 183.573,46.310 183.398,46.310 L182.737,46.310 C182.599,46.310 182.499,46.240 182.438,46.101 L180.647,42.451 C180.473,42.083 180.372,41.856 180.347,41.772 L180.224,41.772 C180.244,41.971 180.254,42.197 180.254,42.451 L180.254,46.310 L179.578,46.310 L179.578,41.421 C179.578,41.247 179.667,41.160 179.847,41.160 L180.485,41.160 C180.624,41.160 180.723,41.230 180.785,41.369 L182.522,44.929 C182.650,45.173 182.771,45.422 182.883,45.676 L183.014,45.676 C182.998,45.407 182.991,45.145 182.991,44.892 L182.991,41.160 L183.660,41.160 Z" class="cls-2"/>
    <path d="M188.733,45.759 L188.762,46.265 C188.324,46.295 187.620,46.310 186.650,46.310 C186.360,46.310 186.130,46.229 185.961,46.068 C185.792,45.907 185.705,45.689 185.701,45.417 L185.701,42.053 C185.705,41.780 185.792,41.563 185.961,41.402 C186.130,41.240 186.360,41.160 186.650,41.160 C187.620,41.160 188.324,41.175 188.762,41.205 L188.733,41.718 L186.757,41.718 C186.471,41.718 186.328,41.881 186.328,42.209 L186.328,43.325 L188.455,43.325 L188.455,43.854 L186.328,43.854 L186.328,45.260 C186.328,45.593 186.471,45.759 186.757,45.759 L188.733,45.759 Z" class="cls-2"/>
    <path d="M197.945,41.160 L196.817,46.116 C196.779,46.245 196.685,46.310 196.534,46.310 L195.728,46.310 C195.572,46.310 195.481,46.243 195.454,46.108 L194.584,42.235 C194.551,42.105 194.508,41.911 194.455,41.652 L194.285,41.652 L194.165,42.235 L193.302,46.108 C193.264,46.243 193.170,46.310 193.020,46.310 L192.205,46.310 C192.136,46.310 192.075,46.291 192.024,46.254 C191.973,46.216 191.942,46.171 191.931,46.116 L190.803,41.160 L191.552,41.160 L192.423,45.175 C192.434,45.220 192.471,45.432 192.536,45.810 L192.721,45.810 C192.765,45.576 192.807,45.364 192.850,45.175 L193.713,41.376 C193.740,41.232 193.831,41.160 193.987,41.160 L194.761,41.160 C194.906,41.160 194.998,41.232 195.035,41.376 L195.898,45.175 C195.951,45.419 195.989,45.631 196.011,45.810 L196.212,45.810 C196.261,45.511 196.296,45.302 196.317,45.183 L197.196,41.160 L197.945,41.160 Z" class="cls-2"/>
    <path d="M200.843,44.117 L199.881,43.858 C199.554,43.771 199.319,43.616 199.178,43.392 C199.036,43.168 198.966,42.862 198.966,42.472 C198.966,42.184 198.994,41.952 199.050,41.776 C199.106,41.601 199.202,41.468 199.339,41.380 C199.476,41.291 199.628,41.232 199.797,41.203 C199.965,41.174 200.191,41.160 200.473,41.160 C201.020,41.169 201.480,41.218 201.852,41.304 L201.812,41.766 C201.377,41.742 200.940,41.730 200.500,41.730 C200.302,41.730 200.157,41.735 200.063,41.744 C199.968,41.754 199.876,41.783 199.786,41.830 C199.697,41.879 199.637,41.954 199.608,42.058 C199.579,42.161 199.565,42.304 199.565,42.487 C199.565,42.752 199.608,42.939 199.696,43.049 C199.783,43.160 199.935,43.244 200.150,43.302 L201.092,43.554 C201.437,43.646 201.679,43.802 201.818,44.023 C201.958,44.245 202.027,44.555 202.027,44.954 C202.027,45.502 201.912,45.865 201.680,46.043 C201.450,46.221 201.047,46.310 200.473,46.310 C199.984,46.310 199.504,46.264 199.033,46.173 L199.074,45.704 C199.827,45.733 200.300,45.745 200.493,45.740 C200.861,45.740 201.109,45.689 201.237,45.589 C201.364,45.487 201.428,45.271 201.428,44.939 C201.428,44.666 201.385,44.474 201.297,44.366 C201.210,44.258 201.058,44.175 200.843,44.117 " class="cls-2"/>
  </g>
</svg>
