<?xml version="1.0" encoding="UTF-8"?>
<svg width="179px" height="48px" viewBox="0 0 179 48" version="1.1" xmlns="http://www.w3.org/2000/svg" xmlns:xlink="http://www.w3.org/1999/xlink">
    <!-- Generator: Sketch 54.1 (76490) - https://sketchapp.com -->
    <title>Logo</title>
    <desc>Created with Sketch.</desc>
    <defs>
        <polygon id="path-1" points="0 0 48.1090565 0 48.1090565 47.9999657 0 47.9999657"></polygon>
        <linearGradient x1="96.3030947%" y1="63.1013676%" x2="30.476384%" y2="7.71551514%" id="linearGradient-3">
            <stop stop-color="#EEEEEE" stop-opacity="0" offset="0%"></stop>
            <stop stop-color="#E8E8E8" offset="69.697717%"></stop>
            <stop stop-color="#D8D8D8" offset="100%"></stop>
        </linearGradient>
    </defs>
    <g id="Page-1" stroke="none" stroke-width="1" fill="none" fill-rule="evenodd">
        <g id="letknow.com---1440---12-col" transform="translate(-60.000000, -22.000000)" fill="#00BEFF" fill-rule="nonzero">
            <g id="NAVIGATION">
                <g id="Logo-Copy-2" transform="translate(60.000000, 22.000000)">
                    <g id="Group-31" fill="none" fill-rule="evenodd">
                        <g id="PaperCanary">
                            <g id="Group-3">
                                <mask id="mask-2" fill="white">
                                    <use xlink:href="#path-1"></use>
                                </mask>
                                <g id="Clip-2"></g>
                                <path d="M48.1090565,23.9999657 C48.1090565,37.2548229 37.3394929,47.9999657 24.0545111,47.9999657 C10.7695293,47.9999657 -3.43636364e-05,37.2548229 -3.43636364e-05,23.9999657 C-3.43636364e-05,10.7451086 10.7695293,-3.42857143e-05 24.0545111,-3.42857143e-05 C37.3394929,-3.42857143e-05 48.1090565,10.7451086 48.1090565,23.9999657" id="Fill-1" fill="#0064AA" mask="url(#mask-2)"></path>
                            </g>
                            <path d="M41.2066391,16.9159886 L36.3991664,15.6871886 C36.0582791,15.6001029 35.6981482,15.6439886 35.38647,15.81096 L28.29897,19.6067314 L26.6106845,20.5108457 L26.2203136,19.7795314 C25.9378445,19.2018171 25.4227336,18.7794171 24.8103736,18.6227314 L8.83609364,14.27496 C8.43988091,14.1673029 8.03576455,14.4182743 7.94676273,14.8276457 L7.94573182,14.8331314 L7.74814091,15.7420457 L6.77393182,20.2235314 C6.72135545,20.4662743 6.91379182,20.6915314 7.15605545,20.67096 L12.2367191,20.2379314 L13.5177955,22.5556457 L18.0792245,30.8071886 C18.1603227,30.9539314 18.1898755,31.1250171 18.1623845,31.2916457 L17.5428082,35.0932457 L17.2483118,36.9007886 L17.1861136,37.2823886 C17.1606845,37.43736 17.3211627,37.5529029 17.4534627,37.4750743 L24.3852955,33.3995314 L30.8205736,29.6161029 C31.2862009,29.3425029 31.6353355,28.9015886 31.8006245,28.37976 L33.9249845,21.6655886 L35.5094918,20.7124457 L37.7482827,19.3660457 L40.87881,17.4830743 L40.87881,17.4830743 L41.2540609,17.2574743 C41.3939209,17.1731314 41.3640245,16.9561029 41.2066391,16.9159886" id="Fill-4" fill="#595F63" opacity="0.467122396"></path>
                            <path d="M25.4560664,19.9109486 C25.4560664,19.9109486 25.1588209,19.6246629 25.0509191,19.54032 C24.6904445,19.2602057 24.22035,19.1751771 23.7698427,19.2135771 L7.15571182,20.6710629 C6.91344818,20.6916343 6.72135545,20.4639771 6.77461909,20.21952 L7.94504455,14.8332343 C8.03507727,14.4204343 8.43919364,14.1670629 8.83575,14.2750629 L24.81003,18.6228343 C25.42239,18.7791771 25.9375009,19.20192 26.21997,19.7792914 L30.9724609,28.6880914 C31.02057,28.7789486 31.1487464,28.7765486 31.1937627,28.68432 L31.25115,28.5670629 C31.3762336,28.3112914 31.3927282,28.0136914 31.2975409,27.7448914 L28.2986264,19.6064914 L35.3857827,15.8110629 C35.6978045,15.6437486 36.0579355,15.5998629 36.3988227,15.6869486 L41.2062955,16.9160914 C41.3636809,16.9562057 41.3935773,17.1732343 41.2537173,17.2572343 L35.5091482,20.7125486 L36.3136009,16.42992 C36.3252845,16.3620343 36.2744264,16.2996343 36.2070736,16.2996343 L36.0087955,16.2996343 C35.7744355,16.2996343 35.5661918,16.4549486 35.4933409,16.6853486 L31.8016555,28.3750629 C31.6353355,28.8999771 31.2855136,29.3426057 30.82023,29.6162057 L17.4527755,37.4751771 C17.3208191,37.5530057 17.1603409,37.43712 17.18577,37.2824914 L18.1620409,31.2914057 C18.1895318,31.12512 18.1599791,30.9536914 18.0785373,30.8072914 L13.5174518,22.5557486 L25.4560664,19.9109486 Z" id="Fill-6" fill="#FFFFFF"></path>
                            <path d="M18.1611818,31.0491429 L31.0798473,28.7550857 C31.0410164,28.7544 31.0039036,28.7341714 30.9798491,28.6974857 L13.51728,22.5569143 L18.0787091,30.8081143 C18.1202891,30.8835429 18.1470927,30.9651429 18.1611818,31.0491429" id="Fill-8" fill="#D8D8D8" opacity="0.299553571"></path>
                            <polygon id="Clip-12" fill="url(#linearGradient-3)" points="30.0527182 28.3632 13.5770727 22.5696 13.5416782 22.5562286 24.87996 20.0444571 25.4799491 19.9114286"></polygon>
                        </g>
                        <path d="M131.017343,20.0406171 L126.652817,20.0406171 L123.854243,20.0406171 C123.706136,20.0406171 123.585863,20.1606171 123.585863,20.3083886 L123.585863,22.7810743 L123.585863,33.6160457 C123.585863,33.76416 123.706136,33.8838171 123.854243,33.8838171 L126.384094,33.8838171 C126.532545,33.8838171 126.652817,33.76416 126.652817,33.6160457 L126.652817,23.0488457 C126.652817,22.9010743 126.77309,22.7810743 126.921541,22.7810743 L130.409107,22.7810743 C132.260619,22.7810743 133.64891,23.8477029 133.64891,26.0975314 L133.64891,33.6160457 C133.64891,33.76416 133.769183,33.8838171 133.91729,33.8838171 L136.475663,33.8838171 C136.62377,33.8838171 136.744387,33.76416 136.744387,33.6160457 L136.744387,25.6939886 C136.744387,22.40496 134.515561,20.0406171 131.017343,20.0406171 M104.474939,33.7028571 L104.474939,13.8857143 C104.474939,13.7910857 104.551913,13.7142857 104.646757,13.7142857 L107.593783,13.7142857 C107.68897,13.7142857 107.765601,13.7910857 107.765601,13.8857143 L107.765601,21.9524571 C107.765601,22.0470857 107.842575,22.1238857 107.937419,22.1238857 L111.657283,22.1238857 C111.71467,22.1238857 111.768277,22.0954286 111.799892,22.0477714 L117.326595,13.7907429 C117.358553,13.7430857 117.412161,13.7142857 117.469548,13.7142857 L120.776704,13.7142857 C120.914503,13.7142857 120.996288,13.8682286 120.91897,13.9820571 L114.471321,23.4377143 C114.431459,23.4963429 114.431803,23.5738286 114.472352,23.6321143 L121.433393,33.6048 C121.51243,33.7186286 121.430988,33.8742857 121.292159,33.8742857 L117.987408,33.8742857 C117.931052,33.8742857 117.878475,33.8468571 117.846517,33.8009143 L111.857966,25.2216 C111.826008,25.1753143 111.773088,25.1478857 111.717075,25.1478857 L107.937419,25.1478857 C107.842575,25.1478857 107.765601,25.2246857 107.765601,25.3193143 L107.765601,33.7028571 C107.765601,33.7974857 107.68897,33.8742857 107.593783,33.8742857 L104.646757,33.8742857 C104.551913,33.8742857 104.474939,33.7974857 104.474939,33.7028571 M147.137875,22.4983886 C144.53964,22.4983886 142.749982,24.2551886 142.749982,26.9623886 C142.749982,29.6695886 144.53964,31.4263886 147.137875,31.4263886 C149.7069,31.4263886 151.496558,29.6695886 151.496558,26.9623886 C151.496558,24.2551886 149.7069,22.4983886 147.137875,22.4983886 M147.137875,19.6759886 C151.034711,19.6759886 154.642893,22.1815886 154.642893,26.9623886 C154.642893,31.7431886 151.034711,34.2484457 147.137875,34.2484457 C143.269904,34.2484457 139.632856,31.7431886 139.632856,26.9623886 C139.632856,22.1815886 143.269904,19.6759886 147.137875,19.6759886 M178.179922,20.27568 L173.704402,33.7568229 C173.681035,33.8267657 173.6154,33.8744229 173.541175,33.8744229 L170.469753,33.8744229 C170.395871,33.8744229 170.329893,33.8267657 170.306869,33.7568229 L167.218265,24.4581943 C167.166033,24.3015086 166.944044,24.3015086 166.891811,24.4581943 L163.803895,33.7568229 C163.780527,33.8267657 163.714549,33.8744229 163.640667,33.8744229 L160.597767,33.8744229 C160.523885,33.8744229 160.458251,33.8271086 160.434884,33.7571657 L155.930498,20.2760229 C155.893385,20.1649371 155.976545,20.0504229 156.093725,20.0504229 L158.989205,20.0504229 C159.065149,20.0504229 159.132158,20.1001371 159.153807,20.1728229 L162.076778,29.9744229 C162.124887,30.1359086 162.353062,30.1386514 162.404951,29.9781943 L165.573622,20.1690514 C165.596645,20.0984229 165.662624,20.0504229 165.737193,20.0504229 L168.373571,20.0504229 C168.44814,20.0504229 168.514118,20.09808 168.536798,20.1687086 L171.733304,29.9785371 C171.785536,30.1386514 172.013711,30.1355657 172.061476,29.97408 L174.956956,20.1735086 C174.978605,20.10048 175.045615,20.0504229 175.121902,20.0504229 L178.016695,20.0504229 C178.133875,20.0504229 178.216691,20.1649371 178.179922,20.27568" id="Fill-17" fill="#00BEFF"></path>
                        <path d="M63.4288811,13.8857143 L63.4288811,30.6500571 C63.4288811,30.7446857 63.5058556,30.8214857 63.6006993,30.8214857 L73.8795502,30.8214857 C73.9743938,30.8214857 74.0513684,30.8982857 74.0513684,30.9929143 L74.0513684,33.7028571 C74.0513684,33.7974857 73.9743938,33.8742857 73.8795502,33.8742857 L60.3100375,33.8742857 C60.2151938,33.8742857 60.1382193,33.7974857 60.1382193,33.7028571 L60.1382193,13.8857143 C60.1382193,13.7910857 60.2151938,13.7142857 60.3100375,13.7142857 L63.2570629,13.7142857 C63.3519065,13.7142857 63.4288811,13.7910857 63.4288811,13.8857143 M82.4224876,22.2390171 C80.4005313,22.2390171 78.5696367,23.4115886 78.3658604,25.6237029 C78.3565822,25.7234743 78.4387113,25.8102171 78.5390531,25.8102171 L85.8750022,25.8102171 C85.9633167,25.8102171 86.0406349,25.7450743 86.047164,25.65696 C86.1392585,24.4123886 85.3299949,22.2390171 82.4224876,22.2390171 M82.2781604,19.6758171 C87.7282331,19.6758171 89.6525967,24.0098743 88.8316495,27.9763886 C88.8151549,28.0566171 88.7429913,28.1142171 88.6605185,28.1142171 L78.5864749,28.1142171 C78.479604,28.1142171 78.3950695,28.2126171 78.4150004,28.3175314 C78.8627585,30.6479314 81.2231967,31.6278171 83.6925676,31.6278171 C85.2554258,31.6278171 86.6921695,31.2767314 87.8392276,30.7614171 C87.9533149,30.7103314 88.0804604,30.7909029 88.0804604,30.9160457 L88.0804604,33.1871314 C88.0804604,33.2546743 88.0423167,33.3167314 87.9808058,33.3448457 C86.7189731,33.9208457 84.9994167,34.2486171 83.1156022,34.2486171 C78.8723804,34.2486171 75.2641985,31.8294171 75.2641985,26.9622171 C75.2641985,21.9510171 79.0744385,19.6758171 82.2781604,19.6758171 M96.0176013,15.6544114 L96.0176013,19.8787543 C96.0176013,19.9737257 96.0945758,20.0501829 96.1894195,20.0501829 L100.693805,20.0501829 C100.83607,20.0501829 100.916825,20.2126971 100.830572,20.3254971 L99.0302613,22.68984 C98.9976158,22.7326971 98.9467576,22.7573829 98.8931504,22.7573829 L96.1894195,22.7573829 C96.0945758,22.7573829 96.0176013,22.8341829 96.0176013,22.9288114 L96.0176013,29.0933829 C96.0176013,30.9077829 96.8550431,31.5125829 98.6447013,31.5125829 C99.5653031,31.5125829 100.414429,31.3452686 101.213383,31.05384 C101.326096,31.0126971 101.444307,31.0925829 101.444307,31.21224 L101.444307,33.4918971 C101.444307,33.5656114 101.39929,33.6317829 101.329532,33.65544 C100.308245,34.00584 99.0278558,34.2197829 97.7206631,34.2197829 C95.0365195,34.2197829 92.9582067,32.8949829 92.9582067,29.6693829 L92.9582067,22.9288114 C92.9582067,22.8341829 92.8812322,22.7573829 92.7863885,22.7573829 L90.8121976,22.7573829 C90.671994,22.7573829 90.5908958,22.5989829 90.6730249,22.4854971 L95.7066104,15.5539543 C95.8042031,15.4192114 96.0176013,15.4881257 96.0176013,15.6544114" id="Fill-19" fill="#0064AA"></path>
                    </g>
                </g>
            </g>
        </g>
    </g>
</svg>