<svg xmlns="http://www.w3.org/2000/svg" xmlns:xlink="http://www.w3.org/1999/xlink" preserveAspectRatio="xMidYMid" width="72" height="72" viewBox="0 0 72 72">
  <defs>
    <style>
      .cls-1 {
        fill: #d8d8d8;
        opacity: 0.15;
      }

      .cls-2 {
        fill: #000;
        fill-opacity: 0;
      }

      .cls-3 {
        fill: #b6c0c6;
        fill-opacity: 0.3;
      }

      .cls-3, .cls-4, .cls-5, .cls-6, .cls-7, .cls-9 {
        fill-rule: evenodd;
      }

      .cls-4 {
        fill: #002864;
      }

      .cls-5 {
        fill: #0064aa;
      }

      .cls-6 {
        fill: #ffbe1b;
      }

      .cls-7 {
        fill: #f7fcff;
        fill-opacity: 0.98;
      }

      .cls-8 {
        fill: #5000aa;
      }

      .cls-9 {
        fill: #fff;
      }
    </style>
  </defs>
  <g>
    <rect width="72" height="72" rx="25.6" ry="25.6" class="cls-1"/>
    <g>
      <g>
        <circle cx="36" cy="36" r="31.75" class="cls-2"/>
        <path d="M62.813,51.473 C61.235,51.078 60.004,49.846 59.609,48.269 L59.541,48.000 L59.473,48.269 C59.078,49.847 57.846,51.078 56.268,51.473 L56.000,51.541 L56.268,51.608 C57.846,52.003 59.078,53.235 59.473,54.813 L59.541,55.082 L59.609,54.813 C60.004,53.235 61.235,52.003 62.813,51.608 L63.082,51.541 L62.813,51.473 Z" class="cls-3"/>
        <path d="M21.163,48.995 C19.101,48.479 17.491,46.869 16.975,44.807 L16.886,44.456 L16.797,44.807 C16.281,46.869 14.671,48.479 12.608,48.995 L12.257,49.084 L12.608,49.172 C14.671,49.689 16.281,51.299 16.797,53.361 L16.886,53.713 L16.975,53.361 C17.491,51.299 19.101,49.689 21.163,49.172 L21.515,49.084 L21.163,48.995 Z" class="cls-4"/>
        <path d="M20.563,24.412 C18.805,23.972 17.434,22.600 16.994,20.843 L16.919,20.544 L16.843,20.843 C16.403,22.600 15.032,23.972 13.274,24.412 L12.975,24.487 L13.274,24.562 C15.032,25.003 16.403,26.374 16.843,28.131 L16.919,28.431 L16.994,28.131 C17.434,26.374 18.805,25.003 20.563,24.562 L20.863,24.487 L20.563,24.412 Z" class="cls-3"/>
        <path d="M22.400,16.950 C21.180,16.645 20.227,15.692 19.922,14.472 L19.869,14.264 L19.817,14.472 C19.511,15.692 18.559,16.645 17.338,16.950 L17.130,17.003 L17.338,17.055 C18.559,17.361 19.511,18.313 19.817,19.534 L19.869,19.742 L19.922,19.534 C20.227,18.313 21.180,17.361 22.400,17.055 L22.609,17.003 L22.400,16.950 Z" class="cls-3"/>
        <path d="M37.498,24.987 L47.462,24.987 L47.462,17.859 C47.462,16.303 46.200,15.041 44.643,15.041 L27.357,15.041 C25.800,15.041 24.537,16.303 24.537,17.859 L24.537,53.401 C24.537,54.958 25.800,56.220 27.357,56.220 L44.643,56.220 C46.200,56.220 47.462,54.958 47.462,53.401 L47.462,41.195 L45.246,41.195 L40.171,46.183 L40.171,41.195 L37.498,41.195 C35.457,41.195 33.802,39.539 33.802,37.498 L33.802,28.684 C33.802,26.643 35.457,24.987 37.498,24.987 Z" class="cls-5"/>
        <path d="M57.909,24.987 L37.498,24.987 C35.457,24.987 33.802,26.643 33.802,28.684 L33.802,37.498 C33.802,39.539 35.457,41.195 37.498,41.195 L40.171,41.195 L40.171,46.183 L45.246,41.195 L57.909,41.195 C59.950,41.195 61.606,39.539 61.606,37.498 L61.606,28.684 C61.606,26.643 59.950,24.987 57.909,24.987 Z" class="cls-6"/>
        <path d="M38.300,51.802 L33.699,51.802 C33.261,51.802 32.906,52.158 32.906,52.596 L32.906,54.201 C32.906,54.639 33.261,54.995 33.699,54.995 L38.300,54.995 C38.739,54.995 39.094,54.639 39.094,54.201 L39.094,52.596 C39.094,52.158 38.739,51.802 38.300,51.802 Z" class="cls-4"/>
        <path d="M38.658,15.880 L33.342,15.880 C33.188,15.880 33.063,16.006 33.063,16.160 L33.063,16.724 C33.063,16.878 33.188,17.003 33.342,17.003 L38.658,17.003 C38.812,17.003 38.937,16.878 38.937,16.724 L38.937,16.160 C38.937,16.005 38.812,15.880 38.658,15.880 Z" class="cls-4"/>
        <path d="M37.498,24.987 L45.842,24.987 L45.842,20.731 C45.842,19.175 44.580,17.913 43.023,17.913 L28.977,17.913 C27.420,17.913 26.158,19.175 26.158,20.731 L26.158,48.100 C26.158,49.657 27.420,50.920 28.977,50.920 L43.023,50.920 C44.580,50.920 45.842,49.657 45.842,48.100 L45.842,41.195 L45.246,41.195 L40.171,46.183 L40.171,41.195 L37.498,41.195 C35.457,41.195 33.802,39.539 33.802,37.498 L33.802,28.684 C33.802,26.643 35.457,24.987 37.498,24.987 Z" class="cls-7"/>
      </g>
      <circle cx="39.63" cy="33.13" r="2" class="cls-8"/>
      <circle cx="47.735" cy="33.13" r="1.985" class="cls-8"/>
      <circle cx="55.86" cy="33.13" r="1.98" class="cls-8"/>
      <g>
        <path d="M29.800,44.122 L21.737,40.366 C21.572,40.289 21.398,40.251 21.218,40.251 C21.039,40.251 20.865,40.289 20.701,40.366 L12.637,44.122 C12.169,44.340 11.878,44.849 11.912,45.389 C12.058,47.658 12.589,51.941 14.515,55.140 C16.911,59.119 19.814,60.189 20.951,60.464 C21.126,60.506 21.311,60.507 21.487,60.464 C22.623,60.189 25.526,59.119 27.922,55.140 C29.847,51.941 30.379,47.658 30.525,45.389 C30.559,44.849 30.268,44.340 29.800,44.122 Z" class="cls-5"/>
        <path d="M25.789,46.631 C25.329,46.247 24.643,46.305 24.257,46.764 L20.823,50.833 L19.420,49.480 C18.988,49.065 18.299,49.076 17.881,49.506 C17.464,49.936 17.476,50.622 17.907,51.038 L20.148,53.198 C20.352,53.394 20.623,53.504 20.904,53.504 C20.923,53.504 20.942,53.503 20.960,53.502 C21.262,53.486 21.543,53.347 21.737,53.117 L25.921,48.158 C26.308,47.700 26.249,47.017 25.789,46.631 Z" class="cls-9"/>
        <path d="M28.912,55.732 C26.292,60.085 23.037,61.274 21.759,61.583 C21.581,61.626 21.400,61.648 21.218,61.648 C21.037,61.648 20.856,61.626 20.679,61.584 C19.400,61.274 16.145,60.085 13.525,55.732 C11.473,52.324 10.911,47.835 10.759,45.462 C10.695,44.453 11.253,43.496 12.148,43.078 L20.211,39.323 C20.847,39.026 21.589,39.026 22.226,39.323 L30.289,43.078 C31.184,43.496 31.742,44.453 31.678,45.462 C31.526,47.835 30.964,52.325 28.912,55.732 ZM29.800,44.122 L21.737,40.366 C21.572,40.289 21.398,40.250 21.218,40.250 C21.039,40.250 20.865,40.289 20.701,40.366 L12.637,44.122 C12.169,44.340 11.878,44.849 11.912,45.389 C12.058,47.658 12.589,51.941 14.515,55.140 C16.911,59.119 19.814,60.189 20.951,60.464 C21.126,60.506 21.311,60.507 21.487,60.464 C22.623,60.189 25.526,59.119 27.922,55.140 C29.847,51.941 30.379,47.658 30.525,45.389 C30.559,44.849 30.268,44.340 29.800,44.122 Z" class="cls-4"/>
      </g>
    </g>
  </g>
</svg>
