<svg xmlns="http://www.w3.org/2000/svg" xmlns:xlink="http://www.w3.org/1999/xlink" preserveAspectRatio="xMidYMid" width="13" height="13" viewBox="0 0 13 13">
  <defs>
    <style>
      .cls-1 {
        fill: #d24a43;
        filter: url(#inner-shadow-1);
        fill-rule: evenodd;
      }
    </style>

    <filter id="inner-shadow-1" filterUnits="userSpaceOnUse">
      <feOffset dy="1" in="SourceAlpha"/>
      <feGaussianBlur stdDeviation="1" result="innerShadowBlur"/>
      <feFlood flood-opacity="0.25"/>
      <feComposite operator="out" in2="innerShadowBlur"/>
      <feComposite operator="in" in2="SourceAlpha"/>
      <feBlend in2="SourceGraphic" result="innerShadow"/>
    </filter>
  </defs>
  <path d="M13.000,7.062 L13.000,5.938 L11.162,5.938 C11.057,5.059 10.717,4.261 10.197,3.599 L11.494,2.301 L10.699,1.506 L9.401,2.804 C8.739,2.283 7.941,1.943 7.062,1.838 L7.062,-0.000 L5.938,-0.000 L5.938,1.838 C5.059,1.943 4.260,2.283 3.598,2.804 L2.301,1.506 L1.506,2.301 L2.803,3.599 C2.283,4.261 1.943,5.059 1.837,5.938 L-0.000,5.938 L-0.000,7.062 L1.837,7.062 C1.943,7.941 2.283,8.739 2.803,9.401 L1.506,10.698 L2.301,11.493 L3.598,10.196 C4.260,10.717 5.059,11.057 5.938,11.162 L5.938,13.000 L7.062,13.000 L7.062,11.162 C7.941,11.057 8.739,10.717 9.401,10.196 L10.699,11.493 L11.494,10.698 L10.197,9.401 C10.717,8.739 11.057,7.941 11.162,7.062 L13.000,7.062 Z" class="cls-1"/>
</svg>
