<?xml version="1.0" encoding="utf-8"?>
<!-- Generator: Adobe Illustrator 17.0.0, SVG Export Plug-In . SVG Version: 6.00 Build 0)  -->
<!DOCTYPE svg PUBLIC "-//W3C//DTD SVG 1.1//EN" "http://www.w3.org/Graphics/SVG/1.1/DTD/svg11.dtd">
<svg version="1.1" xmlns="http://www.w3.org/2000/svg" xmlns:xlink="http://www.w3.org/1999/xlink" x="0px" y="0px" width="799.4px"
	 height="302.435px" viewBox="0 0 799.4 302.435" enable-background="new 0 0 799.4 302.435" xml:space="preserve">
<g id="Page_3">
	<g>
		<g>
			<path fill="#282828" d="M-1471.943,3802.017c-41.014,0-74.38-33.366-74.38-74.38s33.366-74.38,74.38-74.38
				s74.38,33.366,74.38,74.38S-1430.929,3802.017-1471.943,3802.017z M-1471.943,3685.257c-23.368,0-42.38,19.012-42.38,42.38
				s19.012,42.38,42.38,42.38s42.38-19.012,42.38-42.38S-1448.575,3685.257-1471.943,3685.257z"/>
		</g>
		<g>
			<path fill="#282828" d="M-1359.171,3801.971c-2.383,0-4.759-0.465-7.051-1.414c-7.485-3.101-11.954-10.49-11.954-19.768v-127.76
				h32v99.133l24.982-24.982c4.887-4.888,11.37-7.572,18.272-7.572c0.067,0,0.133,0,0.199,0.001
				c6.979,0.052,13.498,2.839,18.358,7.847l23.167,23.873v-98.299h32v127.76c0,9.331-4.498,16.726-12.032,19.781
				c-7.538,3.056-15.914,0.883-22.413-5.813l-39.339-40.537l-40.811,40.811C-1348.342,3799.583-1353.773,3801.971-1359.171,3801.971
				z"/>
		</g>
		<g>
			<path fill="#D24A43" d="M-1826.395,3711.545h-12.771v-58.266h-32v148.532h32v-58.266h12.771c1.404,0.06,4.723,1.435,5.785,2.412
				l51.866,51.867c5.833,5.834,15.379,5.834,21.213,0l12.021-12.021l-62.5-62.5
				C-1804.934,3716.379-1816.605,3711.545-1826.395,3711.545z"/>
			<path fill="#D24A43" d="M-1772.005,3705.782l36.499-36.5l-12.02-12.02c-5.834-5.833-15.38-5.833-21.213,0l-36.499,36.499
				l12.02,12.021C-1787.384,3711.615-1777.838,3711.615-1772.005,3705.782z"/>
		</g>
		<g>
			<path fill="#282828" d="M-1584.586,3802.387c-5.497,0-11.003-2.502-15.567-7.253l-87.513-91.1v97.773h-32v-127.524
				c0-9.35,4.509-16.747,12.061-19.787c7.55-3.04,15.927-0.83,22.405,5.913l87.514,91.101v-98.228h32v127.979
				c0,9.351-4.509,16.747-12.061,19.787C-1579.979,3801.947-1582.281,3802.387-1584.586,3802.387z"/>
		</g>
		<g>
			<path fill="#282828" d="M-1849.016,3862.846l0.414,3.036c-2.546,0.705-5.643,1.058-9.292,1.058c-4.569,0-7.789-1.226-9.66-3.68
				c-1.87-2.453-2.806-6.7-2.806-12.742c0-6.041,0.936-10.288,2.806-12.742c1.871-2.453,5.091-3.68,9.66-3.68
				c3.281,0,6.164,0.307,8.648,0.92l-0.414,3.082c-2.76-0.276-5.505-0.414-8.234-0.414c-3.098,0-5.236,0.928-6.417,2.783
				s-1.771,5.206-1.771,10.051c0,4.846,0.59,8.196,1.771,10.051c1.181,1.856,3.319,2.783,6.417,2.783
				C-1854.337,3863.352-1851.378,3863.184-1849.016,3862.846z"/>
			<path fill="#282828" d="M-1813.918,3866.388h-4.324l-2.807-9.936c-0.398-1.196-0.936-2.048-1.609-2.554
				c-0.675-0.506-1.549-0.759-2.622-0.759c-1.074,0-2.385-0.007-3.934-0.023c-1.549-0.015-2.568-0.022-3.059-0.022v13.294h-4.002
				v-31.74c2.576-0.275,6.225-0.414,10.948-0.414c3.771,0,6.424,0.652,7.958,1.955c1.533,1.304,2.3,3.703,2.3,7.199
				c0,2.606-0.453,4.554-1.357,5.842s-2.399,2.07-4.484,2.347v0.229c0.858,0.215,1.64,0.713,2.346,1.495
				c0.705,0.782,1.227,1.802,1.564,3.059L-1813.918,3866.388z M-1832.272,3849.644h6.854c2.392-0.03,4.032-0.46,4.922-1.288
				c0.889-0.828,1.334-2.407,1.334-4.737c0-2.301-0.445-3.856-1.334-4.67c-0.89-0.812-2.53-1.219-4.922-1.219
				c-3.374,0-5.658,0.016-6.854,0.046V3849.644z"/>
			<path fill="#282828" d="M-1790.596,3855.256v11.132h-4.048v-11.178l-10.534-20.563h4.324l6.67,13.387
				c0.368,0.735,0.843,1.932,1.426,3.588h0.322c0.49-1.35,0.966-2.53,1.426-3.542l6.67-13.433h4.278L-1790.596,3855.256z"/>
			<path fill="#282828" d="M-1768.839,3866.388v-31.74c2.576-0.275,6.21-0.414,10.902-0.414c3.863,0,6.531,0.698,8.004,2.094
				c1.472,1.396,2.208,4.01,2.208,7.843c0,3.834-0.713,6.447-2.14,7.843c-1.426,1.396-3.964,2.093-7.612,2.093
				c-2.516,0-4.953-0.138-7.314-0.414v12.696H-1768.839z M-1764.791,3850.61h6.809c2.36-0.03,3.979-0.482,4.853-1.356
				s1.312-2.568,1.312-5.083s-0.445-4.217-1.334-5.106c-0.891-0.889-2.5-1.334-4.83-1.334c-3.344,0-5.612,0.016-6.809,0.046V3850.61
				z"/>
			<path fill="#282828" d="M-1713.41,3838.236h-10.258v28.152h-4.048v-28.152h-10.213v-3.588h24.519V3838.236z"/>
			<path fill="#282828" d="M-1700.691,3837.662c1.855-2.407,5.113-3.611,9.775-3.611c4.661,0,7.912,1.204,9.752,3.611
				s2.76,6.692,2.76,12.856s-0.92,10.45-2.76,12.857s-5.091,3.61-9.752,3.61c-4.662,0-7.92-1.203-9.775-3.61
				s-2.783-6.693-2.783-12.857S-1702.547,3840.069-1700.691,3837.662z M-1684.43,3840.467c-1.195-1.855-3.357-2.783-6.485-2.783
				s-5.29,0.928-6.486,2.783s-1.794,5.206-1.794,10.051c0,4.846,0.598,8.196,1.794,10.051c1.196,1.856,3.358,2.783,6.486,2.783
				s5.29-0.927,6.485-2.783c1.196-1.854,1.794-5.205,1.794-10.051C-1682.636,3845.673-1683.234,3842.323-1684.43,3840.467z"/>
			<path fill="#282828" d="M-1644.732,3862.846l0.414,3.036c-2.546,0.705-5.644,1.058-9.292,1.058c-4.57,0-7.79-1.226-9.66-3.68
				c-1.871-2.453-2.807-6.7-2.807-12.742c0-6.041,0.936-10.288,2.807-12.742c1.87-2.453,5.09-3.68,9.66-3.68
				c3.28,0,6.163,0.307,8.647,0.92l-0.414,3.082c-2.76-0.276-5.505-0.414-8.233-0.414c-3.099,0-5.237,0.928-6.417,2.783
				c-1.182,1.855-1.771,5.206-1.771,10.051c0,4.846,0.59,8.196,1.771,10.051c1.18,1.856,3.318,2.783,6.417,2.783
				C-1650.053,3863.352-1647.094,3863.184-1644.732,3862.846z"/>
			<path fill="#282828" d="M-1609.128,3834.648v19.597c0,4.631-0.859,7.911-2.576,9.844c-1.718,1.932-4.646,2.897-8.786,2.897
				c-4.294,0-7.322-0.966-9.085-2.897c-1.764-1.933-2.645-5.213-2.645-9.844v-19.597h4.048v19.597c0,3.403,0.552,5.772,1.655,7.106
				c1.104,1.334,3.052,2.001,5.843,2.001c2.76,0,4.699-0.667,5.818-2.001s1.68-3.703,1.68-7.106v-19.597H-1609.128z"/>
			<path fill="#282828" d="M-1572.328,3866.388h-4.324l-2.807-9.936c-0.398-1.196-0.936-2.048-1.609-2.554
				c-0.675-0.506-1.549-0.759-2.622-0.759c-1.074,0-2.385-0.007-3.933-0.023c-1.55-0.015-2.569-0.022-3.06-0.022v13.294h-4.002
				v-31.74c2.576-0.275,6.226-0.414,10.948-0.414c3.771,0,6.424,0.652,7.958,1.955c1.533,1.304,2.3,3.703,2.3,7.199
				c0,2.606-0.453,4.554-1.357,5.842s-2.399,2.07-4.484,2.347v0.229c0.858,0.215,1.64,0.713,2.346,1.495
				c0.705,0.782,1.227,1.802,1.564,3.059L-1572.328,3866.388z M-1590.682,3849.644h6.854c2.392-0.03,4.032-0.46,4.922-1.288
				c0.889-0.828,1.334-2.407,1.334-4.737c0-2.301-0.445-3.856-1.334-4.67c-0.89-0.812-2.53-1.219-4.922-1.219
				c-3.374,0-5.658,0.016-6.854,0.046V3849.644z"/>
			<path fill="#282828" d="M-1537.23,3866.388h-4.324l-2.807-9.936c-0.398-1.196-0.936-2.048-1.609-2.554
				c-0.675-0.506-1.549-0.759-2.622-0.759c-1.074,0-2.385-0.007-3.933-0.023c-1.55-0.015-2.569-0.022-3.06-0.022v13.294h-4.002
				v-31.74c2.576-0.275,6.226-0.414,10.948-0.414c3.771,0,6.424,0.652,7.958,1.955c1.533,1.304,2.3,3.703,2.3,7.199
				c0,2.606-0.453,4.554-1.357,5.842s-2.399,2.07-4.484,2.347v0.229c0.858,0.215,1.64,0.713,2.346,1.495
				c0.705,0.782,1.227,1.802,1.564,3.059L-1537.23,3866.388z M-1555.585,3849.644h6.854c2.392-0.03,4.032-0.46,4.922-1.288
				c0.889-0.828,1.334-2.407,1.334-4.737c0-2.301-0.445-3.856-1.334-4.67c-0.89-0.812-2.53-1.219-4.922-1.219
				c-3.374,0-5.658,0.016-6.854,0.046V3849.644z"/>
			<path fill="#282828" d="M-1505.215,3863.03l0.184,3.128c-2.821,0.185-7.36,0.276-13.616,0.276c-1.871,0-3.351-0.498-4.438-1.495
				c-1.089-0.996-1.649-2.338-1.68-4.024v-20.792c0.03-1.687,0.591-3.028,1.68-4.025c1.088-0.996,2.567-1.495,4.438-1.495
				c6.256,0,10.795,0.092,13.616,0.276l-0.184,3.174h-12.742c-1.84,0-2.76,1.012-2.76,3.036v6.899h13.708v3.267h-13.708v8.693
				c0,2.056,0.92,3.082,2.76,3.082H-1505.215z"/>
			<path fill="#282828" d="M-1467.634,3834.648v30.13c0,1.074-0.521,1.61-1.563,1.61h-3.956c-0.828,0-1.426-0.429-1.794-1.288
				l-10.718-22.494c-1.043-2.269-1.642-3.664-1.795-4.186h-0.735c0.122,1.227,0.184,2.622,0.184,4.186v23.782h-4.048v-30.13
				c0-1.073,0.536-1.61,1.61-1.61h3.817c0.828,0,1.427,0.43,1.794,1.288l10.396,21.942c0.766,1.503,1.487,3.036,2.162,4.6h0.782
				c-0.093-1.656-0.139-3.266-0.139-4.83v-23H-1467.634z"/>
			<path fill="#282828" d="M-1432.811,3862.846l0.414,3.036c-2.546,0.705-5.644,1.058-9.292,1.058c-4.57,0-7.79-1.226-9.66-3.68
				c-1.871-2.453-2.807-6.7-2.807-12.742c0-6.041,0.936-10.288,2.807-12.742c1.87-2.453,5.09-3.68,9.66-3.68
				c3.28,0,6.163,0.307,8.647,0.92l-0.414,3.082c-2.76-0.276-5.505-0.414-8.233-0.414c-3.099,0-5.237,0.928-6.417,2.783
				c-1.182,1.855-1.771,5.206-1.771,10.051c0,4.846,0.59,8.196,1.771,10.051c1.18,1.856,3.318,2.783,6.417,2.783
				C-1438.133,3863.352-1435.174,3863.184-1432.811,3862.846z"/>
			<path fill="#282828" d="M-1408.984,3855.256v11.132h-4.048v-11.178l-10.534-20.563h4.324l6.67,13.387
				c0.368,0.735,0.843,1.932,1.426,3.588h0.322c0.49-1.35,0.966-2.53,1.426-3.542l6.67-13.433h4.278L-1408.984,3855.256z"/>
			<path fill="#282828" d="M-1347.115,3834.648v30.13c0,1.074-0.521,1.61-1.563,1.61h-3.956c-0.828,0-1.426-0.429-1.794-1.288
				l-10.718-22.494c-1.043-2.269-1.642-3.664-1.795-4.186h-0.735c0.122,1.227,0.184,2.622,0.184,4.186v23.782h-4.048v-30.13
				c0-1.073,0.536-1.61,1.61-1.61h3.817c0.828,0,1.427,0.43,1.794,1.288l10.396,21.942c0.766,1.503,1.487,3.036,2.162,4.6h0.782
				c-0.093-1.656-0.139-3.266-0.139-4.83v-23H-1347.115z"/>
			<path fill="#282828" d="M-1313.167,3863.03l0.184,3.128c-2.821,0.185-7.36,0.276-13.616,0.276c-1.871,0-3.351-0.498-4.438-1.495
				c-1.089-0.996-1.649-2.338-1.68-4.024v-20.792c0.03-1.687,0.591-3.028,1.68-4.025c1.088-0.996,2.567-1.495,4.438-1.495
				c6.256,0,10.795,0.092,13.616,0.276l-0.184,3.174h-12.742c-1.84,0-2.76,1.012-2.76,3.036v6.899h13.708v3.267h-13.708v8.693
				c0,2.056,0.92,3.082,2.76,3.082H-1313.167z"/>
			<path fill="#282828" d="M-1261.832,3834.648l-6.439,30.544c-0.215,0.798-0.752,1.196-1.61,1.196h-4.6
				c-0.89,0-1.411-0.414-1.564-1.242l-4.968-23.874c-0.184-0.797-0.43-1.993-0.736-3.588h-0.966l-0.689,3.588l-4.923,23.874
				c-0.215,0.828-0.751,1.242-1.609,1.242h-4.646c-0.398,0-0.743-0.115-1.035-0.345c-0.291-0.23-0.468-0.514-0.528-0.852
				l-6.44-30.544h4.278l4.968,24.748c0.062,0.276,0.276,1.58,0.645,3.91h1.058c0.245-1.441,0.49-2.744,0.736-3.91l4.922-23.414
				c0.153-0.889,0.674-1.334,1.563-1.334h4.416c0.828,0,1.35,0.445,1.564,1.334l4.922,23.414c0.306,1.503,0.521,2.807,0.644,3.91
				h1.15c0.276-1.84,0.476-3.128,0.598-3.864l5.015-24.794H-1261.832z"/>
			<path fill="#282828" d="M-1238.372,3852.957l-6.578-1.656c-2.239-0.552-3.841-1.541-4.808-2.967
				c-0.966-1.427-1.448-3.381-1.448-5.865c0-1.84,0.19-3.319,0.575-4.439c0.383-1.119,1.042-1.962,1.978-2.529
				s1.978-0.943,3.128-1.127c1.15-0.185,2.691-0.276,4.623-0.276c3.741,0.062,6.884,0.368,9.43,0.92l-0.275,2.944
				c-2.976-0.153-5.965-0.23-8.971-0.23c-1.35,0-2.346,0.031-2.989,0.092c-0.645,0.063-1.273,0.246-1.887,0.553
				s-1.02,0.79-1.219,1.448c-0.199,0.66-0.299,1.572-0.299,2.737c0,1.688,0.299,2.883,0.897,3.588
				c0.598,0.706,1.633,1.242,3.104,1.61l6.44,1.61c2.36,0.582,4.017,1.579,4.968,2.989c0.95,1.411,1.426,3.39,1.426,5.935
				c0,3.496-0.79,5.812-2.369,6.945c-1.58,1.136-4.332,1.702-8.257,1.702c-3.343,0-6.624-0.292-9.844-0.874l0.275-2.989
				c5.152,0.184,8.388,0.261,9.706,0.229c2.515,0,4.209-0.322,5.083-0.966c0.874-0.645,1.312-2.024,1.312-4.141
				c0-1.747-0.299-2.967-0.897-3.656C-1235.865,3853.853-1236.9,3853.324-1238.372,3852.957z"/>
		</g>
		<path fill="#282828" d="M-1843.166,3265.375c-16.5,0-30,13.5-30,30V3617.4h613.969c16.5,0,30-13.5,30-30v-322.024H-1843.166z
			 M-1643.719,3528.025h-115.504c-14.336,0-26-11.664-26-26v-147.132h32v141.132h109.504V3528.025z M-1487.445,3513.025
			c0,8.25-6.75,15-15,15h-96.505c-14.336,0-26-11.664-26-26v-147.132h32v141.132h105.505V3513.025z M-1487.445,3442.778
			c0,8.25-6.75,15-15,15h-71.365v-32h86.365V3442.778z M-1487.445,3371.75c0,8.25-6.75,15-15,15h-71.365v-32h86.365V3371.75z
			 M-1311.594,3371.75c0,8.25-6.75,15-15,15h-47.565v126.276c0,8.25-6.75,15-15,15h-17V3386.75h-62.566v-32h157.132V3371.75z"/>
	</g>
	<g id="Слой_5">
	</g>
</g>
<g id="Page_4">
	<rect x="-461.952" y="2566.18" fill="#282828" width="2000" height="2000"/>
	<g>
		<g>
			<path fill="#FFFFFF" d="M617.287,3802.017c-41.014,0-74.38-33.366-74.38-74.38s33.366-74.38,74.38-74.38
				s74.38,33.366,74.38,74.38S658.301,3802.017,617.287,3802.017z M617.287,3685.257c-23.368,0-42.38,19.012-42.38,42.38
				s19.012,42.38,42.38,42.38s42.38-19.012,42.38-42.38S640.655,3685.257,617.287,3685.257z"/>
		</g>
		<g>
			<path fill="#FFFFFF" d="M730.059,3801.971c-2.383,0-4.759-0.465-7.051-1.414c-7.485-3.101-11.954-10.49-11.954-19.768v-127.76h32
				v99.133l24.982-24.982c4.887-4.888,11.37-7.572,18.272-7.572c0.067,0,0.133,0,0.199,0.001c6.979,0.052,13.498,2.839,18.358,7.847
				l23.167,23.873v-98.299h32v127.76c0,9.331-4.498,16.726-12.032,19.781c-7.538,3.056-15.914,0.883-22.413-5.813l-39.339-40.537
				l-40.811,40.811C740.888,3799.583,735.457,3801.971,730.059,3801.971z"/>
		</g>
		<g>
			<path fill="#D24A43" d="M262.835,3711.545h-12.771v-58.266h-32v148.532h32v-58.266h12.771c1.404,0.06,4.723,1.435,5.785,2.412
				l51.866,51.867c5.834,5.834,15.379,5.834,21.213,0l12.02-12.021l-62.5-62.5C284.296,3716.379,272.624,3711.545,262.835,3711.545z
				"/>
			<path fill="#D24A43" d="M317.225,3705.782l36.499-36.5l-12.02-12.02c-5.834-5.833-15.38-5.833-21.213,0l-36.499,36.499
				l12.02,12.021C301.846,3711.615,311.392,3711.615,317.225,3705.782z"/>
		</g>
		<g>
			<path fill="#FFFFFF" d="M504.644,3802.387c-5.497,0-11.003-2.502-15.567-7.253l-87.513-91.1v97.773h-32v-127.524
				c0-9.35,4.509-16.747,12.061-19.787c7.55-3.04,15.927-0.83,22.405,5.913l87.514,91.101v-98.228h32v127.979
				c0,9.351-4.509,16.747-12.061,19.787C509.251,3801.947,506.949,3802.387,504.644,3802.387z"/>
		</g>
		<g>
			<path fill="#FFFFFF" d="M240.214,3862.846l0.414,3.036c-2.546,0.705-5.643,1.058-9.292,1.058c-4.569,0-7.789-1.226-9.66-3.68
				c-1.87-2.453-2.806-6.7-2.806-12.742c0-6.041,0.936-10.288,2.806-12.742c1.871-2.453,5.091-3.68,9.66-3.68
				c3.281,0,6.164,0.307,8.648,0.92l-0.414,3.082c-2.76-0.276-5.505-0.414-8.234-0.414c-3.098,0-5.236,0.928-6.417,2.783
				s-1.771,5.206-1.771,10.051c0,4.846,0.59,8.196,1.771,10.051c1.181,1.856,3.319,2.783,6.417,2.783
				C234.893,3863.352,237.852,3863.184,240.214,3862.846z"/>
			<path fill="#FFFFFF" d="M275.312,3866.388h-4.324l-2.807-9.936c-0.398-1.196-0.936-2.048-1.609-2.554
				c-0.675-0.506-1.549-0.759-2.622-0.759c-1.074,0-2.385-0.007-3.934-0.023c-1.549-0.015-2.568-0.022-3.059-0.022v13.294h-4.002
				v-31.74c2.576-0.275,6.225-0.414,10.948-0.414c3.771,0,6.424,0.652,7.958,1.955c1.533,1.304,2.3,3.703,2.3,7.199
				c0,2.606-0.453,4.554-1.357,5.842s-2.399,2.07-4.484,2.347v0.229c0.858,0.215,1.64,0.713,2.346,1.495
				c0.705,0.782,1.227,1.802,1.564,3.059L275.312,3866.388z M256.958,3849.644h6.854c2.392-0.03,4.032-0.46,4.922-1.288
				c0.889-0.828,1.334-2.407,1.334-4.737c0-2.301-0.445-3.856-1.334-4.67c-0.89-0.812-2.53-1.219-4.922-1.219
				c-3.374,0-5.658,0.016-6.854,0.046V3849.644z"/>
			<path fill="#FFFFFF" d="M298.634,3855.256v11.132h-4.048v-11.178l-10.534-20.563h4.324l6.67,13.387
				c0.368,0.735,0.843,1.932,1.426,3.588h0.322c0.49-1.35,0.966-2.53,1.426-3.542l6.67-13.433h4.278L298.634,3855.256z"/>
			<path fill="#FFFFFF" d="M320.391,3866.388v-31.74c2.576-0.275,6.21-0.414,10.902-0.414c3.863,0,6.531,0.698,8.004,2.094
				c1.472,1.396,2.208,4.01,2.208,7.843c0,3.834-0.713,6.447-2.14,7.843c-1.426,1.396-3.964,2.093-7.612,2.093
				c-2.516,0-4.953-0.138-7.314-0.414v12.696H320.391z M324.439,3850.61h6.809c2.36-0.03,3.979-0.482,4.853-1.356
				s1.312-2.568,1.312-5.083s-0.445-4.217-1.334-5.106c-0.891-0.889-2.5-1.334-4.83-1.334c-3.344,0-5.612,0.016-6.809,0.046V3850.61
				z"/>
			<path fill="#FFFFFF" d="M375.82,3838.236h-10.258v28.152h-4.048v-28.152h-10.213v-3.588h24.519V3838.236z"/>
			<path fill="#FFFFFF" d="M388.539,3837.662c1.855-2.407,5.113-3.611,9.775-3.611c4.661,0,7.912,1.204,9.752,3.611
				s2.76,6.692,2.76,12.856s-0.92,10.45-2.76,12.857s-5.091,3.61-9.752,3.61c-4.662,0-7.92-1.203-9.775-3.61
				s-2.783-6.693-2.783-12.857S386.683,3840.069,388.539,3837.662z M404.8,3840.467c-1.195-1.855-3.357-2.783-6.485-2.783
				s-5.29,0.928-6.486,2.783s-1.794,5.206-1.794,10.051c0,4.846,0.598,8.196,1.794,10.051c1.196,1.856,3.358,2.783,6.486,2.783
				s5.29-0.927,6.485-2.783c1.196-1.854,1.794-5.205,1.794-10.051C406.594,3845.673,405.996,3842.323,404.8,3840.467z"/>
			<path fill="#FFFFFF" d="M444.498,3862.846l0.414,3.036c-2.546,0.705-5.644,1.058-9.292,1.058c-4.57,0-7.79-1.226-9.66-3.68
				c-1.871-2.453-2.807-6.7-2.807-12.742c0-6.041,0.936-10.288,2.807-12.742c1.87-2.453,5.09-3.68,9.66-3.68
				c3.28,0,6.163,0.307,8.647,0.92l-0.414,3.082c-2.76-0.276-5.505-0.414-8.233-0.414c-3.099,0-5.237,0.928-6.417,2.783
				c-1.182,1.855-1.771,5.206-1.771,10.051c0,4.846,0.59,8.196,1.771,10.051c1.18,1.856,3.318,2.783,6.417,2.783
				C439.177,3863.352,442.135,3863.184,444.498,3862.846z"/>
			<path fill="#FFFFFF" d="M480.102,3834.648v19.597c0,4.631-0.859,7.911-2.576,9.844c-1.718,1.932-4.646,2.897-8.786,2.897
				c-4.294,0-7.322-0.966-9.085-2.897c-1.764-1.933-2.645-5.213-2.645-9.844v-19.597h4.048v19.597c0,3.403,0.552,5.772,1.655,7.106
				c1.104,1.334,3.052,2.001,5.843,2.001c2.76,0,4.699-0.667,5.818-2.001s1.68-3.703,1.68-7.106v-19.597H480.102z"/>
			<path fill="#FFFFFF" d="M516.902,3866.388h-4.324l-2.807-9.936c-0.398-1.196-0.936-2.048-1.609-2.554
				c-0.675-0.506-1.549-0.759-2.622-0.759c-1.074,0-2.385-0.007-3.933-0.023c-1.55-0.015-2.569-0.022-3.06-0.022v13.294h-4.002
				v-31.74c2.576-0.275,6.226-0.414,10.948-0.414c3.771,0,6.424,0.652,7.958,1.955c1.533,1.304,2.3,3.703,2.3,7.199
				c0,2.606-0.453,4.554-1.357,5.842s-2.399,2.07-4.484,2.347v0.229c0.858,0.215,1.64,0.713,2.346,1.495
				c0.705,0.782,1.227,1.802,1.564,3.059L516.902,3866.388z M498.548,3849.644h6.854c2.392-0.03,4.032-0.46,4.922-1.288
				c0.889-0.828,1.334-2.407,1.334-4.737c0-2.301-0.445-3.856-1.334-4.67c-0.89-0.812-2.53-1.219-4.922-1.219
				c-3.374,0-5.658,0.016-6.854,0.046V3849.644z"/>
			<path fill="#FFFFFF" d="M552,3866.388h-4.324l-2.807-9.936c-0.398-1.196-0.936-2.048-1.609-2.554
				c-0.675-0.506-1.549-0.759-2.622-0.759c-1.074,0-2.385-0.007-3.933-0.023c-1.55-0.015-2.569-0.022-3.06-0.022v13.294h-4.002
				v-31.74c2.576-0.275,6.226-0.414,10.948-0.414c3.771,0,6.424,0.652,7.958,1.955c1.533,1.304,2.3,3.703,2.3,7.199
				c0,2.606-0.453,4.554-1.357,5.842s-2.399,2.07-4.484,2.347v0.229c0.858,0.215,1.64,0.713,2.346,1.495
				c0.705,0.782,1.227,1.802,1.564,3.059L552,3866.388z M533.645,3849.644h6.854c2.392-0.03,4.032-0.46,4.922-1.288
				c0.889-0.828,1.334-2.407,1.334-4.737c0-2.301-0.445-3.856-1.334-4.67c-0.89-0.812-2.53-1.219-4.922-1.219
				c-3.374,0-5.658,0.016-6.854,0.046V3849.644z"/>
			<path fill="#FFFFFF" d="M584.015,3863.03l0.184,3.128c-2.821,0.185-7.36,0.276-13.616,0.276c-1.871,0-3.351-0.498-4.438-1.495
				c-1.089-0.996-1.649-2.338-1.68-4.024v-20.792c0.03-1.687,0.591-3.028,1.68-4.025c1.088-0.996,2.567-1.495,4.438-1.495
				c6.256,0,10.795,0.092,13.616,0.276l-0.184,3.174h-12.742c-1.84,0-2.76,1.012-2.76,3.036v6.899h13.708v3.267h-13.708v8.693
				c0,2.056,0.92,3.082,2.76,3.082H584.015z"/>
			<path fill="#FFFFFF" d="M621.596,3834.648v30.13c0,1.074-0.521,1.61-1.563,1.61h-3.956c-0.828,0-1.426-0.429-1.794-1.288
				l-10.718-22.494c-1.043-2.269-1.642-3.664-1.795-4.186h-0.735c0.122,1.227,0.184,2.622,0.184,4.186v23.782h-4.048v-30.13
				c0-1.073,0.536-1.61,1.61-1.61h3.817c0.828,0,1.427,0.43,1.794,1.288l10.396,21.942c0.766,1.503,1.487,3.036,2.162,4.6h0.782
				c-0.093-1.656-0.139-3.266-0.139-4.83v-23H621.596z"/>
			<path fill="#FFFFFF" d="M656.419,3862.846l0.414,3.036c-2.546,0.705-5.644,1.058-9.292,1.058c-4.57,0-7.79-1.226-9.66-3.68
				c-1.871-2.453-2.807-6.7-2.807-12.742c0-6.041,0.936-10.288,2.807-12.742c1.87-2.453,5.09-3.68,9.66-3.68
				c3.28,0,6.163,0.307,8.647,0.92l-0.414,3.082c-2.76-0.276-5.505-0.414-8.233-0.414c-3.099,0-5.237,0.928-6.417,2.783
				c-1.182,1.855-1.771,5.206-1.771,10.051c0,4.846,0.59,8.196,1.771,10.051c1.18,1.856,3.318,2.783,6.417,2.783
				C651.097,3863.352,654.056,3863.184,656.419,3862.846z"/>
			<path fill="#FFFFFF" d="M680.246,3855.256v11.132h-4.048v-11.178l-10.534-20.563h4.324l6.67,13.387
				c0.368,0.735,0.843,1.932,1.426,3.588h0.322c0.49-1.35,0.966-2.53,1.426-3.542l6.67-13.433h4.278L680.246,3855.256z"/>
			<path fill="#FFFFFF" d="M742.115,3834.648v30.13c0,1.074-0.521,1.61-1.563,1.61h-3.956c-0.828,0-1.426-0.429-1.794-1.288
				l-10.718-22.494c-1.043-2.269-1.642-3.664-1.795-4.186h-0.735c0.122,1.227,0.184,2.622,0.184,4.186v23.782h-4.048v-30.13
				c0-1.073,0.536-1.61,1.61-1.61h3.817c0.828,0,1.427,0.43,1.794,1.288l10.396,21.942c0.766,1.503,1.487,3.036,2.162,4.6h0.782
				c-0.093-1.656-0.139-3.266-0.139-4.83v-23H742.115z"/>
			<path fill="#FFFFFF" d="M776.063,3863.03l0.184,3.128c-2.821,0.185-7.36,0.276-13.616,0.276c-1.871,0-3.351-0.498-4.438-1.495
				c-1.089-0.996-1.649-2.338-1.68-4.024v-20.792c0.03-1.687,0.591-3.028,1.68-4.025c1.088-0.996,2.567-1.495,4.438-1.495
				c6.256,0,10.795,0.092,13.616,0.276l-0.184,3.174h-12.742c-1.84,0-2.76,1.012-2.76,3.036v6.899h13.708v3.267h-13.708v8.693
				c0,2.056,0.92,3.082,2.76,3.082H776.063z"/>
			<path fill="#FFFFFF" d="M827.398,3834.648l-6.439,30.544c-0.215,0.798-0.752,1.196-1.61,1.196h-4.6
				c-0.89,0-1.411-0.414-1.564-1.242l-4.968-23.874c-0.184-0.797-0.43-1.993-0.736-3.588h-0.966l-0.689,3.588l-4.923,23.874
				c-0.215,0.828-0.751,1.242-1.609,1.242h-4.646c-0.398,0-0.743-0.115-1.035-0.345c-0.291-0.23-0.468-0.514-0.528-0.852
				l-6.44-30.544h4.278l4.968,24.748c0.062,0.276,0.276,1.58,0.645,3.91h1.058c0.245-1.441,0.49-2.744,0.736-3.91l4.922-23.414
				c0.153-0.889,0.674-1.334,1.563-1.334h4.416c0.828,0,1.35,0.445,1.564,1.334l4.922,23.414c0.306,1.503,0.521,2.807,0.644,3.91
				h1.15c0.276-1.84,0.476-3.128,0.598-3.864l5.015-24.794H827.398z"/>
			<path fill="#FFFFFF" d="M850.858,3852.957l-6.578-1.656c-2.239-0.552-3.841-1.541-4.808-2.967
				c-0.966-1.427-1.448-3.381-1.448-5.865c0-1.84,0.19-3.319,0.575-4.439c0.383-1.119,1.042-1.962,1.978-2.529
				s1.978-0.943,3.128-1.127c1.15-0.185,2.691-0.276,4.623-0.276c3.741,0.062,6.884,0.368,9.43,0.92l-0.275,2.944
				c-2.976-0.153-5.965-0.23-8.971-0.23c-1.35,0-2.346,0.031-2.989,0.092c-0.645,0.063-1.273,0.246-1.887,0.553
				s-1.02,0.79-1.219,1.448c-0.199,0.66-0.299,1.572-0.299,2.737c0,1.688,0.299,2.883,0.897,3.588
				c0.598,0.706,1.633,1.242,3.104,1.61l6.44,1.61c2.36,0.582,4.017,1.579,4.968,2.989c0.95,1.411,1.426,3.39,1.426,5.935
				c0,3.496-0.79,5.812-2.369,6.945c-1.58,1.136-4.332,1.702-8.257,1.702c-3.343,0-6.624-0.292-9.844-0.874l0.275-2.989
				c5.152,0.184,8.388,0.261,9.706,0.229c2.515,0,4.209-0.322,5.083-0.966c0.874-0.645,1.312-2.024,1.312-4.141
				c0-1.747-0.299-2.967-0.897-3.656C853.365,3853.853,852.33,3853.324,850.858,3852.957z"/>
		</g>
		<path fill="#FFFFFF" d="M246.064,3265.375c-16.5,0-30,13.5-30,30V3617.4h613.969c16.5,0,30-13.5,30-30v-322.024H246.064z
			 M445.511,3528.025H330.007c-14.336,0-26-11.664-26-26v-147.132h32v141.132h109.504V3528.025z M601.785,3513.025
			c0,8.25-6.75,15-15,15h-96.505c-14.336,0-26-11.664-26-26v-147.132h32v141.132h105.505V3513.025z M601.785,3442.778
			c0,8.25-6.75,15-15,15h-71.365v-32h86.365V3442.778z M601.785,3371.75c0,8.25-6.75,15-15,15h-71.365v-32h86.365V3371.75z
			 M777.636,3371.75c0,8.25-6.75,15-15,15h-47.565v126.276c0,8.25-6.75,15-15,15h-17V3386.75h-62.566v-32h157.132V3371.75z"/>
	</g>
	<g display="none">
		<g display="inline">
			<defs>
				<rect id="SVGID_1_" x="-1933.641" y="1370.303" width="600" height="420"/>
			</defs>
			<clipPath id="SVGID_2_">
				<use xlink:href="#SVGID_1_"  overflow="visible"/>
			</clipPath>
		</g>
	</g>
</g>
<g id="Page_2">
	<rect x="-461.952" y="482.232" fill="#282828" width="2000" height="2000"/>
	<g display="none">
		<path display="inline" fill="#C52728" d="M440.077,1482.232c0,83.515-67.702,151.218-151.218,151.218
			s-151.218-67.702-151.218-151.218s67.702-151.217,151.218-151.217S440.077,1398.717,440.077,1482.232"/>
		<path display="inline" fill="#B62025" d="M400.492,1449.086l-4.941-1.322l-44.931,25.94l-12.015,44.838v0.009l-0.22,0.819
			c-0.22,0.819-0.562,1.348-0.953,1.579l-86.529,49.956l-1.095,4.092c-0.276,1.039,0.257,1.447,1.186,0.912l90.581-52.3
			c0.387-0.225,0.721-0.743,0.935-1.549l12.017-44.84l46.158-26.649C401.617,1450.032,401.529,1449.365,400.492,1449.086"/>
		<path display="inline" fill="#BABABA" d="M397.433,1445.052l-32.669-8.753c-1.059-0.285-2.134-0.108-3.018,0.402l-55.756,32.19
			l-3.556-6.163c-0.739-1.279-2.203-2.339-3.75-2.841l-104.926-28.349c-1.056-0.285-2.154,0.346-2.437,1.404l-8.993,33.568
			c-0.285,1.056,0.376,1.854,1.469,1.769l28.995-2.236l40.922,70.88l-9.743,36.357c-0.281,1.058,0.264,1.475,1.21,0.927
			l92.251-53.259c0.391-0.231,0.732-0.76,0.953-1.579l12.236-45.666l47.011-27.141
			C398.576,1446.013,398.487,1445.335,397.433,1445.052"/>
		<path display="inline" fill="#FFFFFF" d="M397.433,1445.052l-32.669-8.753c-1.059-0.285-2.134-0.108-3.018,0.402l-41.352,23.875
			l17.185,57.21c0,1.493-1.253,3.562-2.346,1.668l-29.239-50.563h-0.004l-0.909-1.579l-0.102-0.173l-2.545-4.411
			c-0.739-1.279-2.203-2.339-3.75-2.841l-104.926-28.349c-1.056-0.285-2.154,0.346-2.437,1.404l-8.993,33.568
			c-0.285,1.056,0.376,1.854,1.469,1.769l28.129-2.171l0.039-0.002l0.827-0.063l80.355-6.038c2.182-0.168,6.898,1.143,8.017,2.966
			l-81.055,15.744l33.605,58.208l-9.743,36.357c-0.281,1.058,0.264,1.475,1.21,0.927l92.251-53.259
			c0.391-0.231,0.732-0.76,0.953-1.579l11.868-44.298l9.067-33.834c0.566-2.113,3.258-4.286,5.126-3.785v28.267l33.186-19.157
			C398.576,1446.013,398.487,1445.335,397.433,1445.052"/>
		<path display="inline" fill="#ECECEC" d="M335.553,1519.899l-115.504-41.285l33.665,58.309l82.539-16.716
			C336.031,1520.234,335.789,1520.146,335.553,1519.899"/>
		<path display="inline" fill="#F3F4F4" d="M397.433,1445.052l-32.669-8.753c-0.341-0.091-0.687-0.136-1.026-0.136
			c-0.709,0-1.396,0.194-1.992,0.538l-41.397,23.901l0.359,1.188l41.352-23.895v0.056c0.806-0.452,1.666-0.693,2.396-0.499
			l-0.009-0.004c0,0.002,0.004,0.002,0.009,0.004l8.22,2.203l25.193,6.749C398.547,1445.892,398.39,1445.309,397.433,1445.052"/>
		<path display="inline" fill="#F3F4F4" d="M358.434,1439.96l-20.851,77.795c0,0.011-0.004,0.019-0.004,0.03
			c0,0.979-0.54,2.208-1.221,2.402l-92.441,53.373c-0.121,0.845,0.404,1.143,1.264,0.648l92.249-53.261
			c0.393-0.229,0.734-0.758,0.955-1.577l12.236-45.668l8.699-32.464l0.026-0.076l0.084-0.32l0.039-0.039
			c0.48-1.195,1.573-2.333,2.75-2.942l0.123-0.127L358.434,1439.96z"/>
		<path display="inline" fill="#F3F4F4" d="M298.683,1459.887l-104.923-28.349c-0.173-0.047-0.346-0.067-0.516-0.067
			c-0.607,0-1.173,0.283-1.547,0.745l1.75,0.473l3.456,0.935l73.397,19.827l24.607,6.651c0.026,0.002,0.045,0.009,0.071,0.011
			c1.059,0.162,2.253,0.477,3.329,0.905l0.039,0.011c0.629,0.207,1.236,0.529,1.754,0.914c0.464,0.32,0.84,0.661,1.063,1.028
			l1.27-0.246C301.696,1461.449,300.231,1460.386,298.683,1459.887"/>
	</g>
	<g>
		<g>
			<g>
				<g>
					<path fill="#FFFFFF" d="M378.592,251.226l0.324,2.376c-1.993,0.553-4.417,0.828-7.272,0.828c-3.577,0-6.097-0.959-7.56-2.88
						c-1.464-1.92-2.196-5.243-2.196-9.972c0-4.728,0.732-8.052,2.196-9.972c1.463-1.92,3.983-2.881,7.56-2.881
						c2.568,0,4.824,0.24,6.768,0.721l-0.324,2.412c-2.16-0.217-4.308-0.324-6.444-0.324c-2.424,0-4.099,0.726-5.022,2.178
						c-0.924,1.452-1.386,4.074-1.386,7.866s0.462,6.414,1.386,7.866c0.923,1.452,2.598,2.178,5.022,2.178
						C374.428,251.622,376.743,251.49,378.592,251.226z"/>
					<path fill="#FFFFFF" d="M402.459,253.998h-3.384l-2.196-7.776c-0.312-0.936-0.732-1.602-1.26-1.998
						c-0.528-0.396-1.212-0.594-2.052-0.594c-0.84,0-1.866-0.006-3.078-0.018c-1.212-0.012-2.011-0.019-2.394-0.019v10.404h-3.132
						v-24.84c2.016-0.216,4.872-0.324,8.568-0.324c2.952,0,5.027,0.51,6.228,1.53c1.199,1.021,1.8,2.897,1.8,5.634
						c0,2.04-0.354,3.564-1.063,4.572s-1.878,1.62-3.51,1.836v0.18c0.672,0.168,1.284,0.559,1.836,1.17
						c0.551,0.612,0.959,1.41,1.223,2.395L402.459,253.998z M388.096,240.895h5.364c1.872-0.024,3.156-0.36,3.852-1.009
						c0.696-0.647,1.044-1.884,1.044-3.708c0-1.8-0.348-3.018-1.044-3.653c-0.696-0.636-1.98-0.954-3.852-0.954
						c-2.64,0-4.428,0.012-5.364,0.036V240.895z"/>
					<path fill="#FFFFFF" d="M417.111,245.286v8.712h-3.168v-8.748l-8.243-16.092h3.384l5.22,10.476
						c0.288,0.576,0.66,1.513,1.116,2.809h0.252c0.384-1.056,0.756-1.98,1.116-2.772l5.22-10.512h3.348L417.111,245.286z"/>
					<path fill="#FFFFFF" d="M430.539,253.998v-24.84c2.017-0.216,4.86-0.324,8.532-0.324c3.024,0,5.112,0.546,6.264,1.638
						c1.152,1.093,1.729,3.139,1.729,6.139s-0.559,5.046-1.674,6.138c-1.116,1.093-3.103,1.638-5.958,1.638
						c-1.969,0-3.877-0.107-5.725-0.323v9.936H430.539z M433.707,241.65h5.328c1.848-0.024,3.114-0.378,3.798-1.063
						c0.685-0.684,1.026-2.01,1.026-3.978s-0.349-3.3-1.044-3.996c-0.696-0.696-1.957-1.044-3.78-1.044
						c-2.616,0-4.392,0.012-5.328,0.036V241.65z"/>
					<path fill="#FFFFFF" d="M470.318,231.966h-8.027v22.032h-3.168v-22.032h-7.992v-2.808h19.188V231.966z"/>
					<path fill="#FFFFFF" d="M476.673,231.516c1.452-1.884,4.002-2.825,7.65-2.825c3.647,0,6.191,0.941,7.632,2.825
						c1.439,1.885,2.16,5.238,2.16,10.063s-0.721,8.178-2.16,10.062c-1.44,1.885-3.984,2.826-7.632,2.826
						c-3.648,0-6.198-0.941-7.65-2.826c-1.452-1.884-2.178-5.237-2.178-10.062S475.221,233.4,476.673,231.516z M489.398,233.712
						c-0.936-1.452-2.628-2.178-5.075-2.178c-2.448,0-4.141,0.726-5.076,2.178c-0.937,1.452-1.404,4.074-1.404,7.866
						s0.468,6.414,1.404,7.866c0.936,1.452,2.628,2.178,5.076,2.178c2.447,0,4.14-0.726,5.075-2.178
						c0.937-1.452,1.404-4.074,1.404-7.866S490.335,235.164,489.398,233.712z"/>
					<path fill="#FFFFFF" d="M516.867,251.226l0.323,2.376c-1.992,0.553-4.416,0.828-7.271,0.828c-3.576,0-6.097-0.959-7.561-2.88
						c-1.464-1.92-2.195-5.243-2.195-9.972c0-4.728,0.731-8.052,2.195-9.972s3.984-2.881,7.561-2.881
						c2.567,0,4.824,0.24,6.768,0.721l-0.323,2.412c-2.16-0.217-4.309-0.324-6.444-0.324c-2.425,0-4.099,0.726-5.022,2.178
						s-1.386,4.074-1.386,7.866s0.462,6.414,1.386,7.866s2.598,2.178,5.022,2.178C512.702,251.622,515.018,251.49,516.867,251.226z"
						/>
					<path fill="#FFFFFF" d="M541.131,229.158v15.336c0,3.624-0.673,6.192-2.017,7.704s-3.636,2.268-6.876,2.268
						c-3.36,0-5.73-0.756-7.109-2.268c-1.381-1.512-2.07-4.08-2.07-7.704v-15.336h3.168v15.336c0,2.664,0.432,4.518,1.296,5.562
						s2.388,1.566,4.572,1.566c2.16,0,3.678-0.522,4.554-1.566s1.314-2.897,1.314-5.562v-15.336H541.131z"/>
					<path fill="#FFFFFF" d="M566.33,253.998h-3.384l-2.196-7.776c-0.313-0.936-0.732-1.602-1.26-1.998
						c-0.528-0.396-1.212-0.594-2.052-0.594c-0.841,0-1.867-0.006-3.078-0.018c-1.212-0.012-2.011-0.019-2.395-0.019v10.404h-3.132
						v-24.84c2.017-0.216,4.872-0.324,8.568-0.324c2.952,0,5.027,0.51,6.228,1.53s1.8,2.897,1.8,5.634
						c0,2.04-0.354,3.564-1.062,4.572s-1.878,1.62-3.51,1.836v0.18c0.671,0.168,1.283,0.559,1.836,1.17
						c0.552,0.612,0.959,1.41,1.224,2.395L566.33,253.998z M551.966,240.895h5.364c1.872-0.024,3.155-0.36,3.853-1.009
						c0.695-0.647,1.044-1.884,1.044-3.708c0-1.8-0.349-3.018-1.044-3.653c-0.697-0.636-1.98-0.954-3.853-0.954
						c-2.641,0-4.428,0.012-5.364,0.036V240.895z"/>
					<path fill="#FFFFFF" d="M590.198,253.998h-3.384l-2.196-7.776c-0.313-0.936-0.732-1.602-1.26-1.998
						c-0.528-0.396-1.212-0.594-2.052-0.594c-0.841,0-1.867-0.006-3.078-0.018c-1.212-0.012-2.011-0.019-2.395-0.019v10.404h-3.132
						v-24.84c2.017-0.216,4.872-0.324,8.568-0.324c2.952,0,5.027,0.51,6.228,1.53s1.8,2.897,1.8,5.634
						c0,2.04-0.354,3.564-1.062,4.572s-1.878,1.62-3.51,1.836v0.18c0.671,0.168,1.283,0.559,1.836,1.17
						c0.552,0.612,0.959,1.41,1.224,2.395L590.198,253.998z M575.834,240.895h5.364c1.872-0.024,3.155-0.36,3.853-1.009
						c0.695-0.647,1.044-1.884,1.044-3.708c0-1.8-0.349-3.018-1.044-3.653c-0.697-0.636-1.98-0.954-3.853-0.954
						c-2.641,0-4.428,0.012-5.364,0.036V240.895z"/>
					<path fill="#FFFFFF" d="M611.653,251.37l0.145,2.448c-2.209,0.144-5.761,0.216-10.656,0.216c-1.464,0-2.622-0.39-3.474-1.17
						c-0.853-0.78-1.291-1.83-1.314-3.15v-16.271c0.023-1.32,0.462-2.37,1.314-3.15c0.852-0.779,2.01-1.17,3.474-1.17
						c4.896,0,8.447,0.072,10.656,0.216l-0.145,2.484h-9.972c-1.44,0-2.16,0.792-2.16,2.376v5.399h10.728v2.557h-10.728v6.804
						c0,1.608,0.72,2.412,2.16,2.412H611.653z"/>
					<path fill="#FFFFFF" d="M637.466,229.158v23.58c0,0.84-0.408,1.26-1.224,1.26h-3.097c-0.647,0-1.116-0.336-1.403-1.008
						l-8.389-17.604c-0.816-1.775-1.284-2.867-1.403-3.275h-0.576c0.096,0.96,0.144,2.052,0.144,3.275v18.612h-3.168v-23.58
						c0-0.84,0.42-1.26,1.26-1.26h2.988c0.648,0,1.116,0.336,1.404,1.008l8.136,17.172c0.6,1.177,1.164,2.376,1.692,3.601h0.611
						c-0.071-1.297-0.107-2.557-0.107-3.78v-18H637.466z"/>
					<path fill="#FFFFFF" d="M661.117,251.226l0.323,2.376c-1.992,0.553-4.416,0.828-7.271,0.828c-3.576,0-6.097-0.959-7.561-2.88
						c-1.464-1.92-2.195-5.243-2.195-9.972c0-4.728,0.731-8.052,2.195-9.972s3.984-2.881,7.561-2.881
						c2.567,0,4.824,0.24,6.768,0.721l-0.323,2.412c-2.16-0.217-4.309-0.324-6.444-0.324c-2.425,0-4.099,0.726-5.022,2.178
						s-1.386,4.074-1.386,7.866s0.462,6.414,1.386,7.866s2.598,2.178,5.022,2.178C656.952,251.622,659.268,251.49,661.117,251.226z"
						/>
					<path fill="#FFFFFF" d="M676.164,245.286v8.712h-3.168v-8.748l-8.243-16.092h3.384l5.22,10.476
						c0.288,0.576,0.66,1.513,1.116,2.809h0.252c0.384-1.056,0.756-1.98,1.116-2.772l5.22-10.512h3.348L676.164,245.286z"/>
					<path fill="#FFFFFF" d="M717.385,229.158v23.58c0,0.84-0.408,1.26-1.224,1.26h-3.097c-0.647,0-1.116-0.336-1.403-1.008
						l-8.389-17.604c-0.816-1.775-1.284-2.867-1.403-3.275h-0.576c0.096,0.96,0.144,2.052,0.144,3.275v18.612h-3.168v-23.58
						c0-0.84,0.42-1.26,1.26-1.26h2.988c0.648,0,1.116,0.336,1.404,1.008l8.136,17.172c0.6,1.177,1.164,2.376,1.692,3.601h0.611
						c-0.071-1.297-0.107-2.557-0.107-3.78v-18H717.385z"/>
					<path fill="#FFFFFF" d="M740.351,251.37l0.145,2.448c-2.209,0.144-5.761,0.216-10.656,0.216c-1.464,0-2.622-0.39-3.474-1.17
						c-0.853-0.78-1.291-1.83-1.314-3.15v-16.271c0.023-1.32,0.462-2.37,1.314-3.15c0.852-0.779,2.01-1.17,3.474-1.17
						c4.896,0,8.447,0.072,10.656,0.216l-0.145,2.484h-9.972c-1.44,0-2.16,0.792-2.16,2.376v5.399h10.728v2.557H728.22v6.804
						c0,1.608,0.72,2.412,2.16,2.412H740.351z"/>
					<path fill="#FFFFFF" d="M776.928,229.158l-5.04,23.904c-0.168,0.624-0.588,0.936-1.26,0.936h-3.6
						c-0.696,0-1.104-0.324-1.225-0.972l-3.888-18.685c-0.144-0.624-0.336-1.56-0.576-2.808h-0.756l-0.54,2.808l-3.852,18.685
						c-0.169,0.647-0.589,0.972-1.261,0.972h-3.636c-0.313,0-0.582-0.09-0.81-0.27c-0.229-0.181-0.366-0.402-0.414-0.666
						l-5.04-23.904h3.348l3.888,19.368c0.048,0.216,0.217,1.236,0.505,3.06h0.827c0.192-1.128,0.384-2.147,0.576-3.06l3.853-18.324
						c0.119-0.696,0.527-1.044,1.224-1.044h3.456c0.648,0,1.056,0.348,1.224,1.044l3.853,18.324c0.239,1.176,0.407,2.195,0.504,3.06
						h0.9c0.216-1.439,0.371-2.448,0.468-3.023l3.924-19.404H776.928z"/>
					<path fill="#FFFFFF" d="M791.688,243.486l-5.148-1.296c-1.752-0.433-3.006-1.206-3.762-2.322s-1.134-2.646-1.134-4.59
						c0-1.44,0.149-2.598,0.449-3.475c0.3-0.875,0.816-1.535,1.548-1.979c0.732-0.444,1.549-0.738,2.448-0.882
						c0.9-0.145,2.106-0.217,3.618-0.217c2.928,0.049,5.388,0.288,7.38,0.721l-0.216,2.304c-2.328-0.12-4.668-0.18-7.02-0.18
						c-1.057,0-1.837,0.023-2.341,0.071c-0.504,0.049-0.996,0.192-1.476,0.433c-0.48,0.24-0.798,0.618-0.954,1.134
						c-0.156,0.517-0.234,1.23-0.234,2.142c0,1.32,0.234,2.257,0.702,2.809s1.278,0.972,2.431,1.26l5.04,1.26
						c1.848,0.456,3.144,1.236,3.888,2.34c0.743,1.104,1.116,2.652,1.116,4.645c0,2.736-0.618,4.548-1.854,5.436
						c-1.236,0.889-3.39,1.332-6.462,1.332c-2.616,0-5.184-0.228-7.704-0.684l0.216-2.34c4.032,0.144,6.564,0.204,7.597,0.18
						c1.967,0,3.294-0.252,3.978-0.756c0.685-0.504,1.026-1.584,1.026-3.24c0-1.368-0.234-2.322-0.702-2.861
						C793.65,244.188,792.84,243.774,791.688,243.486z"/>
				</g>
				<g>
					<path fill="#FFFFFF" d="M476.442,203.783h-88.75c-14.336,0-26-11.663-26-26V55.251h32v116.532h82.75V203.783z"/>
				</g>
				<g>
					<path fill="#FFFFFF" d="M538.692,113.521H525.92V55.255h-32v148.532h32v-58.266h12.771c1.404,0.06,4.723,1.435,5.785,2.412
						l51.866,51.867c5.834,5.834,15.379,5.834,21.213,0l12.02-12.021l-62.5-62.5C560.153,118.355,548.481,113.521,538.692,113.521z"
						/>
					<path fill="#FFFFFF" d="M593.081,107.758l36.499-36.499l-12.02-12.02c-5.834-5.834-15.38-5.834-21.213,0l-36.499,36.499
						l12.02,12.021C577.702,113.591,587.248,113.592,593.081,107.758z"/>
				</g>
				<g>
					<path fill="#FFFFFF" d="M780.5,204.363c-5.497,0-11.003-2.502-15.567-7.253l-87.513-91.1v97.773h-32V76.259
						c0-9.35,4.509-16.747,12.061-19.787c7.55-3.04,15.927-0.83,22.405,5.913l87.514,91.101V55.259h32v127.979
						c0,9.351-4.509,16.747-12.061,19.787C785.108,203.923,782.805,204.363,780.5,204.363z"/>
				</g>
			</g>
		</g>
		<g>
			<path fill="#D24A43" d="M302.435,151.217c0,83.515-67.702,151.218-151.218,151.218S0,234.733,0,151.217S67.702,0,151.218,0
				S302.435,67.702,302.435,151.217"/>
			<path fill="#BABABA" d="M259.791,114.037l-32.67-8.753c-1.059-0.285-2.134-0.108-3.018,0.402l-55.756,32.19l-3.556-6.163
				c-0.739-1.279-2.203-2.34-3.75-2.841L56.116,100.523c-1.056-0.285-2.154,0.346-2.437,1.404l-8.993,33.568
				c-0.285,1.056,0.376,1.853,1.469,1.769l28.995-2.236l40.922,70.88l-9.743,36.357c-0.281,1.059,0.264,1.475,1.21,0.927
				l92.251-53.259c0.391-0.231,0.732-0.76,0.953-1.579l12.236-45.666l47.011-27.141C260.934,114.999,260.845,114.32,259.791,114.037
				"/>
			<path fill="#FFFFFF" d="M259.791,114.037l-32.67-8.753c-1.059-0.285-2.134-0.108-3.018,0.402l-41.352,23.875l17.185,57.21
				c0,1.493-1.253,3.562-2.346,1.668l-29.239-50.563h-0.004l-0.909-1.579l-0.102-0.173l-2.545-4.411
				c-0.739-1.279-2.203-2.34-3.75-2.841L56.116,100.523c-1.056-0.285-2.154,0.346-2.437,1.404l-8.993,33.568
				c-0.285,1.056,0.376,1.853,1.469,1.769l28.129-2.171l0.039-0.002l0.827-0.063l80.355-6.038c2.182-0.169,6.898,1.143,8.017,2.966
				l-81.055,15.744l33.605,58.208l-9.743,36.357c-0.281,1.059,0.264,1.475,1.21,0.927l92.251-53.259
				c0.391-0.231,0.732-0.76,0.953-1.579l11.868-44.298l9.067-33.834c0.566-2.113,3.258-4.286,5.126-3.785v28.267l33.186-19.157
				C260.934,114.999,260.845,114.32,259.791,114.037"/>
			<path fill="#ECECEC" d="M197.912,188.885L82.408,147.6l33.665,58.309l82.539-16.716
				C198.389,189.219,198.147,189.131,197.912,188.885"/>
		</g>
	</g>
</g>
<g id="Page_1">
	<g>
		<path fill="#D24A43" d="M-1649.153,1482.232c0,83.515-67.702,151.218-151.217,151.218c-83.515,0-151.218-67.702-151.218-151.218
			s67.702-151.217,151.218-151.217C-1716.856,1331.015-1649.153,1398.717-1649.153,1482.232"/>
		<path fill="#BABABA" d="M-1691.797,1445.052l-32.67-8.753c-1.058-0.285-2.134-0.108-3.018,0.402l-55.756,32.19l-3.556-6.163
			c-0.739-1.279-2.203-2.339-3.75-2.841l-104.926-28.349c-1.056-0.285-2.154,0.346-2.437,1.404l-8.993,33.568
			c-0.285,1.056,0.376,1.854,1.469,1.769l28.995-2.236l40.922,70.88l-9.743,36.357c-0.281,1.058,0.263,1.475,1.21,0.927
			l92.251-53.259c0.391-0.231,0.732-0.76,0.953-1.579l12.236-45.666l47.011-27.141
			C-1690.654,1446.013-1690.743,1445.335-1691.797,1445.052"/>
		<path fill="#FFFFFF" d="M-1691.797,1445.052l-32.67-8.753c-1.058-0.285-2.134-0.108-3.018,0.402l-41.352,23.875l17.185,57.21
			c0,1.493-1.253,3.562-2.346,1.668l-29.239-50.563h-0.004l-0.909-1.579l-0.102-0.173l-2.545-4.411
			c-0.739-1.279-2.203-2.339-3.75-2.841l-104.926-28.349c-1.056-0.285-2.154,0.346-2.437,1.404l-8.993,33.568
			c-0.285,1.056,0.376,1.854,1.469,1.769l28.129-2.171l0.039-0.002l0.827-0.063l80.355-6.038c2.182-0.168,6.898,1.143,8.017,2.966
			l-81.055,15.744l33.605,58.208l-9.743,36.357c-0.281,1.058,0.263,1.475,1.21,0.927l92.251-53.259
			c0.391-0.231,0.732-0.76,0.953-1.579l11.868-44.298l9.067-33.834c0.566-2.113,3.258-4.286,5.126-3.785v28.267l33.186-19.157
			C-1690.654,1446.013-1690.743,1445.335-1691.797,1445.052"/>
		<path fill="#ECECEC" d="M-1753.677,1519.899l-115.504-41.285l33.665,58.309l82.539-16.716
			C-1753.199,1520.234-1753.441,1520.146-1753.677,1519.899"/>
	</g>
	<g>
		<path fill="#282828" d="M-1571.582,1582.24l0.324,2.376c-1.993,0.553-4.417,0.828-7.272,0.828c-3.577,0-6.097-0.959-7.56-2.88
			c-1.464-1.92-2.196-5.243-2.196-9.972c0-4.728,0.732-8.052,2.196-9.972c1.463-1.92,3.983-2.881,7.56-2.881
			c2.568,0,4.824,0.24,6.768,0.721l-0.324,2.412c-2.16-0.217-4.308-0.324-6.444-0.324c-2.424,0-4.099,0.726-5.022,2.178
			c-0.924,1.452-1.386,4.074-1.386,7.866s0.462,6.414,1.386,7.866c0.923,1.452,2.598,2.178,5.022,2.178
			C-1575.746,1582.637-1573.431,1582.505-1571.582,1582.24z"/>
		<path fill="#282828" d="M-1547.715,1585.013h-3.384l-2.196-7.776c-0.312-0.936-0.732-1.602-1.26-1.998
			c-0.528-0.396-1.212-0.594-2.052-0.594c-0.84,0-1.866-0.006-3.078-0.018c-1.212-0.012-2.011-0.019-2.394-0.019v10.404h-3.132
			v-24.84c2.016-0.216,4.872-0.324,8.568-0.324c2.952,0,5.027,0.51,6.228,1.53c1.199,1.021,1.8,2.897,1.8,5.634
			c0,2.04-0.354,3.564-1.063,4.572s-1.878,1.62-3.51,1.836v0.18c0.672,0.168,1.284,0.559,1.836,1.17
			c0.551,0.612,0.959,1.41,1.223,2.395L-1547.715,1585.013z M-1562.078,1571.909h5.364c1.872-0.024,3.156-0.36,3.852-1.009
			c0.696-0.647,1.044-1.884,1.044-3.708c0-1.8-0.348-3.018-1.044-3.653c-0.696-0.636-1.98-0.954-3.852-0.954
			c-2.64,0-4.428,0.012-5.364,0.036V1571.909z"/>
		<path fill="#282828" d="M-1533.063,1576.301v8.712h-3.168v-8.748l-8.243-16.092h3.384l5.22,10.476
			c0.288,0.576,0.66,1.513,1.116,2.809h0.252c0.384-1.056,0.756-1.98,1.116-2.772l5.22-10.512h3.348L-1533.063,1576.301z"/>
		<path fill="#282828" d="M-1519.635,1585.013v-24.84c2.017-0.216,4.86-0.324,8.532-0.324c3.024,0,5.112,0.546,6.264,1.638
			c1.152,1.093,1.729,3.139,1.729,6.139s-0.559,5.046-1.674,6.138c-1.116,1.093-3.103,1.638-5.958,1.638
			c-1.969,0-3.877-0.107-5.725-0.323v9.936H-1519.635z M-1516.467,1572.665h5.328c1.848-0.024,3.114-0.378,3.798-1.063
			c0.685-0.684,1.026-2.01,1.026-3.978s-0.349-3.3-1.044-3.996c-0.696-0.696-1.957-1.044-3.78-1.044
			c-2.616,0-4.392,0.012-5.328,0.036V1572.665z"/>
		<path fill="#282828" d="M-1479.856,1562.981h-8.027v22.032h-3.168v-22.032h-7.992v-2.808h19.188V1562.981z"/>
		<path fill="#282828" d="M-1473.501,1562.53c1.452-1.884,4.002-2.825,7.65-2.825c3.647,0,6.191,0.941,7.632,2.825
			c1.439,1.885,2.16,5.238,2.16,10.063s-0.721,8.178-2.16,10.062c-1.44,1.885-3.984,2.826-7.632,2.826
			c-3.648,0-6.198-0.941-7.65-2.826c-1.452-1.884-2.178-5.237-2.178-10.062S-1474.953,1564.415-1473.501,1562.53z
			 M-1460.776,1564.727c-0.936-1.452-2.628-2.178-5.075-2.178c-2.448,0-4.141,0.726-5.076,2.178
			c-0.937,1.452-1.404,4.074-1.404,7.866s0.468,6.414,1.404,7.866c0.936,1.452,2.628,2.178,5.076,2.178
			c2.447,0,4.14-0.726,5.075-2.178c0.937-1.452,1.404-4.074,1.404-7.866S-1459.839,1566.179-1460.776,1564.727z"/>
		<path fill="#282828" d="M-1433.307,1582.24l0.323,2.376c-1.992,0.553-4.416,0.828-7.271,0.828c-3.576,0-6.097-0.959-7.561-2.88
			c-1.464-1.92-2.195-5.243-2.195-9.972c0-4.728,0.731-8.052,2.195-9.972s3.984-2.881,7.561-2.881c2.567,0,4.824,0.24,6.768,0.721
			l-0.323,2.412c-2.16-0.217-4.309-0.324-6.444-0.324c-2.425,0-4.099,0.726-5.022,2.178s-1.386,4.074-1.386,7.866
			s0.462,6.414,1.386,7.866s2.598,2.178,5.022,2.178C-1437.472,1582.637-1435.156,1582.505-1433.307,1582.24z"/>
		<path fill="#282828" d="M-1409.043,1560.173v15.336c0,3.624-0.673,6.192-2.017,7.704s-3.636,2.268-6.876,2.268
			c-3.36,0-5.73-0.756-7.109-2.268c-1.381-1.512-2.07-4.08-2.07-7.704v-15.336h3.168v15.336c0,2.664,0.432,4.518,1.296,5.562
			s2.388,1.566,4.572,1.566c2.16,0,3.678-0.522,4.554-1.566s1.314-2.897,1.314-5.562v-15.336H-1409.043z"/>
		<path fill="#282828" d="M-1383.844,1585.013h-3.384l-2.196-7.776c-0.313-0.936-0.732-1.602-1.26-1.998
			c-0.528-0.396-1.212-0.594-2.052-0.594c-0.841,0-1.867-0.006-3.078-0.018c-1.212-0.012-2.011-0.019-2.395-0.019v10.404h-3.132
			v-24.84c2.017-0.216,4.872-0.324,8.568-0.324c2.952,0,5.027,0.51,6.228,1.53s1.8,2.897,1.8,5.634c0,2.04-0.354,3.564-1.062,4.572
			s-1.878,1.62-3.51,1.836v0.18c0.671,0.168,1.283,0.559,1.836,1.17c0.552,0.612,0.959,1.41,1.224,2.395L-1383.844,1585.013z
			 M-1398.208,1571.909h5.364c1.872-0.024,3.155-0.36,3.853-1.009c0.695-0.647,1.044-1.884,1.044-3.708
			c0-1.8-0.349-3.018-1.044-3.653c-0.697-0.636-1.98-0.954-3.853-0.954c-2.641,0-4.428,0.012-5.364,0.036V1571.909z"/>
		<path fill="#282828" d="M-1359.976,1585.013h-3.384l-2.196-7.776c-0.313-0.936-0.732-1.602-1.26-1.998
			c-0.528-0.396-1.212-0.594-2.052-0.594c-0.841,0-1.867-0.006-3.078-0.018c-1.212-0.012-2.011-0.019-2.395-0.019v10.404h-3.132
			v-24.84c2.017-0.216,4.872-0.324,8.568-0.324c2.952,0,5.027,0.51,6.228,1.53s1.8,2.897,1.8,5.634c0,2.04-0.354,3.564-1.062,4.572
			s-1.878,1.62-3.51,1.836v0.18c0.671,0.168,1.283,0.559,1.836,1.17c0.552,0.612,0.959,1.41,1.224,2.395L-1359.976,1585.013z
			 M-1374.34,1571.909h5.364c1.872-0.024,3.155-0.36,3.853-1.009c0.695-0.647,1.044-1.884,1.044-3.708
			c0-1.8-0.349-3.018-1.044-3.653c-0.697-0.636-1.98-0.954-3.853-0.954c-2.641,0-4.428,0.012-5.364,0.036V1571.909z"/>
		<path fill="#282828" d="M-1338.521,1582.385l0.145,2.448c-2.209,0.144-5.761,0.216-10.656,0.216c-1.464,0-2.622-0.39-3.474-1.17
			c-0.853-0.78-1.291-1.83-1.314-3.15v-16.271c0.023-1.32,0.462-2.37,1.314-3.15c0.852-0.779,2.01-1.17,3.474-1.17
			c4.896,0,8.447,0.072,10.656,0.216l-0.145,2.484h-9.972c-1.44,0-2.16,0.792-2.16,2.376v5.399h10.728v2.557h-10.728v6.804
			c0,1.608,0.72,2.412,2.16,2.412H-1338.521z"/>
		<path fill="#282828" d="M-1312.708,1560.173v23.58c0,0.84-0.408,1.26-1.224,1.26h-3.097c-0.647,0-1.116-0.336-1.403-1.008
			l-8.389-17.604c-0.816-1.775-1.284-2.867-1.403-3.275h-0.576c0.096,0.96,0.144,2.052,0.144,3.275v18.612h-3.168v-23.58
			c0-0.84,0.42-1.26,1.26-1.26h2.988c0.648,0,1.116,0.336,1.404,1.008l8.136,17.172c0.6,1.177,1.164,2.376,1.692,3.601h0.611
			c-0.071-1.297-0.107-2.557-0.107-3.78v-18H-1312.708z"/>
		<path fill="#282828" d="M-1289.057,1582.24l0.323,2.376c-1.992,0.553-4.416,0.828-7.271,0.828c-3.576,0-6.097-0.959-7.561-2.88
			c-1.464-1.92-2.195-5.243-2.195-9.972c0-4.728,0.731-8.052,2.195-9.972s3.984-2.881,7.561-2.881c2.567,0,4.824,0.24,6.768,0.721
			l-0.323,2.412c-2.16-0.217-4.309-0.324-6.444-0.324c-2.425,0-4.099,0.726-5.022,2.178s-1.386,4.074-1.386,7.866
			s0.462,6.414,1.386,7.866s2.598,2.178,5.022,2.178C-1293.222,1582.637-1290.906,1582.505-1289.057,1582.24z"/>
		<path fill="#282828" d="M-1274.01,1576.301v8.712h-3.168v-8.748l-8.243-16.092h3.384l5.22,10.476
			c0.288,0.576,0.66,1.513,1.116,2.809h0.252c0.384-1.056,0.756-1.98,1.116-2.772l5.22-10.512h3.348L-1274.01,1576.301z"/>
		<path fill="#282828" d="M-1232.789,1560.173v23.58c0,0.84-0.408,1.26-1.224,1.26h-3.097c-0.647,0-1.116-0.336-1.403-1.008
			l-8.389-17.604c-0.816-1.775-1.284-2.867-1.403-3.275h-0.576c0.096,0.96,0.144,2.052,0.144,3.275v18.612h-3.168v-23.58
			c0-0.84,0.42-1.26,1.26-1.26h2.988c0.648,0,1.116,0.336,1.404,1.008l8.136,17.172c0.6,1.177,1.164,2.376,1.692,3.601h0.611
			c-0.071-1.297-0.107-2.557-0.107-3.78v-18H-1232.789z"/>
		<path fill="#282828" d="M-1209.823,1582.385l0.145,2.448c-2.209,0.144-5.761,0.216-10.656,0.216c-1.464,0-2.622-0.39-3.474-1.17
			c-0.853-0.78-1.291-1.83-1.314-3.15v-16.271c0.023-1.32,0.462-2.37,1.314-3.15c0.852-0.779,2.01-1.17,3.474-1.17
			c4.896,0,8.447,0.072,10.656,0.216l-0.145,2.484h-9.972c-1.44,0-2.16,0.792-2.16,2.376v5.399h10.728v2.557h-10.728v6.804
			c0,1.608,0.72,2.412,2.16,2.412H-1209.823z"/>
		<path fill="#282828" d="M-1173.246,1560.173l-5.04,23.904c-0.168,0.624-0.588,0.936-1.26,0.936h-3.6
			c-0.696,0-1.104-0.324-1.225-0.972l-3.888-18.685c-0.144-0.624-0.336-1.56-0.576-2.808h-0.756l-0.54,2.808l-3.852,18.685
			c-0.169,0.647-0.589,0.972-1.261,0.972h-3.636c-0.313,0-0.582-0.09-0.81-0.27c-0.229-0.181-0.366-0.402-0.414-0.666l-5.04-23.904
			h3.348l3.888,19.368c0.048,0.216,0.217,1.236,0.505,3.06h0.827c0.192-1.128,0.384-2.147,0.576-3.06l3.853-18.324
			c0.119-0.696,0.527-1.044,1.224-1.044h3.456c0.648,0,1.056,0.348,1.224,1.044l3.853,18.324c0.239,1.176,0.407,2.195,0.504,3.06
			h0.9c0.216-1.439,0.371-2.448,0.468-3.023l3.924-19.404H-1173.246z"/>
		<path fill="#282828" d="M-1158.486,1574.501l-5.148-1.296c-1.752-0.433-3.006-1.206-3.762-2.322s-1.134-2.646-1.134-4.59
			c0-1.44,0.149-2.598,0.449-3.475c0.3-0.875,0.816-1.535,1.548-1.979c0.732-0.444,1.549-0.738,2.448-0.882
			c0.9-0.145,2.106-0.217,3.618-0.217c2.928,0.049,5.388,0.288,7.38,0.721l-0.216,2.304c-2.328-0.12-4.668-0.18-7.02-0.18
			c-1.057,0-1.837,0.023-2.341,0.071c-0.504,0.049-0.996,0.192-1.476,0.433c-0.48,0.24-0.798,0.618-0.954,1.134
			c-0.156,0.517-0.234,1.23-0.234,2.142c0,1.32,0.234,2.257,0.702,2.809s1.278,0.972,2.431,1.26l5.04,1.26
			c1.848,0.456,3.144,1.236,3.888,2.34c0.743,1.104,1.116,2.652,1.116,4.645c0,2.736-0.618,4.548-1.854,5.436
			c-1.236,0.889-3.39,1.332-6.462,1.332c-2.616,0-5.184-0.228-7.704-0.684l0.216-2.34c4.032,0.144,6.564,0.204,7.597,0.18
			c1.967,0,3.294-0.252,3.978-0.756c0.685-0.504,1.026-1.584,1.026-3.24c0-1.368-0.234-2.322-0.702-2.861
			C-1156.524,1575.203-1157.334,1574.789-1158.486,1574.501z"/>
	</g>
	<g>
		<path fill="#282828" d="M-1473.732,1534.798h-88.75c-14.336,0-26-11.663-26-26v-122.532h32v116.532h82.75V1534.798z"/>
	</g>
	<g>
		<path fill="#282828" d="M-1411.482,1444.536h-12.771v-58.266h-32v148.532h32v-58.266h12.771c1.404,0.06,4.723,1.435,5.785,2.412
			l51.866,51.867c5.833,5.834,15.379,5.834,21.213,0l12.02-12.021l-62.5-62.5
			C-1390.021,1449.37-1401.693,1444.536-1411.482,1444.536z"/>
		<path fill="#282828" d="M-1357.093,1438.773l36.499-36.499l-12.02-12.02c-5.834-5.834-15.38-5.834-21.213,0l-36.499,36.499
			l12.021,12.021C-1372.472,1444.606-1362.926,1444.606-1357.093,1438.773z"/>
	</g>
	<g>
		<path fill="#282828" d="M-1169.674,1535.378c-5.497,0-11.003-2.502-15.567-7.253l-87.513-91.1v97.773h-32v-127.524
			c0-9.35,4.509-16.747,12.061-19.787c7.55-3.04,15.927-0.83,22.405,5.913l87.514,91.101v-98.228h32v127.979
			c0,9.351-4.509,16.747-12.061,19.787C-1165.066,1534.938-1167.369,1535.378-1169.674,1535.378z"/>
	</g>
</g>
</svg>
