<?xml version="1.0" encoding="utf-8"?>
<!-- Generator: Adobe Illustrator 17.0.0, SVG Export Plug-In . SVG Version: 6.00 Build 0)  -->
<!DOCTYPE svg PUBLIC "-//W3C//DTD SVG 1.1//EN" "http://www.w3.org/Graphics/SVG/1.1/DTD/svg11.dtd">
<svg version="1.1" id="Layer_1" xmlns="http://www.w3.org/2000/svg" xmlns:xlink="http://www.w3.org/1999/xlink" x="0px" y="0px"
	 width="270.177px" height="62.12px" viewBox="0 0 270.177 62.12" enable-background="new 0 0 270.177 62.12" xml:space="preserve">
<g>
	<g>
		<path fill="#282828" d="M147.02,58.02c-0.1,0.22-0.203,0.477-0.31,0.77h-0.07c-0.127-0.36-0.23-0.62-0.31-0.78l-1.45-2.91h-0.94
			l2.29,4.47V62h0.88v-2.42l2.29-4.48h-0.93L147.02,58.02z M140.95,59.155c-0.153-0.17-0.323-0.278-0.51-0.325v-0.05
			c0.453-0.06,0.778-0.23,0.975-0.51c0.196-0.28,0.295-0.703,0.295-1.27c0-0.76-0.167-1.282-0.5-1.565
			c-0.333-0.283-0.91-0.425-1.73-0.425c-1.027,0-1.82,0.03-2.38,0.09V62h0.87v-2.89c0.107,0,0.328,0.002,0.665,0.005
			c0.336,0.003,0.621,0.005,0.855,0.005c0.233,0,0.423,0.055,0.57,0.165c0.147,0.11,0.263,0.295,0.35,0.555l0.61,2.16h0.94
			l-0.67-2.18C141.216,59.547,141.103,59.325,140.95,59.155z M139.46,58.36h-1.49v-2.58c0.26-0.007,0.756-0.01,1.49-0.01
			c0.52,0,0.876,0.088,1.07,0.265c0.193,0.177,0.29,0.515,0.29,1.015c0,0.507-0.097,0.85-0.29,1.03
			C140.336,58.26,139.98,58.353,139.46,58.36z M0,6.697v55.169h109.521c3.628,0,6.596-3.014,6.596-6.697V0H6.596
			C2.968,0,0,3.014,0,6.697z M72.971,14.287h29.074v3.795c0,1.842-1.484,3.349-3.298,3.349h-7.721v22.666
			c0,1.842-1.484,3.349-3.298,3.349H83.99V21.431H72.971V14.287z M68.51,30.9c0,1.842-1.484,3.349-3.298,3.349H54.685v-7.144H68.51
			V30.9z M54.634,14.287h13.825v3.795c0,1.842-1.484,3.349-3.298,3.349H54.634V14.287z M43.228,14.287h7.036v26.014h18.195v3.795
			c0,1.842-1.484,3.349-3.298,3.349H48.945c-3.152,0-5.717-2.604-5.717-5.804V14.287z M14.072,14.287h7.036v26.014h18.195v7.144
			H19.789c-3.152,0-5.717-2.604-5.717-5.804V14.287z M169.02,54.97c-1.013,0-1.722,0.262-2.125,0.785
			c-0.404,0.523-0.605,1.455-0.605,2.795c0,1.34,0.201,2.272,0.605,2.795c0.403,0.523,1.112,0.785,2.125,0.785
			c1.013,0,1.72-0.262,2.12-0.785c0.4-0.523,0.6-1.455,0.6-2.795c0-1.34-0.2-2.272-0.6-2.795
			C170.74,55.232,170.033,54.97,169.02,54.97z M170.43,60.735c-0.26,0.403-0.73,0.605-1.41,0.605s-1.15-0.202-1.41-0.605
			c-0.26-0.403-0.39-1.132-0.39-2.185c0-1.053,0.13-1.782,0.39-2.185c0.26-0.403,0.73-0.605,1.41-0.605s1.15,0.202,1.41,0.605
			c0.26,0.404,0.39,1.132,0.39,2.185C170.82,59.603,170.69,60.332,170.43,60.735z M132.32,61.34c-0.673,0-1.138-0.202-1.395-0.605
			c-0.257-0.403-0.385-1.132-0.385-2.185c0-1.053,0.128-1.782,0.385-2.185c0.257-0.403,0.721-0.605,1.395-0.605
			c0.593,0,1.19,0.03,1.79,0.09l0.09-0.67c-0.54-0.133-1.167-0.2-1.88-0.2c-0.993,0-1.693,0.267-2.1,0.8
			c-0.407,0.533-0.61,1.457-0.61,2.77c0,1.313,0.203,2.237,0.61,2.77c0.407,0.534,1.107,0.8,2.1,0.8c0.793,0,1.467-0.077,2.02-0.23
			l-0.09-0.66C133.737,61.303,133.093,61.34,132.32,61.34z M154.29,55.01c-1.02,0-1.81,0.03-2.37,0.09V62h0.88v-2.76
			c0.513,0.06,1.043,0.09,1.59,0.09c0.793,0,1.345-0.152,1.655-0.455c0.31-0.303,0.465-0.871,0.465-1.705
			c0-0.833-0.16-1.402-0.48-1.705C155.71,55.162,155.13,55.01,154.29,55.01z M155.335,58.275c-0.19,0.19-0.542,0.289-1.055,0.295
			h-1.48v-2.79c0.26-0.007,0.753-0.01,1.48-0.01c0.507,0,0.857,0.097,1.05,0.29c0.193,0.193,0.29,0.563,0.29,1.11
			C155.62,57.717,155.525,58.085,155.335,58.275z M158.72,55.88h2.22V62h0.88v-6.12h2.23V55.1h-5.33V55.88z M186.08,59.36
			c0,0.74-0.122,1.255-0.365,1.545c-0.243,0.29-0.665,0.435-1.265,0.435c-0.607,0-1.03-0.145-1.27-0.435
			c-0.24-0.29-0.36-0.805-0.36-1.545V55.1h-0.88v4.26c0,1.007,0.192,1.72,0.575,2.14c0.383,0.42,1.042,0.63,1.975,0.63
			c0.9,0,1.537-0.21,1.91-0.63c0.373-0.42,0.56-1.133,0.56-2.14V55.1h-0.88V59.36z M249.249,55.84h2.77l0.04-0.69
			c-0.613-0.04-1.6-0.06-2.96-0.06c-0.407,0-0.728,0.108-0.965,0.325c-0.237,0.217-0.358,0.508-0.365,0.875v4.52
			c0.007,0.367,0.128,0.658,0.365,0.875c0.237,0.217,0.558,0.325,0.965,0.325c1.36,0,2.347-0.02,2.96-0.06l-0.04-0.68h-2.77
			c-0.4,0-0.6-0.223-0.6-0.67v-1.89h2.98V58h-2.98v-1.5C248.649,56.06,248.849,55.84,249.249,55.84z M243.689,60.1
			c0,0.34,0.01,0.69,0.03,1.05h-0.17c-0.147-0.34-0.303-0.673-0.47-1l-2.26-4.77c-0.08-0.186-0.21-0.28-0.39-0.28h-0.83
			c-0.234,0-0.35,0.117-0.35,0.35V62h0.88v-5.17c0-0.34-0.013-0.643-0.04-0.91h0.16c0.033,0.113,0.163,0.417,0.39,0.91l2.33,4.89
			c0.08,0.187,0.21,0.28,0.39,0.28h0.86c0.227,0,0.34-0.117,0.34-0.35V55.1h-0.87V60.1z M223.759,61.34
			c-0.673,0-1.138-0.202-1.395-0.605c-0.257-0.403-0.385-1.132-0.385-2.185c0-1.053,0.128-1.782,0.385-2.185
			c0.257-0.403,0.721-0.605,1.395-0.605c0.593,0,1.19,0.03,1.79,0.09l0.09-0.67c-0.54-0.133-1.167-0.2-1.88-0.2
			c-0.993,0-1.693,0.267-2.1,0.8c-0.407,0.533-0.61,1.457-0.61,2.77c0,1.313,0.203,2.237,0.61,2.77c0.407,0.534,1.107,0.8,2.1,0.8
			c0.793,0,1.466-0.077,2.02-0.23l-0.09-0.66C225.176,61.303,224.533,61.34,223.759,61.34z M230.859,58.02
			c-0.1,0.22-0.204,0.477-0.31,0.77h-0.07c-0.127-0.36-0.23-0.62-0.31-0.78l-1.45-2.91h-0.94l2.29,4.47V62h0.88v-2.42l2.29-4.48
			h-0.93L230.859,58.02z M269.889,58.95c-0.207-0.306-0.567-0.523-1.08-0.65l-1.4-0.35c-0.32-0.08-0.545-0.197-0.675-0.35
			c-0.13-0.153-0.195-0.413-0.195-0.78c0-0.253,0.021-0.452,0.065-0.595c0.043-0.144,0.132-0.248,0.265-0.315
			c0.133-0.067,0.27-0.107,0.41-0.12c0.14-0.013,0.357-0.02,0.65-0.02c0.653,0,1.303,0.017,1.95,0.05l0.06-0.64
			c-0.553-0.12-1.237-0.187-2.05-0.2c-0.42,0-0.755,0.02-1.005,0.06c-0.25,0.04-0.477,0.122-0.68,0.245
			c-0.204,0.124-0.347,0.307-0.43,0.55c-0.083,0.243-0.125,0.565-0.125,0.965c0,0.54,0.105,0.965,0.315,1.275
			c0.21,0.31,0.558,0.525,1.045,0.645l1.43,0.36c0.32,0.08,0.545,0.195,0.675,0.345c0.13,0.15,0.195,0.415,0.195,0.795
			c0,0.46-0.095,0.76-0.285,0.9c-0.19,0.14-0.558,0.21-1.105,0.21c-0.287,0.007-0.99-0.01-2.11-0.05l-0.06,0.65
			c0.7,0.126,1.413,0.19,2.14,0.19c0.853,0,1.451-0.123,1.795-0.37c0.343-0.247,0.515-0.75,0.515-1.51
			C270.199,59.686,270.096,59.257,269.889,58.95z M261.239,60.49c-0.027,0.16-0.07,0.44-0.13,0.84h-0.25
			c-0.027-0.24-0.073-0.523-0.14-0.85l-1.07-5.09c-0.047-0.193-0.16-0.29-0.34-0.29h-0.96c-0.193,0-0.307,0.097-0.34,0.29
			l-1.07,5.09c-0.054,0.253-0.107,0.537-0.16,0.85h-0.23c-0.08-0.507-0.127-0.79-0.14-0.85l-1.08-5.38h-0.93l1.4,6.64
			c0.013,0.073,0.052,0.135,0.115,0.185c0.063,0.05,0.138,0.075,0.225,0.075h1.01c0.187,0,0.303-0.09,0.35-0.27l1.07-5.19l0.15-0.78
			h0.21c0.066,0.347,0.12,0.607,0.16,0.78l1.08,5.19c0.033,0.18,0.147,0.27,0.34,0.27h1c0.187,0,0.303-0.087,0.35-0.26l1.4-6.64
			h-0.93L261.239,60.49z M267.354,47.174c1.656-0.682,2.646-2.333,2.646-4.416V14.237h-7.036v21.944l-5.094-5.33
			c-1.069-1.118-2.502-1.74-4.037-1.752c-0.015,0-0.029,0-0.044,0c-1.518,0-2.943,0.599-4.018,1.69l-5.493,5.577v-22.13h-7.036
			v28.521c0,2.071,0.983,3.721,2.628,4.413c0.504,0.212,1.026,0.316,1.55,0.316c1.187,0,2.381-0.533,3.382-1.549l8.973-9.111
			l8.65,9.049C263.855,47.371,265.697,47.856,267.354,47.174z M177.21,61.34c-0.673,0-1.138-0.202-1.395-0.605
			c-0.257-0.403-0.385-1.132-0.385-2.185c0-1.053,0.128-1.782,0.385-2.185c0.257-0.403,0.722-0.605,1.395-0.605
			c0.593,0,1.19,0.03,1.79,0.09l0.09-0.67c-0.54-0.133-1.167-0.2-1.88-0.2c-0.993,0-1.693,0.267-2.1,0.8
			c-0.407,0.533-0.61,1.457-0.61,2.77c0,1.313,0.203,2.237,0.61,2.77c0.406,0.534,1.107,0.8,2.1,0.8c0.793,0,1.467-0.077,2.02-0.23
			l-0.09-0.66C178.626,61.303,177.983,61.34,177.21,61.34z M194.03,59.155c-0.154-0.17-0.324-0.278-0.51-0.325v-0.05
			c0.453-0.06,0.778-0.23,0.975-0.51c0.197-0.28,0.295-0.703,0.295-1.27c0-0.76-0.167-1.282-0.5-1.565
			c-0.333-0.283-0.91-0.425-1.73-0.425c-1.027,0-1.82,0.03-2.38,0.09V62h0.87v-2.89c0.106,0,0.328,0.002,0.665,0.005
			c0.337,0.003,0.622,0.005,0.855,0.005c0.233,0,0.423,0.055,0.57,0.165c0.147,0.11,0.263,0.295,0.35,0.555L194.1,62h0.94
			l-0.67-2.18C194.296,59.547,194.183,59.325,194.03,59.155z M192.54,58.36h-1.49v-2.58c0.26-0.007,0.756-0.01,1.49-0.01
			c0.52,0,0.876,0.088,1.07,0.265c0.193,0.177,0.29,0.515,0.29,1.015c0,0.507-0.097,0.85-0.29,1.03
			C193.416,58.26,193.06,58.353,192.54,58.36z M201.74,59.155c-0.153-0.17-0.323-0.278-0.51-0.325v-0.05
			c0.453-0.06,0.778-0.23,0.975-0.51c0.197-0.28,0.295-0.703,0.295-1.27c0-0.76-0.167-1.282-0.5-1.565
			c-0.333-0.283-0.91-0.425-1.73-0.425c-1.027,0-1.82,0.03-2.38,0.09V62h0.87v-2.89c0.106,0,0.328,0.002,0.665,0.005
			c0.336,0.003,0.621,0.005,0.855,0.005c0.233,0,0.423,0.055,0.57,0.165c0.147,0.11,0.263,0.295,0.35,0.555l0.61,2.16h0.94
			l-0.67-2.18C202.006,59.547,201.893,59.325,201.74,59.155z M200.25,58.36h-1.49v-2.58c0.26-0.007,0.757-0.01,1.49-0.01
			c0.52,0,0.877,0.088,1.07,0.265c0.193,0.177,0.29,0.515,0.29,1.015c0,0.507-0.097,0.85-0.29,1.03
			C201.126,58.26,200.77,58.353,200.25,58.36z M207.019,55.84h2.77l0.04-0.69c-0.613-0.04-1.6-0.06-2.96-0.06
			c-0.407,0-0.729,0.108-0.965,0.325c-0.237,0.217-0.358,0.508-0.365,0.875v4.52c0.007,0.367,0.128,0.658,0.365,0.875
			c0.237,0.217,0.558,0.325,0.965,0.325c1.36,0,2.346-0.02,2.96-0.06l-0.04-0.68h-2.77c-0.4,0-0.6-0.223-0.6-0.67v-1.89h2.98V58
			h-2.98v-1.5C206.42,56.06,206.62,55.84,207.019,55.84z M232.98,30.892c0-9.156-7.336-16.604-16.354-16.604
			c-9.018,0-16.354,7.449-16.354,16.604c0,9.156,7.337,16.605,16.354,16.605C225.644,47.496,232.98,40.048,232.98,30.892z
			 M207.308,30.892c0-5.217,4.18-9.461,9.318-9.461c5.138,0,9.318,4.244,9.318,9.461c0,5.217-4.18,9.461-9.318,9.461
			C211.488,40.353,207.308,36.108,207.308,30.892z M217.169,60.1c0,0.34,0.01,0.69,0.03,1.05h-0.17c-0.147-0.34-0.303-0.673-0.47-1
			l-2.26-4.77c-0.08-0.186-0.21-0.28-0.39-0.28h-0.83c-0.233,0-0.35,0.117-0.35,0.35V62h0.88v-5.17c0-0.34-0.014-0.643-0.04-0.91
			h0.16c0.033,0.113,0.163,0.417,0.39,0.91l2.33,4.89c0.08,0.187,0.21,0.28,0.39,0.28h0.86c0.227,0,0.34-0.117,0.34-0.35V55.1h-0.87
			V60.1z M188.978,36.221l-19.242-20.337c-1.425-1.505-3.266-1.999-4.927-1.32c-1.66,0.679-2.652,2.33-2.652,4.417V47.45h7.036
			V25.623l19.242,20.337c1.004,1.06,2.214,1.619,3.423,1.619c0.507,0,1.013-0.098,1.504-0.299c1.66-0.679,2.652-2.33,2.652-4.417
			v-28.57h-7.036V36.221z"/>
	</g>
</g>
<path fill="#D24A43" d="M135.883,14.292h-7.036V47.45h7.036V14.292z"/>
<path fill="#D24A43" d="M139.963,34.981l11.404,11.579c1.283,1.302,3.382,1.302,4.664,0l2.643-2.684l-13.742-13.953
	c-1.522-1.545-4.089-2.625-6.241-2.625h-8.305v7.144h8.305C139,34.456,139.729,34.763,139.963,34.981z"/>
<path fill="#D24A43" d="M158.675,17.865l-2.643-2.684c-1.283-1.302-3.382-1.302-4.664,0l-8.025,8.148l2.643,2.684
	c1.283,1.302,3.382,1.302,4.664,0L158.675,17.865z"/>
</svg>
